{"glyphs":{"0":{"ha":644,"x_min":0,"x_max":0,"o":"m 336 896 b 324 893 332 896 328 894 b 297 892 315 893 307 893 b 128 753 218 881 167 817 b 26 365 57 638 24 501 b 71 129 28 285 42 204 b 267 -24 107 38 164 -21 b 271 -24 268 -24 269 -24 b 307 -28 282 -26 294 -28 b 311 -28 308 -28 310 -28 b 354 -15 326 -28 344 -25 b 361 1 358 -11 361 -6 b 361 1 361 1 361 1 b 403 -3 374 -3 389 -4 b 474 3 426 -10 454 -10 b 606 364 589 75 599 242 l 607 385 b 533 804 617 526 619 688 b 336 893 485 869 411 903 z m 358 790 b 383 750 368 778 376 764 b 426 417 436 650 433 526 b 401 204 422 346 415 274 b 324 61 390 150 372 93 b 313 39 314 54 311 46 b 299 43 304 42 299 43 b 229 160 263 49 240 121 b 225 174 228 165 226 169 b 196 338 208 228 199 283 b 257 646 192 442 213 549 b 342 779 282 701 311 746 b 357 792 346 783 351 788 z m 333 815 b 335 815 326 811 329 825 z m 351 1 b 347 -10 351 -3 350 -7 b 306 -21 338 -19 317 -21 b 301 -21 304 -21 303 -21 b 318 0 311 -17 318 -11 b 261 36 318 22 276 33 b 185 169 218 43 196 133 b 156 333 168 222 158 278 b 218 644 151 440 174 547 b 304 779 240 692 268 740 b 338 808 314 790 328 797 b 338 808 338 808 338 808 b 351 794 342 804 347 799 b 336 781 346 790 340 786 b 249 644 304 746 275 700 b 186 332 203 546 182 438 b 215 165 189 276 199 221 b 219 153 217 161 218 157 b 294 31 232 110 254 38 b 314 25 299 29 306 28 b 336 6 319 17 328 10 b 349 1 340 4 344 3 b 349 -3 349 0 349 -1 z m 596 382 l 594 361 b 465 4 588 240 578 75 b 419 -6 453 -4 436 -7 b 429 -1 424 -4 426 -3 b 561 378 549 74 553 251 b 488 794 569 517 574 678 b 358 879 456 838 410 868 b 522 792 421 879 481 847 b 594 378 607 676 604 518 z "},"1":{"ha":438,"x_min":0,"x_max":0,"o":"m 389 617 b 393 650 390 628 392 639 b 400 849 401 715 410 782 b 368 885 397 864 386 876 b 286 890 344 896 310 897 b 233 879 265 892 244 888 b 86 794 186 847 138 819 b 101 739 57 781 85 749 b 161 726 119 729 140 725 b 213 724 178 722 196 721 b 197 619 207 689 201 654 b 182 394 189 544 183 469 b 186 169 181 319 182 244 b 228 -60 190 96 188 4 b 313 -89 238 -76 281 -90 b 346 -93 324 -92 335 -93 b 363 -92 351 -93 357 -93 b 394 -67 381 -89 392 -81 b 390 90 404 -17 397 38 b 383 158 388 114 385 136 b 379 393 378 235 376 314 b 396 619 382 471 388 547 z m 186 735 b 199 740 190 736 194 738 b 218 749 206 743 211 746 b 218 736 218 744 218 740 b 188 735 208 733 197 733 z m 378 158 b 385 90 379 136 382 113 b 389 -64 392 39 399 -15 b 365 -83 388 -74 379 -81 b 338 -83 357 -85 347 -85 b 353 -64 346 -79 351 -74 b 342 160 367 7 347 88 b 338 393 336 238 335 315 b 354 618 340 468 346 543 b 364 850 363 696 375 772 b 319 888 361 869 342 882 b 374 879 338 889 357 886 b 401 849 385 874 399 864 b 394 651 411 782 403 715 b 390 618 393 640 392 629 b 374 392 382 546 376 469 b 378 157 371 313 372 233 z "},"2":{"ha":551,"x_min":0,"x_max":0,"o":"m 278 186 b 376 338 300 240 338 289 l 385 347 b 540 690 463 444 550 554 b 457 843 536 751 506 807 b 292 879 410 878 350 890 b 239 872 275 879 257 876 b 15 606 121 842 39 719 b 104 558 10 576 64 556 b 108 558 106 558 107 558 b 189 583 144 551 183 557 b 243 710 199 631 217 672 b 328 792 264 739 294 774 b 339 774 332 786 336 781 b 356 713 349 756 354 733 b 319 561 360 661 343 607 b 135 307 269 468 190 396 b 64 -1 81 221 44 101 b 64 -7 64 -3 64 -4 b 144 -50 69 -37 119 -50 b 153 -50 147 -50 150 -50 b 182 -54 164 -53 174 -54 l 379 -54 b 433 -35 397 -54 422 -49 b 439 -10 439 -28 440 -19 b 354 38 432 24 381 38 l 251 38 b 254 67 253 47 254 57 b 275 189 257 107 260 149 z m 233 717 b 176 589 206 679 188 638 b 121 568 172 571 147 565 b 142 589 132 572 139 579 b 197 715 151 635 169 676 b 307 808 222 751 263 797 b 311 808 308 808 310 808 b 319 800 314 806 317 803 b 319 800 319 800 319 800 b 233 717 285 781 254 746 z m 431 -7 b 426 -28 432 -15 431 -22 b 378 -44 417 -40 394 -44 l 367 -44 b 396 -7 385 -39 400 -28 b 343 32 392 14 367 26 l 354 32 b 432 -8 378 32 426 19 z m 246 67 b 242 33 244 56 243 44 l 242 33 b 208 33 231 33 219 33 b 233 186 214 85 214 136 b 332 340 256 243 294 293 b 494 690 413 442 504 551 b 331 875 488 788 418 858 b 450 838 374 875 415 863 b 532 690 499 803 528 750 b 378 354 542 558 458 454 l 369 344 b 269 190 329 294 292 246 b 247 68 253 150 250 108 z "},"3":{"ha":708,"x_min":0,"x_max":0,"o":"m 603 869 b 289 861 499 871 393 868 b 267 858 281 861 274 860 b 250 858 261 858 256 858 b 193 817 226 857 186 850 b 274 774 199 788 249 772 b 282 774 276 774 279 774 b 314 769 294 771 306 769 b 421 775 349 772 385 774 b 400 758 414 769 407 764 b 307 661 364 731 333 697 b 190 411 256 589 197 503 b 192 399 190 407 190 403 b 188 390 190 396 189 393 b 272 347 181 365 233 346 b 344 353 299 340 329 340 b 371 383 360 358 369 369 b 371 397 371 388 371 392 b 383 404 375 400 379 403 b 468 329 418 390 454 354 b 439 76 510 249 494 147 b 336 7 414 44 376 17 b 292 21 321 8 306 13 b 246 76 268 33 250 56 b 256 114 243 90 246 103 b 308 136 269 131 288 136 b 343 131 321 135 332 132 b 356 131 347 131 351 131 b 356 131 356 131 356 131 b 383 126 365 129 375 128 b 436 153 408 124 432 136 b 408 185 438 160 436 174 b 218 214 336 214 272 224 b 156 204 197 214 176 211 b 64 94 107 189 61 150 b 322 -85 69 -22 218 -81 b 372 -89 340 -87 357 -89 b 385 -89 376 -89 381 -89 b 656 113 508 -83 615 -4 b 557 421 696 226 654 356 b 393 478 508 454 450 474 b 485 622 417 529 453 579 b 588 717 514 661 551 689 b 681 797 619 740 653 765 b 686 828 690 810 689 821 b 600 869 674 854 617 869 z m 365 406 l 364 404 l 364 403 b 363 386 363 397 363 392 b 340 363 361 372 350 365 l 339 363 b 293 353 329 354 311 351 b 303 358 297 354 300 356 b 328 385 317 363 326 371 b 329 401 328 390 328 396 b 374 410 342 413 357 414 b 365 406 371 408 368 407 z m 253 121 b 240 78 242 108 238 93 b 289 18 244 56 264 32 b 314 8 297 14 306 11 b 253 22 293 7 272 11 b 217 121 219 42 188 85 b 282 144 233 142 257 146 b 253 124 271 140 261 133 z m 431 160 b 386 140 428 149 408 138 b 378 140 383 140 381 140 b 372 188 400 150 408 172 b 275 217 342 200 308 211 b 408 185 315 215 360 204 b 431 161 425 178 433 169 z m 674 808 b 583 729 647 778 615 753 b 481 633 547 701 510 672 b 386 483 447 589 410 538 l 383 478 l 389 478 b 553 422 446 475 504 456 b 649 124 647 360 688 233 b 383 -72 608 10 504 -67 b 379 -72 382 -72 381 -72 b 613 124 486 -54 576 19 b 515 428 651 235 613 363 b 349 483 467 460 408 481 b 442 633 372 538 408 589 b 638 808 496 706 579 740 b 583 868 663 838 615 860 b 600 868 589 868 594 868 b 678 831 615 868 668 853 b 674 810 681 824 679 817 z "},"4":{"ha":714,"x_min":0,"x_max":0,"o":"m 678 724 b 582 735 653 738 608 744 b 528 719 558 736 536 732 b 475 558 497 671 486 614 b 440 368 463 496 451 432 b 432 314 438 350 435 332 l 278 314 l 453 810 b 446 842 457 821 454 832 b 349 868 428 863 383 875 b 339 865 344 868 342 867 b 272 836 310 868 281 860 b 72 269 206 647 139 458 b 160 217 61 238 115 214 b 236 222 186 210 217 210 l 419 222 b 415 185 418 210 417 197 b 426 0 410 125 406 57 b 522 -37 433 -21 486 -40 b 554 -42 533 -40 544 -42 b 567 -42 558 -42 563 -42 b 594 -15 585 -39 594 -29 b 594 56 594 8 594 32 b 597 172 594 94 593 133 b 622 343 603 229 613 288 l 624 349 b 636 424 628 374 632 399 b 699 685 650 513 664 604 b 678 721 704 699 697 711 z m 439 836 b 443 813 444 829 446 821 l 267 310 b 233 310 256 310 244 310 b 408 810 292 476 350 643 b 360 860 417 833 392 851 b 439 833 390 861 425 850 z m 181 218 b 193 224 185 219 189 221 b 222 224 203 224 213 224 b 179 218 210 218 194 217 z m 689 683 b 625 422 653 603 639 511 b 613 347 621 397 617 372 l 611 342 b 586 171 601 286 592 228 b 583 51 582 131 583 90 b 583 -19 583 28 583 4 b 561 -40 583 -31 576 -37 b 535 -40 553 -42 544 -42 b 549 -21 543 -36 549 -31 b 550 169 550 43 544 106 b 575 346 556 229 565 288 b 650 681 594 457 604 578 b 601 724 658 700 632 717 b 669 710 624 725 651 719 b 686 683 681 704 692 694 z "},"5":{"ha":664,"x_min":0,"x_max":0,"o":"m 431 608 b 324 608 397 614 361 614 b 219 589 289 607 254 600 b 233 643 224 607 228 625 b 236 651 233 644 235 647 b 251 703 239 664 246 689 b 281 699 261 701 271 700 b 367 693 310 694 339 693 b 496 706 410 693 453 697 l 507 707 b 633 757 547 714 608 725 b 640 788 644 769 643 781 b 553 822 628 813 572 822 b 515 818 540 822 528 821 b 515 818 515 818 515 818 b 378 792 468 818 424 800 b 344 788 367 790 356 789 b 161 808 278 783 217 790 b 89 811 142 814 111 819 b 35 794 68 813 46 810 b 74 744 18 769 56 750 b 86 740 78 743 82 742 b 65 682 76 722 71 700 b 24 453 40 610 19 529 b 114 408 25 425 76 406 b 135 406 121 407 128 406 b 190 431 165 403 186 413 b 201 436 194 432 199 433 b 313 499 239 464 275 485 l 319 501 b 388 521 339 508 364 518 b 453 307 458 490 464 368 b 83 -3 421 126 238 50 b 74 -60 54 -12 53 -40 b 147 -82 92 -76 121 -83 b 178 -86 157 -85 168 -86 b 211 -82 190 -86 201 -85 b 639 369 515 21 656 168 b 433 606 629 493 549 586 z m 231 651 b 228 643 229 647 228 644 b 213 585 222 624 217 604 b 175 571 200 581 188 576 b 175 575 175 572 175 574 b 193 643 181 599 186 621 b 211 707 194 649 204 692 b 244 703 222 706 233 704 b 231 654 239 689 233 667 z m 551 815 b 631 785 571 815 621 806 b 625 763 633 778 632 771 b 504 715 601 733 543 722 l 493 714 b 418 706 468 710 443 707 b 454 711 431 707 443 708 b 589 761 494 718 563 728 b 543 815 613 790 575 808 b 551 815 546 815 549 815 z m 157 800 b 231 783 181 793 206 788 b 119 804 193 786 156 793 b 110 808 117 806 114 807 b 158 801 126 810 146 806 z m 319 510 l 313 507 b 199 443 274 492 236 471 b 188 438 196 440 192 439 l 186 436 l 185 433 b 136 414 181 417 157 413 b 132 414 135 414 133 414 b 147 432 140 418 146 424 b 147 432 147 432 147 432 b 160 439 151 433 156 436 b 272 503 194 465 232 488 b 369 526 299 513 338 529 b 317 510 350 522 332 515 z m 210 -71 b 171 -75 199 -75 185 -76 b 172 -75 171 -75 172 -75 b 597 372 378 -6 618 118 b 394 606 588 489 513 585 b 394 606 394 606 394 606 b 435 601 408 606 422 604 b 633 372 546 582 624 492 b 213 -71 650 175 513 31 z "},"6":{"ha":703,"x_min":0,"x_max":0,"o":"m 464 457 b 350 461 425 465 386 467 b 253 440 317 460 283 453 b 303 531 267 471 283 501 b 426 667 343 589 383 633 b 500 713 453 688 476 703 b 529 722 510 717 519 719 b 589 713 549 715 572 711 b 646 714 611 707 635 706 b 654 731 651 718 654 724 b 625 783 653 753 643 771 b 476 803 588 811 522 810 b 410 793 451 801 428 797 b 208 672 332 775 265 728 b 19 215 90 557 6 383 b 131 3 26 133 61 51 b 294 -50 179 -31 236 -47 b 349 -54 313 -53 331 -54 b 438 -43 378 -54 408 -50 b 647 89 482 -32 593 3 b 657 318 690 158 694 246 b 464 458 621 389 550 440 z m 488 297 b 357 49 536 186 458 86 b 321 38 346 44 333 40 b 267 56 300 39 282 44 b 203 206 219 92 207 165 b 211 325 200 243 203 283 b 235 324 219 324 228 324 b 307 329 263 318 294 318 b 404 374 336 356 371 371 b 485 296 438 364 467 339 z m 194 204 b 263 49 199 163 213 86 b 294 33 272 42 283 36 b 226 51 271 32 247 36 b 161 204 182 85 165 151 b 171 335 157 247 161 292 b 204 325 181 331 192 328 b 196 204 196 283 193 243 z m 304 333 b 261 326 297 328 281 325 b 268 331 264 328 267 329 b 383 375 303 363 344 378 b 307 333 357 368 331 354 z m 500 718 b 424 672 476 708 451 693 b 297 532 379 638 338 592 b 243 433 276 500 258 467 b 196 404 226 425 211 415 b 264 531 214 449 238 492 b 389 668 299 582 339 631 b 464 714 413 686 438 703 b 508 728 478 719 493 725 b 514 728 510 728 511 728 b 522 724 517 726 519 725 b 501 715 515 721 508 718 z m 650 725 b 646 715 650 721 649 718 b 610 714 639 711 625 711 b 615 726 614 717 615 721 b 540 794 611 768 579 788 b 625 774 571 794 603 789 b 650 728 640 763 649 747 z m 644 92 b 440 -37 593 8 485 -26 b 369 -47 417 -43 393 -46 b 403 -40 381 -46 392 -43 b 610 90 481 -21 567 21 b 619 315 651 158 656 244 b 414 457 579 393 499 443 b 468 450 432 457 450 454 b 656 314 553 432 621 382 b 646 93 692 244 688 160 z "},"7":{"ha":932,"x_min":0,"x_max":0,"o":"m 833 785 b 751 793 808 799 778 801 b 700 785 733 794 715 792 b 679 774 693 782 686 778 b 556 746 638 768 596 753 b 510 740 540 743 525 742 b 435 736 486 739 461 738 b 347 732 406 735 376 733 b 276 731 324 732 300 732 b 242 731 265 731 254 731 b 161 726 215 731 188 731 b 81 708 132 725 104 721 b 75 672 67 700 67 685 b 79 668 76 671 78 669 b 157 638 94 646 128 636 b 225 639 179 631 206 632 l 238 639 b 275 639 250 639 263 639 b 346 639 299 639 322 639 l 354 639 b 511 639 415 638 465 638 b 542 639 522 639 532 639 b 517 610 533 629 525 619 b 400 444 474 558 435 503 b 331 440 374 446 350 444 b 214 383 283 439 233 428 b 300 338 203 357 257 335 b 338 333 313 335 325 333 b 268 179 313 283 289 232 b 232 -90 238 101 199 -8 b 301 -131 243 -117 275 -128 b 321 -131 307 -131 314 -131 b 340 -135 329 -133 336 -135 b 353 -135 344 -135 349 -135 b 410 -103 379 -135 407 -126 b 415 -49 413 -85 414 -67 b 422 15 417 -28 418 -6 b 457 139 429 53 440 93 b 547 335 481 201 510 265 b 569 335 556 335 563 335 b 669 374 600 336 654 343 b 669 399 674 382 674 390 b 610 432 660 418 628 429 b 601 432 607 432 604 432 b 675 539 625 469 650 506 l 681 546 b 804 688 717 593 757 647 b 831 703 814 692 822 697 b 843 715 836 707 840 711 l 844 717 b 849 721 846 718 847 719 b 863 742 860 728 863 736 b 833 778 863 756 847 771 z m 179 639 b 183 639 181 639 182 639 b 196 639 188 639 192 639 b 208 639 200 639 204 639 b 176 639 199 638 188 638 z m 389 436 b 389 436 389 436 389 436 b 389 436 389 436 389 436 b 389 436 389 436 389 436 z m 318 340 b 342 360 329 344 338 350 b 350 365 343 363 346 364 b 338 340 346 357 342 349 b 321 340 332 340 326 340 z m 447 140 b 413 17 431 94 419 54 b 406 -49 408 -6 407 -28 b 400 -103 404 -67 403 -85 b 340 -128 397 -125 363 -129 b 364 -104 353 -124 363 -117 b 374 14 369 -65 367 -25 b 408 138 381 56 393 97 b 500 336 433 206 465 272 b 525 336 508 336 517 336 b 536 336 528 336 532 336 b 446 139 499 267 469 203 z m 843 725 b 839 721 842 724 840 722 l 836 719 l 836 718 b 826 706 835 714 832 710 b 801 690 819 700 811 694 l 800 690 b 675 546 753 649 711 594 l 669 539 b 592 428 643 504 617 467 l 588 422 l 594 422 b 607 421 599 422 603 422 b 663 393 625 418 654 408 b 661 375 665 388 665 382 b 567 340 647 347 590 342 b 567 340 567 340 567 340 b 626 372 592 344 617 354 b 571 426 643 404 594 422 b 558 428 567 428 563 428 b 635 540 582 467 607 504 b 765 690 672 590 715 647 b 792 706 775 694 783 700 b 803 718 797 710 801 714 b 811 722 806 719 808 721 b 796 774 838 739 814 764 b 775 781 789 776 782 779 b 833 768 794 782 815 778 b 858 738 846 761 858 749 b 849 722 858 732 856 726 z "},"8":{"ha":756,"x_min":0,"x_max":0,"o":"m 510 829 b 344 836 463 840 403 844 b 182 790 286 833 229 819 b 269 458 40 700 163 561 b 190 413 242 447 215 431 b 17 208 117 360 50 294 b 110 -25 -21 113 21 22 b 256 -64 154 -49 204 -61 b 317 -68 275 -67 296 -68 b 449 -47 361 -68 406 -61 b 636 117 539 -18 607 42 b 575 340 669 206 618 286 b 651 424 600 367 626 394 b 725 682 708 489 767 588 b 508 829 686 774 586 813 z m 438 751 b 446 751 440 751 443 751 b 544 694 485 744 524 728 b 528 533 575 644 557 581 b 471 454 511 506 492 479 b 454 471 465 460 460 465 b 340 593 415 510 375 550 b 317 711 307 635 282 672 b 438 753 344 742 394 753 z m 286 19 b 188 76 239 19 204 40 b 207 218 165 125 190 186 b 297 326 226 256 257 292 b 356 371 314 340 332 354 l 358 372 b 358 372 358 372 358 372 b 360 372 358 372 360 372 b 372 356 364 367 368 361 b 283 267 342 326 311 297 b 372 219 258 242 332 218 b 435 222 397 214 424 214 b 456 238 442 226 449 232 b 447 131 467 204 467 168 b 290 18 417 71 356 31 b 286 18 289 18 288 18 z m 432 226 b 394 222 426 222 411 221 b 394 222 394 222 394 222 b 444 261 411 235 428 247 b 453 240 447 254 450 247 b 432 224 446 235 439 229 z m 351 374 b 292 328 328 357 308 343 b 200 218 251 293 221 256 b 179 68 182 185 156 121 b 251 10 193 39 218 18 b 247 10 250 10 249 10 b 144 69 204 10 164 28 b 164 214 124 115 142 172 b 256 322 186 256 219 292 b 314 368 274 339 293 354 b 339 385 322 374 331 379 b 351 372 343 381 347 376 z m 308 711 b 332 583 267 665 304 618 b 446 460 367 539 407 499 b 463 443 451 454 457 449 b 449 426 458 438 454 432 b 436 438 444 431 440 435 b 294 586 388 486 338 533 b 271 708 265 622 232 665 b 389 750 297 738 346 749 b 307 710 357 744 326 732 z m 643 422 b 564 336 617 392 590 363 l 561 333 l 564 331 b 624 111 606 278 657 199 b 440 -50 596 38 529 -21 b 331 -69 404 -61 367 -68 b 401 -54 356 -67 379 -61 b 588 108 482 -28 557 28 b 526 332 619 192 578 268 b 606 418 554 360 581 389 b 678 674 664 486 718 582 b 464 818 642 758 549 800 b 431 824 453 821 442 822 b 503 814 456 822 481 818 b 717 671 579 797 678 758 b 643 419 756 579 699 483 z "},"9":{"ha":847,"x_min":0,"x_max":0,"o":"m 663 731 b 357 826 586 808 472 844 b 60 636 235 821 117 756 b 51 321 17 546 -6 410 b 285 203 101 243 193 206 b 451 218 342 194 401 200 b 381 -106 425 111 401 3 b 471 -160 374 -140 428 -162 b 504 -164 482 -162 493 -164 b 535 -160 515 -164 526 -162 b 563 -131 550 -154 560 -144 b 714 483 601 75 653 282 b 747 578 728 514 739 546 b 747 594 749 583 749 589 b 774 675 757 624 765 650 b 765 707 778 686 775 697 b 663 731 744 729 696 740 z m 529 667 b 571 638 539 653 554 643 b 533 521 558 599 546 560 b 407 349 503 456 458 393 b 303 290 378 324 340 300 b 299 290 301 290 300 290 b 228 329 271 293 247 306 b 217 551 176 392 203 506 b 354 718 239 624 289 685 b 428 739 379 731 404 738 b 526 665 465 729 499 704 z m 349 725 b 208 553 282 690 231 628 b 219 324 194 506 167 389 b 274 286 235 304 253 292 b 182 326 240 283 208 294 b 169 551 135 383 150 485 b 308 719 192 624 240 685 b 394 742 338 735 367 742 b 347 724 379 738 364 732 z m 426 821 b 649 728 511 817 590 785 b 619 724 638 728 628 726 b 428 821 567 778 499 810 z m 350 206 b 425 226 376 210 401 217 b 454 242 435 231 444 236 b 450 225 453 236 451 231 b 350 204 419 213 385 206 z m 765 675 b 739 593 757 650 749 624 l 739 592 l 739 590 b 739 578 740 586 740 582 b 706 486 731 547 719 517 b 554 -131 644 283 593 76 b 531 -154 551 -144 540 -151 b 492 -158 519 -158 506 -160 b 518 -132 506 -154 515 -146 b 668 485 557 76 607 282 b 701 576 682 515 693 546 b 701 593 703 582 703 588 b 729 676 710 621 719 649 b 682 726 738 700 713 718 b 758 703 710 728 743 718 b 765 678 765 694 768 686 z "},"\u0000":{"ha":0,"x_min":0,"x_max":0,"o":""},"\n":{"ha":0,"x_min":0,"x_max":0,"o":""},"\r":{"ha":0,"x_min":0,"x_max":0,"o":""}," ":{"ha":429,"x_min":0,"x_max":0,"o":""},"!":{"ha":338,"x_min":0,"x_max":0,"o":"m 319 913 b 213 933 294 935 246 944 b 144 896 179 936 147 925 b 31 201 117 663 61 433 b 113 169 28 183 79 168 b 117 169 114 169 115 169 b 146 167 126 168 136 167 b 182 182 164 167 179 171 b 251 503 208 288 231 397 b 332 869 275 624 300 749 b 317 911 336 885 331 899 z m 324 871 b 243 504 292 750 267 625 b 174 183 222 399 200 289 b 132 175 172 175 154 172 b 140 182 136 176 139 179 b 292 869 197 410 231 643 b 235 929 299 899 269 921 b 314 904 263 931 296 921 b 326 871 325 894 329 883 z m 179 25 b 154 29 171 28 163 29 b 89 29 133 35 110 36 b 11 -4 58 32 26 24 b 15 -122 -8 -40 -12 -89 b 85 -153 32 -142 60 -151 b 101 -153 90 -153 96 -153 b 125 -156 108 -154 117 -156 b 133 -156 128 -156 131 -156 b 182 -143 150 -156 165 -151 b 231 -99 201 -133 218 -118 b 246 -57 239 -86 244 -71 b 182 29 250 -17 225 17 z m 239 -56 b 224 -93 238 -68 232 -82 b 178 -133 211 -111 196 -125 b 124 -143 158 -142 142 -144 b 119 -143 122 -143 121 -143 b 136 -136 125 -142 131 -139 b 185 -93 156 -126 172 -111 b 200 -53 193 -82 199 -67 b 139 31 204 -11 176 19 b 114 35 131 33 122 35 b 110 35 113 35 111 35 b 118 35 113 35 115 35 b 150 31 129 35 140 33 l 151 31 b 176 26 160 31 168 29 b 238 -51 217 15 240 -15 z "},"\"":{"ha":563,"x_min":0,"x_max":0,"o":"m 186 889 b 53 867 142 886 90 892 b 56 828 35 854 42 839 b 115 801 74 814 94 806 b 103 764 113 789 108 776 b 50 682 88 735 67 710 b 153 633 25 638 129 626 b 271 831 232 656 271 754 b 186 892 271 871 222 894 z m 438 892 b 304 869 393 889 342 894 b 307 831 286 857 293 842 b 367 804 325 817 346 808 b 354 767 364 792 360 779 b 301 685 339 738 318 713 b 404 636 276 640 381 629 b 522 833 483 658 522 757 b 438 894 522 874 474 897 z "},"#":{"ha":943,"x_min":0,"x_max":0,"o":"m 690 461 l 704 461 b 847 474 751 461 800 461 b 872 496 868 479 872 489 b 828 540 872 514 846 533 b 708 556 788 554 746 556 l 714 579 b 739 683 722 614 731 649 b 744 719 742 694 743 707 b 764 797 749 747 753 776 b 739 850 774 817 764 836 b 650 860 713 864 675 868 b 593 842 625 863 601 857 b 561 739 575 811 569 774 b 536 635 553 704 544 669 b 518 556 529 608 524 582 b 497 556 511 556 504 556 b 489 556 494 556 492 556 l 488 556 l 493 581 b 518 685 501 615 510 650 b 524 721 521 696 522 708 b 543 799 528 749 532 778 b 518 851 553 818 543 838 b 429 861 492 865 454 869 b 372 843 404 864 381 858 b 340 740 354 813 349 775 b 315 636 332 706 324 671 b 294 549 308 607 301 578 b 157 549 246 547 201 547 b 125 543 149 549 136 547 b 117 543 122 543 119 543 b 65 506 94 544 51 536 b 149 472 78 478 121 472 b 196 468 168 468 188 468 b 275 467 222 469 249 468 b 263 408 271 447 267 428 b 250 350 258 389 254 369 b 158 351 215 350 186 350 b 126 347 156 351 140 351 b 118 347 124 347 121 347 b 65 315 99 349 60 343 b 142 278 71 289 121 276 b 150 278 144 278 147 278 b 181 274 163 275 174 274 b 233 274 197 274 214 274 b 214 186 226 244 219 215 b 179 -42 199 111 179 35 b 265 -86 179 -71 228 -89 b 274 -87 268 -87 271 -87 b 350 -65 304 -93 340 -89 b 393 108 371 -10 382 50 b 401 158 396 125 399 142 l 407 189 b 424 268 413 215 418 242 b 451 268 433 268 443 268 b 435 185 446 240 440 213 b 400 -43 419 110 400 33 b 486 -87 400 -72 449 -90 b 494 -89 489 -89 492 -89 b 518 -92 501 -90 510 -92 b 571 -67 542 -92 564 -85 b 614 107 592 -11 603 49 b 622 157 617 124 619 140 l 629 192 b 642 263 633 215 638 239 l 665 263 b 690 263 674 263 682 263 b 829 275 736 263 783 263 b 854 297 850 281 854 290 b 810 340 854 315 828 335 b 668 356 764 356 715 356 l 661 356 l 664 365 b 685 457 671 396 678 426 z m 821 528 b 860 492 839 522 860 504 b 840 476 860 483 849 479 b 767 465 817 469 792 467 b 800 472 778 467 789 469 b 782 532 849 486 808 524 b 740 542 768 536 754 539 b 821 528 767 540 794 536 z m 446 575 b 471 679 454 610 463 644 b 499 793 479 714 482 761 b 450 850 513 819 483 842 b 514 836 471 851 496 846 b 535 793 526 829 546 814 b 515 714 524 771 519 742 b 510 678 514 701 513 689 b 485 574 501 643 493 608 l 478 543 b 457 543 471 543 464 543 b 440 543 451 543 446 543 b 449 572 443 553 446 563 z m 403 183 l 397 153 b 389 103 394 136 392 119 b 346 -69 378 44 367 -15 b 289 -89 339 -86 314 -92 b 308 -71 299 -85 306 -79 b 361 153 336 0 346 78 b 382 265 368 190 375 228 b 415 265 393 265 404 265 b 399 186 410 239 404 213 z m 432 349 b 397 349 421 349 410 349 b 401 365 399 354 400 360 b 422 461 408 397 415 429 b 456 461 433 461 444 461 b 435 365 449 429 442 397 z m 481 404 b 468 350 476 386 472 368 b 439 350 458 350 449 350 l 442 363 b 463 458 449 394 456 426 l 493 458 b 481 404 489 440 485 422 z m 807 331 b 846 294 825 325 846 307 b 826 279 846 286 835 282 b 756 268 803 272 779 269 b 789 275 767 269 778 272 b 771 333 838 289 797 325 b 729 343 757 338 743 340 b 807 331 756 342 782 339 z m 665 574 b 690 678 674 608 682 643 b 718 792 699 713 701 760 b 669 849 732 818 703 840 b 733 835 690 850 715 844 b 754 792 746 828 765 813 b 735 713 743 769 739 740 b 729 676 733 700 732 688 b 704 572 721 642 713 607 l 697 543 b 664 543 686 543 675 543 b 668 572 665 553 667 563 z m 624 188 l 617 153 b 608 103 614 136 611 119 b 565 -69 597 44 586 -15 b 508 -89 558 -86 533 -92 b 528 -71 518 -85 525 -79 b 581 153 556 0 565 78 b 601 261 588 189 594 225 b 626 261 610 261 618 261 b 635 261 629 261 632 261 b 618 186 629 236 624 211 z m 654 361 l 651 346 b 618 346 640 346 629 346 b 622 363 619 351 621 357 b 643 458 629 394 636 426 b 676 458 654 458 665 458 b 656 363 669 426 663 394 z "},"$":{"ha":754,"x_min":0,"x_max":0,"o":"m 474 456 b 494 543 481 485 488 514 b 565 526 514 532 543 525 b 633 531 592 521 619 521 b 732 703 686 567 754 625 b 560 814 710 785 600 808 b 597 972 572 867 585 919 b 549 1015 601 990 582 1007 b 485 1015 526 1021 501 1022 b 429 996 458 1018 433 1013 b 381 810 413 935 396 872 b 89 651 269 792 167 733 b 28 469 44 604 -10 536 b 219 382 64 404 153 389 b 244 379 228 381 236 379 b 257 379 249 379 253 379 b 278 379 264 379 271 379 b 240 204 265 321 253 263 b 238 204 239 204 238 204 b 169 206 224 208 194 215 b 114 192 150 207 129 204 b 88 36 68 153 32 86 b 196 -3 117 10 156 -1 b 164 -203 182 -69 169 -136 b 250 -244 163 -229 213 -247 b 258 -246 253 -246 256 -246 b 283 -249 267 -247 275 -249 b 331 -225 306 -249 326 -242 b 375 -12 350 -156 363 -83 b 379 17 376 -3 378 7 b 549 100 436 36 493 64 b 707 251 614 142 678 189 b 711 351 725 289 726 322 b 471 454 682 403 601 438 z m 174 71 b 182 67 176 69 179 68 b 174 71 178 67 175 68 z m 215 106 b 211 76 214 96 213 86 l 207 78 l 210 74 b 190 69 203 72 196 71 b 190 78 190 72 190 75 b 197 108 194 88 192 97 b 228 146 204 122 217 135 b 219 104 225 132 222 118 z m 233 175 b 196 197 224 186 204 194 b 188 200 193 199 190 200 b 196 200 190 200 193 200 b 233 193 211 200 225 196 b 238 193 235 193 236 193 b 233 176 236 188 235 182 z m 510 611 b 535 711 518 644 526 678 b 547 701 540 708 544 706 b 511 610 565 671 538 635 z m 546 1006 b 588 972 569 1000 592 988 b 550 810 575 918 563 864 l 549 806 l 553 806 b 724 699 588 801 701 779 b 626 535 743 626 682 574 b 585 528 618 528 601 526 b 589 532 586 529 588 531 b 686 700 643 569 707 625 b 511 811 667 771 576 801 b 549 974 524 865 536 919 b 501 1011 553 990 529 1004 b 540 1008 514 1013 528 1011 z m 408 372 b 442 368 419 371 431 369 b 397 158 428 301 413 231 b 357 135 385 150 371 142 b 406 372 372 214 389 293 z m 449 368 b 467 368 456 368 461 368 b 533 347 490 365 519 361 b 507 251 560 319 525 272 b 407 168 479 219 444 192 b 449 371 421 238 435 306 z m 158 489 b 243 629 125 524 218 608 b 340 692 272 653 306 675 b 336 671 339 685 338 678 b 281 631 317 660 299 646 b 186 508 265 618 189 553 b 194 485 186 499 189 490 b 231 469 201 476 215 472 b 157 488 204 471 169 474 z m 199 490 b 193 507 194 494 193 500 b 285 625 194 542 251 597 b 333 660 300 638 317 649 b 289 472 318 597 303 535 b 275 472 285 472 281 472 b 199 489 250 474 211 476 z m 697 257 b 542 108 669 196 606 150 b 372 25 486 72 429 44 l 369 24 l 369 21 b 365 -12 368 10 367 -1 b 321 -225 353 -83 340 -156 b 269 -240 317 -239 293 -243 b 286 -225 278 -237 283 -232 b 339 21 310 -144 324 -61 b 511 104 400 40 458 69 b 668 254 569 142 638 189 b 428 451 732 393 549 436 b 489 719 447 542 468 631 b 524 715 500 719 513 718 b 499 603 515 678 507 640 b 483 589 493 597 488 593 b 488 547 465 574 471 558 b 467 453 481 515 474 483 l 465 449 l 469 449 b 710 349 599 432 682 397 b 706 257 724 322 722 292 z "},"%":{"ha":847,"x_min":0,"x_max":0,"o":"m 843 979 l 843 981 b 824 1010 840 988 836 999 b 740 1032 810 1024 771 1036 b 725 1028 735 1031 729 1029 b 671 1011 703 1031 681 1026 b 419 582 583 871 501 726 b 425 608 422 590 424 599 b 439 694 431 633 435 661 b 439 711 439 700 439 706 b 444 744 440 722 442 733 b 449 761 446 750 447 756 b 515 767 474 756 504 754 b 518 788 518 771 521 778 b 400 844 501 836 433 846 b 383 843 394 844 389 844 b 254 872 353 874 294 882 b 207 865 238 872 221 869 b 94 733 154 847 119 779 b 28 564 65 681 42 624 b 35 396 15 514 1 440 b 156 344 61 361 110 344 b 194 340 168 342 182 340 b 240 346 211 340 226 342 b 292 371 260 351 276 360 b 25 -103 200 215 104 60 b 110 -162 7 -140 65 -165 b 143 -167 121 -165 132 -167 b 194 -147 165 -167 185 -161 b 396 193 267 -37 332 79 b 385 151 392 179 388 165 b 389 -6 374 101 365 42 b 540 -87 415 -61 482 -87 b 540 -87 540 -87 540 -87 b 581 -92 554 -90 568 -92 b 581 -92 581 -92 581 -92 b 819 132 697 -92 813 17 b 751 286 822 189 800 240 b 713 318 738 299 724 310 l 710 321 l 710 321 b 697 329 706 324 701 326 b 788 351 718 335 764 346 b 803 354 796 353 801 354 b 826 372 815 357 824 364 b 818 399 829 381 826 390 b 735 421 799 418 761 424 b 703 417 725 419 714 418 b 696 417 700 417 697 417 b 553 388 650 413 596 406 b 531 372 543 383 536 378 b 522 372 528 372 525 372 b 488 364 508 372 497 369 b 517 414 497 381 507 397 b 613 581 549 469 581 526 b 824 956 683 703 757 829 b 842 968 833 958 839 963 b 842 983 844 972 844 978 z m 765 357 b 778 394 788 363 793 379 b 743 413 769 403 757 408 b 815 392 768 414 800 407 b 824 372 822 385 825 378 b 807 360 822 367 817 363 b 792 357 806 360 800 358 b 690 333 760 350 700 336 l 678 329 l 690 325 b 711 313 692 325 699 321 l 711 313 b 749 281 722 304 736 293 b 814 133 796 236 817 188 b 583 -82 808 22 696 -82 b 583 -82 583 -82 583 -82 b 583 -82 583 -82 583 -82 b 779 133 683 -62 774 32 b 713 283 782 194 756 243 b 675 317 700 294 688 306 b 651 331 675 317 657 329 b 768 360 663 335 758 357 z m 610 257 b 638 218 621 246 631 233 b 626 83 657 175 649 124 b 561 10 611 57 588 29 b 556 57 557 22 556 38 b 582 190 557 97 565 142 b 608 256 590 214 599 235 b 608 257 608 256 608 256 z m 511 57 b 538 192 513 103 524 149 b 565 257 546 214 554 236 b 578 285 567 261 572 274 b 603 264 586 278 594 271 b 600 260 601 263 600 261 b 571 193 589 239 579 217 b 544 58 554 144 546 99 b 553 7 544 38 547 21 b 536 -3 547 3 542 0 b 525 -4 532 -4 528 -4 b 519 6 522 0 519 4 b 511 60 513 22 511 42 z m 513 793 b 511 781 514 788 514 783 b 468 772 506 774 489 771 b 478 793 476 776 481 783 b 408 843 468 821 439 836 b 514 792 444 843 500 831 z m 293 875 b 378 849 324 875 357 867 b 365 849 374 849 369 849 b 349 847 360 849 354 849 b 292 878 335 863 314 872 b 296 878 293 878 294 878 z m 189 476 b 176 460 185 471 181 465 b 156 439 169 453 163 446 b 153 453 154 446 153 453 b 154 486 151 464 153 475 b 168 561 156 511 161 536 b 222 701 181 610 199 657 b 264 771 235 725 249 749 b 286 801 271 781 278 792 b 294 810 289 804 292 807 b 294 810 294 810 294 810 b 294 810 294 810 294 810 b 282 781 289 801 285 792 b 272 728 278 764 275 746 b 260 703 268 719 264 711 b 207 563 238 660 219 613 b 194 488 200 535 196 510 b 194 475 194 483 194 479 z m 217 561 b 269 701 229 611 247 658 b 274 710 271 704 272 707 b 264 644 271 688 268 665 b 219 515 254 600 242 556 b 203 489 214 506 208 497 b 215 563 204 511 208 535 z m 250 363 b 204 357 236 358 221 357 b 213 357 207 357 210 357 b 335 464 267 372 307 417 b 390 621 363 513 379 567 b 403 707 396 649 400 678 b 408 754 404 722 404 739 b 414 774 410 761 411 768 b 447 769 425 771 436 769 b 443 756 446 765 444 760 b 438 722 440 744 439 733 b 438 706 438 717 438 711 b 424 619 433 672 429 644 b 410 564 419 600 415 582 b 351 464 390 531 371 497 b 311 397 339 442 325 419 b 246 360 293 381 271 367 z m 840 976 b 825 967 839 972 833 969 l 824 967 l 822 965 b 611 589 756 838 682 711 b 515 422 579 535 547 478 b 478 356 503 400 490 378 b 464 338 472 350 468 344 b 418 249 446 310 431 279 b 194 -133 347 121 275 -11 b 140 -150 186 -147 164 -151 b 160 -137 149 -147 156 -143 b 482 419 278 40 376 233 b 790 963 585 600 693 779 b 807 986 803 967 813 974 b 788 1014 804 993 800 1003 b 751 1032 781 1021 767 1028 b 760 1032 754 1032 757 1032 b 826 1011 786 1032 815 1022 b 844 985 838 1001 842 992 l 844 983 b 844 974 846 979 846 976 z "},"&":{"ha":1056,"x_min":0,"x_max":0,"o":"m 946 367 b 869 371 924 375 893 378 b 803 342 840 374 811 365 b 446 44 746 189 604 68 b 310 64 401 43 356 49 b 206 165 257 82 217 121 b 238 274 196 203 207 240 b 493 342 301 344 399 343 b 572 343 521 342 547 342 b 633 383 588 344 635 347 b 567 433 632 413 593 431 b 286 572 456 447 344 474 b 357 849 228 669 276 789 b 475 892 392 874 435 890 b 535 857 497 886 518 875 b 396 593 619 765 469 636 b 411 533 367 576 392 544 b 472 519 429 524 451 518 b 550 528 499 513 528 515 b 739 811 626 572 764 689 b 464 986 714 933 557 983 b 396 981 440 986 418 985 b 129 840 292 975 190 926 b 132 526 61 744 60 621 b 260 419 167 481 211 446 b 128 375 214 413 169 400 b 38 121 39 322 -17 218 b 336 -37 93 19 228 -25 b 365 -40 346 -39 356 -40 b 375 -40 369 -40 372 -40 b 451 -44 401 -43 426 -44 b 744 31 557 -44 657 -19 b 983 317 853 92 938 193 b 946 367 990 336 976 356 z m 733 810 b 547 536 757 692 622 579 b 493 526 532 528 513 525 b 508 533 499 528 504 531 b 696 813 596 585 719 699 b 469 979 676 911 565 964 b 732 811 561 975 708 926 z m 243 572 b 315 856 186 669 229 792 b 442 900 350 882 397 900 b 351 858 410 893 378 878 b 278 571 268 797 218 672 b 563 429 338 469 450 443 b 621 386 582 426 619 411 b 567 354 621 367 604 357 b 554 354 563 354 558 354 b 586 386 571 358 586 367 b 524 433 585 414 546 431 b 240 574 415 447 300 474 z m 264 64 b 192 281 168 97 114 196 b 364 350 238 331 299 346 b 228 285 313 343 265 325 b 193 169 186 240 186 197 b 303 63 206 122 247 82 b 365 47 324 56 344 50 b 264 67 332 49 297 56 z m 972 324 b 739 42 928 203 844 103 b 492 -32 664 -1 581 -26 b 701 38 565 -22 636 0 b 939 321 813 100 894 203 b 890 369 947 343 922 361 b 942 363 907 371 925 368 b 975 322 963 356 982 340 z "},"'":{"ha":311,"x_min":0,"x_max":0,"o":"m 186 889 b 53 867 142 886 90 892 b 56 828 35 854 42 839 b 115 801 74 814 94 806 b 103 764 113 789 108 776 b 50 682 88 735 67 710 b 153 633 25 638 129 626 b 271 831 232 656 271 754 b 186 892 271 871 222 894 z "},"(":{"ha":525,"x_min":0,"x_max":0,"o":"m 454 961 b 410 1006 447 981 432 996 b 319 1013 382 1018 347 1018 b 254 999 296 1013 272 1007 b 147 886 210 978 172 928 b 57 596 94 799 72 696 b 35 231 39 475 28 353 b 63 44 39 168 47 106 b 167 -83 78 -15 94 -75 b 188 -83 172 -83 179 -83 b 206 -87 193 -85 199 -86 b 215 -87 208 -87 211 -87 b 289 -60 238 -87 276 -81 b 283 -24 294 -50 293 -37 b 251 74 264 3 257 40 b 247 90 250 79 249 85 b 231 232 239 135 233 182 b 247 528 226 317 232 408 b 299 767 257 607 269 690 b 353 867 313 803 331 836 b 390 908 365 883 378 897 b 422 926 401 918 411 922 b 442 936 428 929 435 932 b 456 963 453 942 458 953 z m 440 943 b 422 935 433 940 428 938 b 388 915 410 931 400 926 b 349 872 374 903 361 889 b 292 768 325 840 306 806 b 240 528 263 692 250 607 b 224 229 225 407 219 315 b 240 85 226 179 232 131 b 244 68 242 79 243 74 b 276 -33 250 33 257 -6 b 282 -61 285 -44 286 -54 b 211 -83 272 -78 232 -85 b 243 -32 239 -76 264 -61 b 208 85 221 0 215 47 b 190 228 199 132 193 179 b 206 525 185 326 193 426 b 258 765 217 606 229 689 b 315 867 272 801 292 836 b 353 908 326 882 339 896 b 406 936 371 925 383 925 b 415 957 414 940 418 949 b 356 1006 407 983 383 999 b 411 996 375 1006 394 1003 b 449 956 431 988 443 974 b 442 940 451 949 447 943 z "},")":{"ha":569,"x_min":0,"x_max":0,"o":"m 342 1035 b 263 1043 322 1044 288 1051 b 258 1043 261 1043 260 1043 b 224 1042 246 1044 233 1044 b 207 1010 208 1038 193 1025 b 338 754 275 935 318 854 b 342 457 357 656 357 556 b 253 179 326 361 297 267 b 176 56 231 136 206 94 b 128 -6 161 35 144 14 b 76 -65 111 -25 89 -43 b 165 -131 50 -110 122 -132 b 201 -135 178 -133 190 -135 b 229 -131 213 -135 222 -133 b 342 -19 274 -111 311 -60 b 350 -7 344 -15 347 -11 b 433 128 382 35 410 81 b 532 442 485 229 518 335 b 340 1038 563 665 528 939 z m 524 443 b 425 129 510 336 476 231 b 343 -6 401 82 374 36 b 335 -18 340 -10 338 -14 b 226 -128 306 -58 269 -108 b 189 -132 218 -132 204 -133 b 307 -8 238 -110 276 -50 b 390 128 339 35 367 81 b 490 442 440 226 475 333 b 301 1033 517 635 497 929 b 281 1040 296 1036 289 1039 b 289 1040 283 1040 286 1040 b 339 1029 306 1040 325 1036 b 525 442 522 932 556 663 z "},"*":{"ha":625,"x_min":0,"x_max":0,"o":"m 596 668 b 496 688 569 692 526 696 b 456 683 482 689 468 688 b 410 668 440 678 425 674 b 410 697 410 678 410 688 b 410 725 410 707 410 717 b 410 742 410 731 410 736 b 410 832 411 771 413 801 l 410 836 l 342 833 l 272 850 l 271 846 b 271 838 271 843 271 840 b 238 846 260 840 249 843 b 228 735 231 810 231 772 b 225 654 226 708 222 681 b 179 671 210 660 194 665 b 132 690 164 678 149 685 b 67 690 119 694 89 696 b 21 649 31 692 -19 681 b 167 578 63 615 117 593 b 208 567 181 574 194 569 b 208 567 208 567 208 567 b 156 503 192 544 174 524 b 119 433 140 485 107 460 b 201 400 132 407 174 399 b 235 396 213 397 224 396 b 249 396 240 396 244 396 b 326 447 283 400 307 426 b 347 472 333 456 340 464 b 364 453 353 465 358 458 b 446 410 388 426 410 415 b 471 408 450 410 460 408 b 486 404 475 407 481 406 b 554 415 486 404 539 397 b 557 436 557 419 560 426 b 513 503 547 463 531 482 b 496 524 507 510 501 517 b 474 553 488 533 481 543 b 461 569 469 558 465 564 b 564 596 496 576 531 586 b 589 604 572 599 581 601 b 615 629 603 608 613 617 b 600 669 618 643 613 658 z m 283 840 l 326 829 b 306 829 319 829 313 829 b 281 833 297 831 289 832 b 281 838 281 835 281 836 z m 207 639 b 92 682 167 650 131 668 b 100 682 94 682 97 682 b 126 679 111 682 121 681 b 172 661 142 674 157 667 b 221 642 188 654 204 647 b 221 633 221 639 221 636 b 204 638 215 635 210 636 z m 317 447 b 244 397 299 426 276 401 b 221 397 238 396 229 396 b 279 444 244 406 263 425 b 319 496 293 461 307 478 b 324 492 321 494 322 493 b 336 475 328 486 332 481 b 315 449 329 465 322 457 z m 400 739 b 400 722 400 733 400 728 b 400 694 400 714 400 704 b 400 665 400 685 400 675 b 363 653 388 661 375 657 b 364 722 364 676 363 700 b 365 822 365 756 368 789 l 400 824 b 400 738 403 794 401 765 z m 600 628 b 579 608 597 618 590 611 b 554 600 571 606 563 603 b 446 572 518 590 482 579 l 439 571 l 443 565 b 460 544 449 558 454 551 b 485 515 468 535 476 525 b 501 494 490 508 496 501 b 546 429 519 474 536 454 b 544 417 547 424 547 419 b 497 406 538 407 514 406 b 511 429 508 410 515 417 b 450 515 499 464 474 486 b 410 567 436 532 424 550 b 546 603 456 576 501 590 b 556 660 576 611 576 642 b 521 678 546 668 533 674 b 592 657 546 679 574 674 b 603 625 601 649 606 636 z "},"+":{"ha":913,"x_min":0,"x_max":0,"o":"m 797 469 b 560 490 719 492 638 492 l 560 490 b 551 735 561 571 563 654 b 461 783 547 764 501 783 b 432 779 450 783 440 782 b 368 749 400 782 371 774 b 361 486 357 663 360 574 b 144 475 294 485 219 482 b 133 474 142 475 138 475 b 104 471 124 472 114 472 b 68 431 82 469 57 454 b 144 394 81 404 119 397 b 165 394 151 394 158 394 b 182 392 171 393 176 392 b 360 382 243 386 304 383 b 367 74 358 279 354 175 b 453 29 369 44 415 28 b 483 25 463 26 474 25 b 488 25 485 25 486 25 b 547 54 519 25 542 36 l 549 54 l 549 58 b 556 315 558 143 557 231 b 556 374 556 335 556 354 b 813 393 632 372 725 371 b 839 418 835 399 839 410 b 793 467 839 438 814 461 z m 540 61 l 540 61 l 540 57 b 486 29 538 36 510 29 b 478 29 483 29 481 29 b 503 54 492 33 501 42 b 503 54 503 54 503 54 b 510 376 514 161 510 269 b 543 376 521 376 532 376 b 543 314 543 356 543 335 b 538 61 544 231 546 144 z m 544 488 l 544 483 b 511 483 533 483 522 483 b 503 732 513 567 514 651 b 450 774 500 751 476 767 b 457 774 453 774 456 774 b 457 774 457 774 457 774 b 538 732 493 774 535 757 b 546 489 549 653 547 569 z m 808 401 b 706 386 775 393 740 389 b 771 399 728 389 750 393 b 751 465 821 411 781 457 b 676 479 726 472 701 476 b 788 460 714 476 751 471 b 828 418 806 454 828 433 b 807 401 828 410 821 404 z "},",":{"ha":288,"x_min":0,"x_max":0,"o":"m 261 29 b 192 54 244 46 217 56 b 163 53 182 53 172 53 b 106 50 143 53 124 53 b 21 28 75 49 44 44 b 24 -11 3 15 10 0 b 83 -37 42 -25 63 -33 b 71 -75 81 -50 76 -62 b 18 -157 56 -104 35 -129 b 103 -208 -3 -194 67 -208 b 142 -212 117 -211 131 -212 b 161 -211 150 -212 157 -212 b 283 -10 240 -189 283 -90 b 264 31 283 6 276 19 z m 160 -204 b 131 -204 154 -206 143 -206 b 242 -10 206 -178 242 -83 b 192 49 242 19 218 40 b 196 49 193 49 194 49 b 260 26 218 50 244 42 b 276 -10 271 17 276 4 b 161 -203 276 -87 236 -182 z "},"-":{"ha":632,"x_min":0,"x_max":0,"o":"m 604 42 b 393 72 544 83 464 78 b 338 69 374 71 356 69 b 250 68 308 68 279 68 b 86 63 196 67 140 65 b 72 60 81 63 76 61 b 47 60 64 60 56 60 b 15 18 24 58 0 42 b 88 -11 29 -3 61 -10 b 88 -11 88 -11 88 -11 b 100 -11 92 -11 96 -11 b 124 -14 108 -12 117 -14 l 126 -14 b 282 -19 178 -17 231 -18 b 367 -21 310 -19 339 -19 b 483 -25 406 -22 444 -24 l 489 -25 b 518 -25 499 -25 508 -25 b 606 -6 549 -25 576 -22 b 618 14 614 -1 618 6 b 601 42 618 24 611 35 z m 600 0 b 522 -18 574 -14 549 -18 b 564 -4 536 -15 550 -11 b 561 38 583 7 576 28 b 486 65 539 53 514 61 b 599 33 526 64 565 56 b 613 13 607 28 613 19 b 604 0 613 7 610 3 z "},".":{"ha":331,"x_min":0,"x_max":0,"o":"m 236 43 b 124 65 206 67 160 75 b 61 51 101 67 79 63 b 17 -24 35 35 24 6 b 118 -185 -3 -100 39 -169 b 151 -189 129 -187 140 -189 b 156 -189 153 -189 154 -189 b 185 -192 165 -190 175 -192 b 264 -168 214 -192 242 -183 b 311 -96 289 -151 306 -126 b 233 43 324 -29 279 19 z m 303 -93 b 258 -160 297 -121 282 -144 b 179 -181 236 -175 208 -182 b 267 -94 222 -171 258 -142 b 190 40 278 -33 240 15 b 146 61 178 50 163 57 b 153 61 149 61 150 61 b 228 36 179 61 207 53 l 229 36 b 303 -94 272 14 314 -32 z "},"/":{"ha":997,"x_min":0,"x_max":0,"o":"m 900 1154 b 821 1158 876 1163 842 1167 b 769 1143 797 1160 775 1156 b 615 778 711 1025 668 899 b 444 408 561 654 504 531 b 263 58 386 290 325 174 b 167 -115 231 0 199 -58 b 117 -203 150 -144 133 -174 b 74 -294 100 -232 79 -261 b 160 -353 65 -337 117 -354 b 194 -357 171 -356 183 -357 b 246 -344 215 -357 235 -353 b 294 -279 268 -329 282 -304 b 303 -261 297 -272 300 -267 b 353 -171 319 -232 336 -201 b 450 11 389 -106 421 -46 b 624 368 510 128 568 247 b 786 742 682 494 736 619 b 818 817 796 767 807 792 b 931 1124 860 917 903 1019 b 903 1156 933 1136 924 1147 z m 924 1126 b 811 819 896 1022 853 919 b 779 744 800 794 789 769 b 617 372 729 624 675 499 b 443 15 561 251 503 132 b 346 -167 414 -42 382 -101 b 296 -257 329 -197 313 -228 b 288 -276 293 -262 290 -269 b 242 -339 275 -300 263 -325 b 188 -350 231 -347 210 -351 b 204 -343 194 -349 200 -346 b 263 -260 232 -325 246 -289 b 313 -169 279 -231 296 -200 b 408 11 346 -110 378 -50 b 581 368 468 129 525 249 b 743 740 638 492 692 615 b 888 1122 794 865 853 992 b 847 1153 892 1136 872 1147 b 851 1153 849 1153 850 1153 b 899 1144 867 1153 885 1150 b 922 1122 915 1138 924 1129 z "},":":{"ha":342,"x_min":0,"x_max":0,"o":"m 101 401 b 158 393 119 396 139 393 b 196 389 171 390 183 389 b 310 458 246 389 293 410 b 275 558 322 494 310 531 b 263 572 272 564 268 568 l 261 574 b 200 601 242 586 225 597 b 140 603 179 606 158 606 b 132 600 138 603 135 601 b 103 599 122 600 113 600 b 28 538 68 593 40 569 b 103 399 3 476 44 418 z m 165 596 b 199 593 176 596 188 594 b 257 564 222 589 238 578 l 258 563 b 269 551 264 560 268 556 l 269 550 l 271 550 b 303 458 303 525 314 492 b 193 394 286 413 240 393 b 268 458 226 403 256 422 b 235 556 282 497 264 532 b 222 569 232 561 228 565 b 164 599 203 582 186 593 b 168 599 165 599 167 599 z m 272 43 b 160 65 242 67 196 75 b 97 51 138 67 115 63 b 53 -24 71 35 60 6 b 154 -185 33 -100 75 -169 b 188 -189 165 -187 176 -189 b 192 -189 189 -189 190 -189 b 221 -192 201 -190 211 -192 b 300 -168 250 -192 278 -183 b 347 -96 325 -151 342 -126 b 269 43 360 -29 315 19 z m 339 -93 b 294 -160 333 -121 318 -144 b 215 -181 272 -175 244 -182 b 303 -94 258 -171 294 -142 b 226 40 314 -33 276 15 b 182 61 214 50 199 57 b 189 61 185 61 186 61 b 264 36 215 61 243 53 l 265 36 b 339 -94 308 14 350 -32 z "},";":{"ha":346,"x_min":0,"x_max":0,"o":"m 158 393 b 196 389 171 390 183 389 b 310 458 246 389 293 410 b 275 558 322 494 310 531 b 263 572 272 564 268 568 l 261 574 b 200 601 242 586 225 597 b 140 603 179 606 158 606 b 132 600 138 603 135 601 b 103 599 122 600 113 600 b 28 538 68 593 40 569 b 103 399 3 476 44 418 b 160 390 121 393 140 390 z m 165 596 b 199 593 176 596 188 594 b 257 564 222 589 238 578 l 258 563 b 269 551 264 560 268 556 l 269 550 l 271 550 b 303 458 303 525 314 492 b 194 394 288 413 242 393 b 269 458 228 403 257 422 b 236 556 283 497 265 532 b 224 569 233 561 229 565 b 165 599 204 582 188 593 b 169 599 167 599 168 599 z m 317 29 b 247 54 300 46 272 56 b 218 53 238 53 228 53 b 161 50 199 53 179 53 b 76 28 131 49 100 44 b 79 -11 58 15 65 0 b 139 -37 97 -25 118 -33 b 126 -75 136 -50 132 -62 b 74 -157 111 -104 90 -129 b 158 -208 53 -194 122 -208 b 197 -212 172 -211 186 -212 b 217 -211 206 -212 213 -212 b 339 -10 296 -189 339 -90 b 319 31 339 6 332 19 z m 215 -204 b 186 -204 210 -206 199 -206 b 297 -10 261 -178 297 -83 b 247 49 297 19 274 40 b 251 49 249 49 250 49 b 315 26 274 50 300 42 b 332 -10 326 17 332 4 b 217 -203 332 -87 292 -182 z "},"<":{"ha":869,"x_min":0,"x_max":0,"o":"m 800 11 b 771 46 797 26 783 39 b 682 85 742 61 711 74 b 626 107 664 92 644 99 b 490 171 585 125 540 146 b 292 281 424 204 357 242 b 457 375 351 311 406 342 b 563 449 496 400 531 424 b 590 471 572 456 582 464 b 611 488 597 476 604 482 b 619 494 614 489 617 492 b 658 518 631 504 647 518 b 707 531 675 518 696 519 b 714 547 711 535 714 540 b 651 589 714 574 668 588 b 576 588 624 592 599 592 b 474 558 540 588 507 579 b 356 474 433 532 396 501 b 97 328 274 418 188 369 b 100 260 60 310 69 279 b 376 106 190 204 282 153 b 519 39 424 82 471 60 b 669 -22 568 18 618 -8 b 718 -29 683 -26 701 -31 b 751 -33 731 -32 742 -33 b 797 -17 771 -33 786 -28 b 806 11 804 -8 807 1 z m 790 -10 b 738 -22 779 -21 761 -25 b 753 -11 743 -19 749 -17 b 733 44 772 10 754 33 b 588 104 688 68 636 83 b 451 169 542 125 496 147 b 246 282 381 204 313 242 b 415 379 304 311 361 343 b 519 453 451 403 486 426 b 568 492 536 465 551 479 b 619 524 581 501 603 524 b 671 550 638 524 671 526 b 622 586 671 569 642 582 b 651 585 632 586 642 586 b 706 551 667 583 706 571 b 701 539 706 546 704 542 b 658 528 694 532 679 528 b 614 503 644 528 628 514 b 606 496 611 500 608 497 b 585 479 599 490 592 485 b 557 458 576 472 567 465 b 453 385 525 433 490 410 b 283 286 400 350 344 318 l 276 283 l 282 279 b 489 167 350 239 419 201 b 625 103 539 142 583 121 b 681 81 643 94 663 88 b 768 42 710 69 740 57 b 793 13 782 35 792 24 b 786 -7 794 6 792 -1 z "},"=":{"ha":719,"x_min":0,"x_max":0,"o":"m 99 550 b 111 550 103 550 107 550 b 138 546 121 547 131 546 b 406 539 221 543 308 540 b 538 538 449 538 490 538 b 542 538 539 538 540 538 b 675 560 588 538 628 544 b 700 582 692 565 700 572 b 657 625 700 600 675 618 b 507 650 601 646 557 650 b 376 649 471 650 424 650 b 114 642 285 647 199 644 b 89 638 108 642 99 640 b 76 638 85 638 81 638 b 19 596 53 636 13 628 b 100 553 25 565 75 554 z m 657 618 b 696 585 675 611 696 596 b 678 569 696 576 686 572 b 569 549 639 557 606 550 b 639 565 593 553 615 558 b 619 622 686 581 646 613 b 547 642 594 632 571 638 b 657 618 588 639 621 632 z m 660 335 b 510 360 604 356 560 360 b 379 358 474 360 426 360 b 117 351 288 357 201 354 b 92 347 111 351 101 350 b 79 347 88 347 83 347 b 22 306 56 346 15 338 b 103 263 28 275 78 264 b 115 263 107 263 111 263 b 142 258 125 260 135 258 b 410 251 225 256 313 253 b 542 250 453 250 494 250 b 546 250 543 250 544 250 b 679 272 592 250 632 257 b 704 294 696 278 704 285 b 661 338 704 313 679 331 z m 678 281 b 569 260 639 268 606 261 b 639 276 593 264 615 269 b 619 333 686 292 646 324 b 547 353 594 343 571 349 b 657 329 588 350 621 343 b 696 296 675 322 696 307 b 678 281 696 288 686 283 z "},">":{"ha":897,"x_min":0,"x_max":0,"o":"m 828 324 b 779 367 822 344 793 363 b 265 574 583 433 415 501 b 179 583 246 583 208 594 b 129 572 161 585 143 582 b 144 518 104 554 122 529 b 608 315 297 446 451 376 b 538 282 586 301 561 292 b 375 215 483 260 429 238 b 221 153 324 194 272 174 b 76 74 176 135 101 119 b 135 8 56 36 108 15 b 168 7 146 6 157 6 b 172 7 169 7 171 7 b 197 4 181 6 189 4 b 317 44 238 4 279 25 b 353 63 329 51 342 57 l 528 140 b 592 165 549 149 569 157 b 822 303 676 200 764 235 b 829 326 829 310 832 318 z m 817 307 b 590 172 760 240 674 206 b 526 147 568 164 547 156 l 351 69 b 315 51 340 64 328 58 b 192 13 276 32 232 10 b 314 65 235 22 278 49 b 489 144 372 92 431 118 b 781 307 588 188 708 222 b 740 369 803 333 760 363 b 225 578 565 429 392 497 b 200 588 218 582 210 585 b 208 588 203 588 206 588 b 264 574 226 588 247 582 b 779 365 415 500 583 432 b 822 328 792 361 818 346 b 818 310 824 321 822 315 z "},"?":{"ha":993,"x_min":0,"x_max":0,"o":"m 924 865 b 592 1164 908 1036 744 1144 b 446 1163 546 1169 496 1169 b 106 989 314 1154 172 1100 b 108 757 63 918 57 825 b 356 599 165 682 271 636 b 418 585 374 590 397 583 b 483 588 438 579 463 576 b 501 614 494 593 501 603 b 485 640 501 624 496 633 b 414 682 463 656 438 669 b 294 758 372 704 329 728 b 269 925 250 799 240 865 b 553 1071 317 1022 444 1075 b 574 1067 560 1069 567 1068 b 724 790 689 1036 767 904 b 439 551 679 669 539 615 b 282 403 378 513 319 465 b 236 150 243 336 204 225 b 307 107 249 122 279 110 b 325 107 311 107 318 107 b 346 104 332 106 339 104 b 357 104 349 104 353 104 b 408 118 374 104 396 107 b 417 139 414 124 417 131 b 483 379 422 233 431 311 b 644 504 525 433 586 469 b 669 521 653 510 661 515 b 918 868 801 600 933 704 z m 258 932 b 285 757 228 869 239 799 b 404 678 319 725 363 701 b 474 638 428 665 451 651 b 486 618 482 632 486 625 b 471 600 486 611 481 604 b 428 593 457 593 442 592 b 432 596 429 593 431 594 b 436 642 453 606 457 628 b 247 761 375 682 301 711 b 221 931 199 804 193 874 b 482 1079 264 1021 378 1075 b 257 933 389 1065 296 1014 z m 664 529 b 639 513 656 524 647 518 b 476 386 579 478 518 442 b 408 142 418 311 413 217 b 401 128 408 136 406 132 b 349 117 389 117 363 115 b 375 142 363 121 374 128 b 442 383 381 228 388 313 b 628 525 489 446 563 485 b 875 868 754 601 890 704 b 551 1161 860 1032 704 1140 b 585 1158 563 1161 574 1160 b 910 867 735 1139 894 1033 b 665 528 925 707 794 606 z m 357 49 b 303 46 338 51 319 50 b 229 22 276 47 249 40 b 228 -92 194 -10 193 -60 b 314 -119 250 -111 283 -121 b 347 -124 325 -122 336 -124 b 388 -115 361 -124 375 -121 b 426 -82 407 -108 421 -96 b 433 -71 429 -78 432 -75 b 439 -54 436 -65 438 -60 b 436 4 449 -35 447 -14 b 358 47 417 35 375 44 z m 432 -53 l 432 -54 b 426 -69 431 -60 429 -65 b 421 -78 425 -72 424 -75 l 421 -79 b 388 -110 417 -92 404 -103 b 343 -115 374 -115 358 -117 b 351 -111 346 -114 349 -112 b 388 -78 368 -104 382 -93 b 394 -68 390 -75 393 -72 b 400 -51 397 -62 399 -57 b 397 4 408 -35 410 -15 b 335 43 383 25 358 38 b 343 43 338 43 340 43 b 363 42 350 43 357 43 b 435 1 378 39 417 29 b 438 -51 447 -19 443 -39 z "},"@":{"ha":1018,"x_min":0,"x_max":0,"o":"m 999 422 b 836 675 989 518 929 610 b 515 751 742 740 628 765 b 233 647 415 747 317 711 b 38 407 153 585 72 504 b 89 78 -1 297 29 175 b 365 -151 151 -25 250 -112 b 489 -176 406 -165 447 -174 b 563 -182 514 -181 539 -182 b 803 -133 654 -182 739 -158 b 826 -108 817 -128 825 -119 b 811 -78 828 -99 822 -87 b 715 -61 786 -56 743 -53 b 715 -61 715 -61 715 -61 b 678 -64 701 -60 689 -61 b 575 -87 644 -74 610 -82 b 479 -79 543 -89 511 -87 b 307 42 403 -60 343 -3 b 208 260 249 113 215 186 b 286 479 201 336 228 410 b 596 657 347 550 463 660 b 604 657 599 657 601 657 b 817 351 735 628 853 489 b 665 178 796 275 733 214 b 617 157 650 169 633 163 b 617 161 617 158 617 160 b 643 283 594 199 632 264 b 651 293 646 286 649 289 b 644 332 660 307 657 321 b 669 331 653 331 661 331 b 686 326 675 329 681 328 b 743 346 711 324 739 326 b 724 442 751 381 744 414 b 576 513 689 489 625 511 b 524 508 560 513 542 511 b 294 383 436 507 342 457 b 360 186 244 304 264 214 b 414 178 378 181 396 178 b 443 175 424 176 433 175 b 540 90 454 131 496 103 b 607 81 563 83 585 81 b 890 171 699 65 803 97 b 1007 425 975 242 1017 332 z m 768 -129 b 778 -81 794 -119 799 -99 b 746 -65 769 -74 758 -68 b 815 -85 769 -64 797 -69 b 828 -108 825 -93 829 -101 b 808 -128 826 -117 819 -124 b 604 -175 753 -150 682 -171 b 771 -132 661 -168 718 -153 z m 290 482 b 211 258 231 411 204 336 b 310 36 218 183 251 108 b 488 -89 347 -10 408 -68 b 513 -93 496 -90 504 -92 b 450 -83 492 -92 471 -89 b 275 40 379 -65 319 -15 b 178 258 224 103 185 176 b 257 481 169 343 203 417 b 558 660 331 567 440 657 b 292 481 443 639 346 544 z m 583 500 b 726 433 631 499 693 478 b 743 346 746 407 751 378 b 696 333 740 333 718 331 b 707 346 701 336 706 340 b 576 501 728 429 651 486 b 585 501 579 501 582 501 z m 447 290 b 447 278 447 286 447 282 b 414 258 444 275 428 265 b 414 292 411 269 413 281 b 440 349 418 313 428 332 b 546 425 465 383 504 411 b 569 431 553 428 561 431 b 575 425 568 431 571 428 b 478 350 536 410 501 383 b 453 292 464 331 456 311 z m 497 335 b 489 322 494 331 492 326 b 458 285 481 308 471 296 b 458 289 458 286 458 288 b 483 346 461 308 469 326 b 579 419 507 379 542 406 b 594 367 590 404 594 385 b 601 354 594 363 597 358 b 551 351 583 357 565 357 b 496 335 528 353 506 349 z m 615 151 b 586 156 596 147 593 144 b 613 283 565 190 592 249 b 619 292 615 286 618 289 b 574 346 635 317 607 338 b 618 342 588 347 604 346 b 635 335 624 339 629 336 b 643 331 638 333 640 332 b 657 296 654 324 667 311 b 650 288 656 293 653 290 b 624 156 635 261 600 196 b 624 156 624 156 624 156 b 615 156 621 156 618 156 z m 896 176 b 674 83 828 118 749 86 b 858 172 742 94 807 128 b 972 425 933 236 983 325 b 811 675 961 528 894 617 b 628 751 754 715 692 740 b 850 674 707 746 783 719 b 1010 426 942 610 1000 519 b 896 178 1019 336 979 247 z "},"A":{"ha":811,"x_min":0,"x_max":0,"o":"m 811 329 b 760 340 797 339 774 346 b 747 336 756 339 751 338 b 721 336 738 339 728 339 b 658 317 700 328 679 321 l 658 318 b 656 339 657 325 656 332 b 653 560 650 413 651 488 b 653 635 653 585 653 610 l 653 638 b 615 815 653 697 653 765 b 451 885 582 861 522 886 b 401 881 435 885 418 883 b 88 761 289 875 182 818 b 100 728 69 750 88 735 b 150 719 114 721 133 717 b 208 721 168 714 190 713 l 217 725 b 282 756 238 735 260 746 b 174 515 239 679 204 597 b 147 440 164 490 156 465 l 129 381 l 121 376 b 125 376 122 376 124 376 b 88 264 113 339 100 301 b 46 139 74 222 60 181 b 18 61 38 113 29 86 b -10 -1 8 40 -4 21 b 76 -60 -19 -43 33 -61 b 163 -51 108 -68 146 -64 b 214 38 190 -31 203 6 b 218 51 215 43 217 47 b 249 149 229 83 239 117 l 251 156 b 276 239 260 183 268 211 b 301 326 285 268 293 297 b 386 292 329 314 357 301 b 497 267 422 281 460 272 b 572 -58 508 157 529 42 b 642 -85 581 -78 614 -87 b 672 -89 651 -87 663 -89 b 699 -85 682 -89 690 -87 b 722 -46 718 -78 726 -64 b 703 29 717 -21 710 4 b 676 132 693 63 683 97 b 656 257 668 172 661 214 b 796 290 706 261 753 272 b 813 306 806 294 811 300 b 803 324 814 311 810 318 z m 208 729 l 200 725 b 161 722 189 719 175 719 b 161 722 161 722 161 722 b 289 781 201 742 244 764 b 281 764 286 775 283 769 b 207 728 256 753 231 740 z m 265 239 b 240 156 257 211 249 183 l 238 149 b 207 51 228 117 218 83 b 203 38 206 47 204 43 b 153 -47 192 7 179 -28 b 99 -58 142 -56 121 -60 b 115 -51 106 -57 111 -54 b 169 50 146 -29 157 15 b 204 154 182 85 193 119 b 261 342 224 217 242 279 b 290 329 271 338 281 333 b 264 242 281 300 272 271 z m 318 364 b 272 385 303 371 288 378 b 347 599 294 457 318 529 b 393 697 361 632 376 665 b 456 786 406 721 426 781 b 460 786 457 786 458 786 b 468 772 461 783 465 776 b 435 714 454 757 443 733 b 426 697 432 707 429 701 b 381 599 410 665 394 632 b 306 383 353 532 331 464 l 304 381 l 307 379 b 353 358 321 374 335 367 b 489 310 399 336 444 319 b 489 306 489 308 489 307 b 314 363 429 315 369 336 z m 488 319 b 488 319 488 319 488 319 b 356 365 444 329 400 344 b 313 385 339 374 325 379 b 388 596 338 464 360 531 b 433 694 401 629 417 663 b 442 711 436 699 439 704 b 472 765 450 728 460 750 b 483 599 492 715 485 651 b 488 319 481 506 479 413 z m 600 333 b 597 632 592 433 597 532 b 561 810 597 692 599 760 b 451 874 535 846 494 865 b 597 808 514 872 567 849 b 633 635 633 760 633 693 l 633 632 b 633 557 633 607 633 582 b 636 335 632 485 631 410 b 639 314 636 328 638 321 l 639 311 b 606 306 628 308 617 307 b 601 335 604 315 603 325 z m 790 299 b 650 267 747 281 700 269 l 646 267 l 646 263 b 667 132 651 218 658 174 b 693 29 674 97 683 63 b 713 -46 700 4 707 -21 b 693 -76 717 -64 704 -72 b 658 -79 683 -79 671 -81 b 676 -46 672 -74 681 -62 b 631 133 663 14 643 72 b 610 263 622 176 615 219 b 753 294 658 265 707 275 b 746 328 775 304 764 319 b 750 328 747 328 749 328 b 793 318 761 332 782 326 b 801 307 799 314 801 310 b 792 299 801 304 797 301 z "},"B":{"ha":763,"x_min":0,"x_max":0,"o":"m 600 494 b 733 681 661 526 731 583 b 686 803 735 729 718 772 b 538 851 650 838 596 856 b 508 849 528 851 518 850 b 500 849 506 849 503 849 b 294 754 422 844 351 807 b 306 808 299 772 303 790 b 297 856 308 826 311 840 b 267 871 289 865 278 868 b 247 878 260 872 253 874 b 199 889 229 890 213 894 b 190 885 196 888 193 886 b 113 799 139 906 121 828 b 100 749 108 782 104 765 b 81 663 93 721 86 692 b 50 474 67 600 57 538 b 43 93 36 351 19 214 b 89 54 46 76 65 63 b 53 36 72 54 58 49 b 124 -121 28 -26 72 -89 b 269 -162 167 -147 218 -160 b 326 -167 288 -165 307 -167 b 365 -165 339 -167 351 -167 b 688 49 501 -153 622 -72 b 696 432 750 163 779 331 b 608 494 672 461 643 482 z m 575 767 b 569 617 606 725 596 658 b 446 532 542 572 494 549 b 285 478 392 513 338 496 b 369 639 311 543 339 594 b 490 754 406 690 446 729 b 558 782 511 767 536 778 b 574 769 564 779 569 775 z m 350 422 b 467 447 388 435 429 447 b 389 425 442 443 415 435 b 235 363 326 403 279 383 l 233 361 l 226 340 l 226 339 b 224 301 225 326 224 314 b 222 208 222 271 222 239 b 218 82 222 167 222 124 b 164 53 217 58 189 51 l 160 53 b 185 83 174 58 183 68 b 188 304 190 157 185 231 b 190 342 188 317 189 329 b 199 363 193 349 196 356 b 351 424 249 386 300 406 z m 151 53 l 163 47 b 186 21 176 40 185 31 b 228 -58 189 -14 203 -40 b 275 -78 242 -68 258 -74 b 150 19 214 -78 156 -53 b 124 49 149 32 138 42 b 150 50 133 49 142 49 z m 232 -51 b 194 21 210 -35 197 -11 b 179 46 194 31 189 39 b 228 82 208 47 226 61 b 232 208 232 124 232 167 b 233 301 232 239 232 271 b 236 339 233 314 235 326 l 242 356 b 393 414 285 375 332 393 b 506 440 432 428 471 439 b 578 368 536 432 563 411 b 546 101 607 283 585 179 b 346 -69 504 21 435 -44 b 321 -75 338 -72 329 -74 b 233 -53 289 -75 257 -69 z m 488 760 b 365 642 443 733 401 694 b 278 471 333 594 306 540 b 236 454 264 465 250 460 b 329 636 261 518 290 581 b 450 751 361 682 401 724 b 544 782 474 765 514 786 b 486 757 528 778 508 769 z m 206 879 b 246 869 217 883 231 881 b 269 861 253 864 261 863 b 296 847 279 858 289 856 b 303 807 307 835 306 824 b 289 749 300 788 294 768 b 285 740 288 746 286 743 b 243 694 269 726 256 711 b 235 686 240 692 238 689 b 239 707 236 693 238 700 b 263 807 246 740 257 774 b 256 853 265 825 268 838 b 206 875 242 868 221 864 b 197 879 203 876 200 878 b 201 879 199 879 200 879 z m 676 49 b 360 -160 611 -69 493 -147 b 342 -160 353 -160 347 -160 b 640 49 468 -142 579 -64 b 647 429 699 156 732 326 b 553 494 621 461 589 482 b 690 681 628 531 689 590 b 556 844 693 771 635 829 b 681 797 606 843 650 826 b 725 681 711 768 726 728 b 588 499 722 583 649 528 l 579 494 l 589 492 b 683 429 626 479 658 458 b 676 54 765 331 738 165 z "},"C":{"ha":642,"x_min":0,"x_max":0,"o":"m 553 825 b 361 871 500 867 429 883 b 288 858 336 871 311 867 b 124 726 218 835 167 783 b 18 299 32 604 0 449 b 192 -22 32 183 76 31 b 279 -40 221 -35 250 -40 b 321 -44 293 -43 307 -44 b 481 17 376 -44 433 -24 b 560 254 553 78 583 169 b 478 290 553 281 508 296 b 465 286 474 289 469 288 b 410 254 436 290 407 282 b 379 101 415 200 413 147 b 313 53 363 79 339 61 b 293 57 304 54 297 56 b 190 261 228 92 203 190 b 214 563 171 367 179 474 b 406 776 250 656 319 761 b 410 776 407 776 408 776 b 471 696 442 765 464 735 b 467 589 478 661 475 624 b 401 510 460 561 436 510 b 361 483 386 510 357 506 b 418 453 365 461 401 454 b 435 453 424 453 429 453 b 457 449 444 450 453 449 b 622 588 553 442 606 515 b 553 828 646 683 619 775 z m 551 253 b 475 24 574 171 544 83 b 324 -36 431 -15 376 -36 b 515 253 450 -12 553 117 b 479 283 511 267 496 278 b 550 253 507 288 544 275 z m 204 567 b 181 261 169 476 161 368 b 286 50 193 188 218 86 b 290 50 288 50 289 50 b 249 56 274 49 256 51 b 143 261 181 90 156 193 b 168 564 125 361 131 468 b 361 779 199 643 268 763 b 388 779 371 781 379 781 b 203 565 304 757 238 656 z m 613 589 b 460 456 596 522 547 453 b 575 589 519 471 560 525 b 507 824 596 674 578 768 b 407 869 478 847 443 863 b 544 821 457 868 506 851 b 613 590 608 771 635 682 z "},"D":{"ha":842,"x_min":0,"x_max":0,"o":"m 406 853 b 350 849 386 853 368 851 b 118 760 267 843 182 817 b 36 546 64 711 4 621 b 110 519 44 528 83 517 b 165 518 129 514 151 513 b 178 543 178 522 182 532 b 188 636 167 572 174 606 b 185 540 186 604 186 572 b 172 378 182 486 178 432 b 146 208 165 321 157 264 b 139 183 144 200 142 192 b 60 193 118 197 81 201 b 60 193 60 193 60 193 b 8 161 31 196 1 188 b 328 -64 46 24 190 -57 b 386 -68 347 -67 367 -68 b 415 -67 396 -68 406 -68 b 781 194 571 -54 711 46 b 786 625 844 332 847 493 b 408 854 718 771 574 858 z m 639 608 b 414 28 732 403 643 100 b 379 19 401 24 390 21 b 225 76 322 18 269 38 b 233 76 228 76 231 76 b 242 74 236 75 239 74 b 328 115 285 67 313 81 b 347 197 339 142 343 169 l 349 208 b 368 371 357 263 364 317 b 364 694 376 474 386 590 b 278 735 358 719 313 735 b 396 775 313 757 353 771 b 433 776 408 776 421 776 b 635 606 524 760 594 696 z m 282 114 b 304 207 294 143 299 175 b 324 369 313 261 319 315 b 321 693 332 474 342 590 b 271 726 318 708 296 721 b 357 692 306 728 353 713 b 360 369 378 589 368 472 b 340 207 356 315 349 261 l 339 196 b 319 117 335 169 331 142 b 250 79 307 88 285 75 b 283 114 264 85 275 96 z m 201 76 b 210 76 204 76 207 76 b 328 14 244 43 285 22 b 156 97 260 15 200 46 b 201 76 168 86 185 79 z m 357 779 b 378 781 364 781 371 781 b 264 735 336 774 297 758 l 258 731 b 226 731 247 732 236 732 b 358 781 265 758 311 775 z m 171 542 b 163 526 172 538 174 531 b 129 525 154 524 142 524 b 136 544 136 529 139 536 b 194 706 117 600 157 667 b 192 656 193 689 192 672 b 172 543 171 619 160 579 z m 90 190 b 142 176 110 190 131 185 b 138 136 139 163 136 149 b 143 119 139 131 140 125 b 113 169 132 135 122 151 b 82 189 108 178 96 185 b 90 189 85 189 88 189 z m 774 197 b 415 -60 706 51 568 -47 b 407 -60 413 -60 410 -60 b 742 196 554 -37 678 61 b 747 622 804 329 810 488 b 449 846 690 747 579 826 b 783 621 596 838 722 754 b 776 199 843 492 840 333 z "},"E":{"ha":725,"x_min":0,"x_max":0,"o":"m 493 281 b 432 272 472 281 451 278 b 438 226 399 261 413 239 b 499 203 458 217 478 211 b 514 197 503 201 513 199 b 529 125 535 181 535 149 b 417 7 517 71 463 31 b 329 -24 390 -7 360 -18 b 293 -19 317 -24 304 -22 b 235 90 240 -8 226 46 b 438 363 260 214 385 322 b 582 450 476 393 521 419 b 590 454 585 451 588 453 b 624 479 603 460 619 467 b 622 497 625 485 625 490 b 517 528 607 529 543 536 b 517 528 517 528 517 528 b 481 525 503 529 490 528 b 426 504 463 518 444 511 b 410 499 421 503 415 501 b 379 483 400 494 390 489 b 350 468 369 479 360 474 b 251 431 318 453 285 438 b 222 435 242 431 232 432 b 163 506 188 443 163 472 b 228 629 163 553 200 599 b 446 774 285 690 360 740 b 456 778 449 775 451 776 b 519 797 474 785 497 794 b 533 785 525 794 529 790 b 549 718 546 767 549 740 b 621 685 549 694 592 682 b 679 688 642 679 667 679 b 689 701 688 692 689 697 b 653 815 688 742 683 783 b 465 865 600 872 504 869 b 444 863 458 865 451 864 b 425 863 438 863 431 863 b 76 671 293 850 163 768 b 3 496 35 624 -7 561 b 121 369 13 435 65 390 b 193 356 144 361 168 357 b 181 343 189 351 185 347 b 43 35 107 268 13 147 b 278 -115 71 -68 178 -110 b 340 -119 299 -118 319 -119 b 389 -117 357 -119 374 -118 b 683 51 496 -104 628 -47 b 674 221 717 110 713 176 b 485 279 631 271 556 293 z m 610 494 b 611 482 613 490 613 486 b 582 460 608 472 593 465 b 574 456 579 458 576 457 b 428 367 513 425 468 397 b 224 89 375 325 249 215 b 286 -31 214 40 229 -18 b 249 -26 274 -31 261 -29 b 188 90 194 -14 178 40 b 392 365 210 199 307 300 b 536 453 436 400 485 428 b 575 494 553 461 586 471 b 533 521 568 508 551 517 b 611 493 561 522 600 514 z m 450 783 b 440 779 446 782 443 781 b 219 633 353 746 276 696 b 151 504 190 601 151 554 b 215 426 151 468 178 436 b 178 431 203 426 190 428 b 117 504 143 439 117 468 b 183 631 117 551 153 597 b 404 775 243 696 322 744 b 503 800 428 783 471 803 b 453 783 485 796 467 789 z m 679 701 b 674 693 679 699 678 696 b 635 689 665 688 650 686 b 643 701 640 692 643 696 b 608 813 642 742 638 782 b 511 860 583 839 549 853 b 644 811 554 858 610 849 b 678 701 672 781 676 740 z m 681 53 b 392 -112 626 -44 496 -100 b 367 -115 383 -114 375 -115 b 646 50 471 -100 593 -44 b 635 217 675 103 676 169 b 532 272 608 247 571 265 b 672 214 586 272 639 251 b 682 51 710 171 714 107 z "},"F":{"ha":861,"x_min":0,"x_max":0,"o":"m 599 886 b 526 882 574 888 550 886 b 146 764 390 876 276 785 b 104 765 132 764 118 764 b 51 763 82 768 64 767 b -12 735 26 764 -7 761 b 50 682 -18 706 28 685 b 79 679 60 681 69 679 b 88 678 82 678 85 678 b 232 678 139 672 186 672 b 219 578 226 644 224 610 b 204 361 211 506 207 433 b 201 149 201 290 201 219 b 203 28 201 108 201 68 b 203 -78 203 -6 193 -46 b 290 -122 213 -110 254 -125 b 299 -125 293 -124 296 -125 b 322 -128 307 -126 315 -128 b 382 -106 347 -128 369 -119 b 400 -12 403 -81 401 -44 b 400 3 400 -7 400 -1 b 400 74 400 26 400 50 b 400 115 400 88 400 101 b 399 264 399 160 399 207 b 656 271 482 269 568 272 b 699 286 669 271 689 275 b 703 307 703 292 704 299 b 639 342 697 333 657 342 b 400 336 561 343 481 342 b 408 539 401 403 404 471 b 418 632 410 569 414 601 b 428 742 422 668 426 706 l 435 744 b 500 772 456 754 478 764 b 618 797 542 789 581 797 b 639 793 625 796 632 794 b 676 744 664 786 672 771 b 671 656 681 725 686 671 b 753 582 629 617 703 578 b 825 592 776 576 808 575 b 836 797 876 640 874 742 b 597 890 788 869 683 885 z m 200 688 b 233 693 211 689 222 690 b 233 689 233 692 233 690 b 200 685 222 688 211 686 z m 379 -99 b 315 -118 367 -114 342 -121 b 343 -101 326 -115 336 -110 b 361 1 367 -75 361 -32 b 358 114 361 39 360 76 b 357 268 357 165 357 217 b 390 271 368 269 379 269 l 390 268 b 392 115 390 210 390 161 b 392 74 392 101 392 88 b 392 3 392 50 392 26 b 392 -12 392 -1 392 -7 b 375 -99 393 -43 394 -76 z m 692 306 b 689 292 693 300 692 296 b 653 279 682 283 665 279 b 636 279 647 279 642 279 b 656 306 649 283 658 292 b 619 333 653 321 636 329 b 633 333 624 333 629 333 b 690 306 651 333 686 325 z m 492 779 b 426 751 469 771 447 761 l 415 746 l 415 743 b 406 633 414 707 410 669 b 396 540 401 603 397 571 b 388 335 392 471 389 401 b 354 333 376 335 365 335 b 363 540 356 403 358 472 b 382 744 367 608 379 676 b 457 776 407 756 432 767 b 567 801 493 790 529 800 b 494 781 543 797 519 790 z m 818 597 b 769 588 807 588 788 585 b 781 594 774 589 778 592 b 792 793 829 640 828 739 b 613 879 754 850 681 871 b 828 792 693 874 785 857 b 817 596 863 739 865 642 z "},"G":{"ha":721,"x_min":0,"x_max":0,"o":"m 417 882 b 381 879 404 882 392 881 b 151 769 296 876 211 838 b 18 335 49 653 14 486 b 181 -32 21 203 54 36 b 289 -60 214 -50 251 -58 b 474 -24 351 -71 418 -58 b 478 -78 475 -42 476 -60 b 569 -124 479 -108 532 -125 b 603 -128 581 -126 592 -128 b 640 -119 618 -128 632 -125 b 651 -100 647 -115 651 -108 b 643 226 646 8 644 119 l 643 281 b 582 343 643 315 611 336 b 524 342 564 347 542 347 b 458 318 496 344 469 338 b 453 306 458 319 457 315 b 453 293 453 301 453 297 b 453 293 453 293 453 293 b 453 293 453 293 453 293 b 453 276 453 288 453 282 b 457 231 454 261 456 246 b 461 189 458 217 460 203 b 322 22 446 122 389 42 b 310 24 318 22 314 22 b 239 81 275 32 257 51 b 186 251 213 124 196 178 b 229 604 169 375 185 500 b 440 794 253 660 321 788 b 557 664 500 779 544 724 b 544 525 567 618 565 567 b 456 451 529 492 496 451 b 417 429 442 451 413 450 b 474 403 421 411 458 403 b 486 403 478 403 482 403 b 515 399 497 400 508 399 b 699 525 601 400 668 446 b 638 806 736 621 711 736 b 422 883 579 860 503 888 z m 346 -57 b 476 8 394 -49 440 -26 b 478 -17 478 0 478 -8 b 344 -58 438 -43 392 -57 z m 583 332 b 639 276 610 325 639 307 l 639 222 b 647 -104 640 115 642 4 b 639 -117 647 -110 644 -114 b 594 -122 629 -122 613 -124 b 610 -101 604 -118 610 -111 b 603 279 604 25 604 153 b 546 339 603 310 576 331 b 582 336 558 340 571 339 z m 222 611 b 178 254 176 506 161 379 b 233 79 188 179 206 124 b 301 19 251 50 269 29 b 268 21 290 18 279 18 b 194 81 232 29 213 50 b 140 253 163 132 149 193 b 185 606 125 369 138 497 b 399 797 222 693 293 792 b 407 797 401 797 404 797 b 218 607 301 774 240 658 z m 683 526 b 508 404 654 450 590 406 b 508 404 508 404 508 404 b 588 800 683 438 714 681 b 440 872 544 840 493 864 b 625 796 510 869 575 843 b 685 525 696 729 721 618 z "},"H":{"ha":664,"x_min":0,"x_max":0,"o":"m 586 343 b 586 347 586 344 586 346 b 586 356 586 350 586 353 b 639 789 585 507 603 653 b 606 829 643 806 631 821 b 549 828 586 835 564 835 b 494 808 525 831 500 825 b 428 369 444 668 428 518 b 429 294 428 344 428 319 b 399 285 419 290 410 288 b 386 281 394 283 390 282 b 319 282 364 279 342 281 b 286 282 308 282 297 282 b 278 282 283 282 281 282 b 275 421 278 324 276 372 b 253 654 272 515 265 588 l 250 667 b 158 842 238 735 224 806 b 76 850 135 854 100 858 b 76 850 76 850 76 850 b 40 846 64 851 51 850 b 24 808 26 840 7 824 b 56 715 47 786 50 744 b 72 615 63 682 68 649 b 83 394 81 542 83 468 b 83 253 83 347 83 300 b 17 186 53 239 28 218 b 86 156 10 168 56 151 b 90 -69 86 82 78 3 b 186 -121 96 -103 146 -124 b 219 -125 197 -124 208 -125 b 281 -83 254 -125 278 -110 b 282 93 288 -26 285 35 b 279 167 281 118 279 143 l 279 211 b 350 204 303 208 326 206 b 404 199 368 201 386 200 b 438 199 415 199 426 199 b 442 132 439 176 440 154 b 471 -99 449 56 453 -25 b 547 -137 478 -126 517 -142 b 576 -142 557 -140 567 -142 b 589 -142 581 -142 585 -142 b 629 -97 615 -137 631 -121 b 614 31 626 -54 619 -11 b 603 119 610 60 606 90 b 593 232 599 160 596 196 b 643 278 615 244 632 260 b 646 304 649 288 650 296 b 588 336 638 322 607 333 z m 154 831 b 242 661 217 796 229 728 l 244 649 b 267 417 257 582 264 511 b 269 275 268 367 269 317 l 269 274 b 244 274 261 274 253 274 b 232 274 240 274 236 274 b 229 415 232 321 231 368 b 207 647 228 493 222 571 b 114 832 193 717 182 794 b 93 840 108 835 101 838 b 153 828 114 842 138 836 z m 269 163 b 272 89 269 139 271 114 b 271 -85 275 31 278 -29 b 217 -121 268 -107 247 -121 b 204 -121 213 -121 208 -121 b 236 -86 221 -115 233 -104 b 236 163 247 -6 238 82 b 236 213 236 179 236 196 b 271 208 249 211 260 210 z m 638 279 b 588 235 626 263 610 247 l 585 233 l 585 231 b 594 117 588 194 590 157 b 606 28 597 88 601 57 b 621 -100 611 -14 618 -57 b 586 -136 622 -128 597 -135 b 563 -136 579 -137 571 -137 b 585 -101 576 -131 586 -119 b 558 115 581 -29 565 43 b 549 232 554 154 551 193 b 600 278 569 243 588 258 b 544 331 621 310 568 328 b 544 347 544 336 544 342 b 597 782 543 494 560 640 b 567 815 601 797 586 810 b 606 811 579 817 593 815 b 632 782 621 806 636 796 b 578 347 594 644 576 499 b 578 339 578 344 578 342 b 578 331 578 336 578 333 l 578 328 l 581 328 b 636 301 599 326 629 317 b 633 282 639 296 638 289 z "},"I":{"ha":256,"x_min":0,"x_max":0,"o":"m 200 701 b 168 796 193 733 186 769 b 67 828 142 833 93 832 b 58 826 64 828 61 828 b 26 824 47 826 36 825 b 29 792 -1 819 14 801 b 50 701 44 768 46 726 b 64 593 57 665 61 629 b 64 371 69 519 68 444 b 38 -61 56 228 29 82 b 114 -101 39 -90 81 -106 b 143 -106 124 -104 133 -106 b 143 -106 143 -106 143 -106 b 196 -69 174 -106 194 -92 b 199 -49 196 -62 197 -56 b 199 -32 200 -43 200 -37 b 203 35 200 -10 201 13 b 213 189 206 85 208 138 l 213 197 b 225 449 218 279 225 364 b 203 689 225 544 218 621 b 199 701 201 693 200 697 z m 203 196 l 203 188 b 193 32 199 136 196 83 b 189 -35 192 10 190 -12 l 189 -36 l 189 -37 b 189 -50 190 -42 190 -46 b 186 -71 188 -57 186 -64 b 140 -99 185 -92 161 -99 b 128 -99 136 -99 132 -99 b 150 -71 140 -93 149 -85 b 153 -50 150 -64 151 -57 b 153 -36 154 -44 154 -40 b 165 185 157 38 160 111 b 179 444 172 271 179 357 b 158 685 179 525 175 606 b 124 793 151 719 144 764 b 85 819 114 807 100 815 b 93 819 88 819 90 819 b 161 790 117 819 144 814 b 192 697 178 765 185 729 b 196 685 193 693 194 689 b 218 444 211 617 218 540 b 206 194 218 361 211 276 z "},"J":{"ha":668,"x_min":0,"x_max":0,"o":"m 597 829 b 588 838 594 832 592 835 b 508 857 565 856 531 860 b 483 853 500 856 492 854 b 471 853 479 853 475 853 b 303 811 414 847 358 825 b 131 779 246 797 189 786 b 96 731 104 776 79 757 b 179 699 111 707 151 697 b 228 696 196 694 214 693 b 269 704 242 699 256 701 b 446 739 328 714 388 724 b 447 347 451 608 451 478 b 369 379 432 369 392 379 b 317 375 353 379 335 378 b 24 200 197 368 75 314 b 104 -114 -26 89 3 -42 b 272 -172 153 -149 213 -169 b 322 -176 289 -175 306 -176 b 499 -112 388 -176 450 -156 b 625 253 603 -19 618 119 b 624 789 633 428 633 608 b 594 829 622 804 613 818 z m 338 -53 b 283 -83 321 -67 303 -78 b 254 -74 274 -82 264 -79 b 178 56 211 -50 182 -1 b 233 215 174 113 193 171 b 389 289 274 261 331 288 b 443 306 399 289 428 290 b 336 -53 439 182 435 33 z m 226 219 b 169 54 185 174 164 114 b 251 -82 175 -6 206 -57 b 267 -89 256 -85 261 -87 b 214 -79 250 -92 232 -89 b 135 53 165 -53 139 0 b 351 290 125 176 228 288 b 356 290 353 290 354 290 b 226 218 307 281 261 256 z m 265 710 b 224 701 251 707 238 704 b 203 700 218 700 211 700 b 443 750 281 713 365 725 b 443 742 443 747 443 744 b 265 707 385 726 324 717 z m 365 368 b 365 368 365 368 365 368 b 440 328 389 368 435 354 b 436 307 442 319 440 313 b 388 290 425 292 396 290 b 371 290 382 290 376 290 b 406 329 390 294 410 306 b 356 367 401 349 378 361 b 364 367 358 367 361 367 z m 613 246 b 488 -112 606 114 590 -22 b 324 -175 443 -153 385 -174 b 450 -117 369 -168 414 -149 b 576 244 554 -25 569 114 b 576 782 586 424 586 603 b 549 819 575 797 564 810 b 540 829 546 824 543 826 b 508 843 532 836 521 840 b 578 825 529 844 558 840 b 586 817 581 822 583 819 l 588 815 b 613 781 599 808 611 797 b 614 244 622 600 622 419 z "},"K":{"ha":707,"x_min":0,"x_max":0,"o":"m 654 833 b 571 843 625 849 597 850 b 410 761 511 847 456 799 b 263 617 356 718 307 669 b 206 842 260 693 253 779 b 121 875 188 867 149 876 b 99 871 115 875 107 874 b 82 871 93 871 88 871 b 33 833 64 869 24 860 b 51 401 85 696 67 544 b 33 188 44 331 36 260 b 49 -40 31 115 25 29 b 138 -96 61 -78 99 -97 b 142 -96 139 -96 140 -96 b 172 -100 151 -99 161 -100 b 176 -100 174 -100 175 -100 b 239 -74 197 -100 225 -92 b 247 -36 247 -62 250 -50 b 244 -28 247 -33 246 -31 l 247 -31 l 244 -7 b 242 17 244 0 243 8 b 239 29 240 21 239 25 b 235 140 235 65 233 103 b 246 304 236 194 240 250 b 344 128 288 250 317 185 b 546 -72 388 39 440 -76 b 622 -71 568 -78 593 -78 b 644 -47 642 -65 644 -54 b 608 -4 644 -29 625 -10 b 529 85 571 7 547 50 b 521 97 526 89 524 93 b 489 157 510 117 499 138 b 443 242 475 185 460 214 b 294 394 403 311 354 361 b 308 419 303 401 307 410 b 361 510 311 449 339 482 b 376 529 367 517 372 524 b 469 636 403 565 435 601 b 553 711 496 663 524 688 b 544 686 550 703 547 694 b 615 649 538 661 583 646 b 685 660 642 640 675 643 b 707 778 708 699 717 742 b 650 846 699 807 679 831 z m 115 876 b 124 876 118 876 121 876 b 194 847 149 876 179 868 b 250 625 240 786 247 700 b 250 619 250 624 250 621 b 215 575 238 606 226 590 b 215 625 215 592 215 608 b 160 850 213 700 206 788 b 117 876 150 864 133 872 b 117 876 117 876 117 876 z m 224 146 b 228 35 222 108 224 71 b 231 22 228 31 229 26 b 233 0 232 15 233 7 l 233 0 l 233 -4 l 211 14 l 226 -8 b 236 -31 231 -15 235 -24 b 229 -60 239 -42 236 -51 b 174 -85 217 -76 192 -85 b 161 -85 169 -85 165 -85 b 203 -29 186 -76 208 -58 b 192 -7 201 -22 197 -14 b 200 -15 194 -10 197 -12 b 200 -3 200 -11 200 -7 b 194 33 200 8 196 22 b 190 146 190 71 189 108 b 206 351 192 215 199 283 b 238 317 217 340 228 329 b 225 144 232 260 226 201 z m 464 642 b 371 535 429 607 397 571 b 356 515 367 529 361 522 b 301 422 333 488 306 453 b 286 399 300 413 294 404 l 281 394 l 286 392 b 439 239 347 358 397 308 b 485 154 456 211 471 182 b 517 94 494 135 506 114 b 525 82 519 90 522 86 b 608 -11 544 46 568 1 b 639 -46 622 -15 639 -32 b 622 -61 639 -53 633 -58 b 576 -67 606 -65 590 -67 b 585 -67 579 -67 582 -67 b 569 -8 624 -56 594 -15 b 482 93 526 4 503 57 b 404 238 456 140 432 190 b 251 392 365 304 317 357 b 269 418 261 397 268 406 b 338 529 274 456 315 500 b 431 635 365 567 397 601 b 538 726 464 668 500 699 b 563 743 546 732 554 738 b 563 721 563 732 563 721 b 563 717 563 719 563 718 b 471 635 531 692 500 664 z m 688 657 b 642 647 682 647 661 644 b 653 657 646 650 650 653 b 621 836 690 718 692 799 b 600 843 614 839 607 842 b 657 832 618 844 638 842 b 708 771 683 818 701 797 b 688 660 718 738 710 697 z "},"L":{"ha":643,"x_min":0,"x_max":0,"o":"m 568 71 b 540 67 558 71 549 69 b 472 32 510 69 479 60 b 460 17 471 25 467 19 b 428 24 447 18 436 21 b 372 51 408 32 390 42 b 332 72 360 58 346 65 b 343 186 335 110 339 149 b 363 436 351 268 360 353 b 299 783 365 533 363 675 b 204 856 276 822 240 850 b 164 851 190 857 176 856 b 93 826 140 854 115 847 b 56 619 38 775 44 686 b 61 547 60 596 65 571 b 58 539 61 544 60 542 b 42 533 53 538 47 536 b 17 525 32 533 24 531 b 8 503 7 518 6 510 b 8 503 8 503 8 503 b 8 503 8 503 8 503 b 11 499 8 501 10 500 b 103 451 29 465 67 447 b 176 457 126 444 153 446 b 206 482 189 464 199 472 b 206 449 206 471 206 460 b 186 101 203 333 182 217 b 153 99 175 101 164 100 b 18 38 100 97 47 81 b 103 -8 1 13 63 -11 b 175 0 132 -15 164 -15 b 196 21 181 8 188 17 b 239 -8 211 13 226 0 b 381 -81 283 -39 328 -68 b 439 -87 400 -85 419 -87 b 485 -92 454 -90 469 -92 b 571 -78 514 -92 543 -87 b 654 19 594 -69 671 -39 b 565 71 646 51 601 71 z m 197 849 b 288 779 231 843 265 817 b 350 436 350 672 353 532 b 331 186 347 353 339 268 b 319 71 326 149 322 110 l 319 68 l 322 67 b 364 44 336 60 350 51 b 419 17 382 35 400 25 b 436 13 424 15 429 14 b 381 22 417 11 393 17 b 283 71 347 36 317 56 b 313 438 293 193 308 315 b 249 783 317 551 308 682 b 172 849 231 814 203 839 b 194 849 179 850 186 850 z m 182 771 b 182 771 182 771 182 771 b 182 771 182 771 182 771 b 181 769 186 772 183 771 z m 64 544 b 64 544 67 546 68 546 z m 47 535 b 47 535 47 535 47 535 b 47 535 47 535 47 535 b 47 535 47 535 47 535 z m 163 464 b 111 454 146 456 128 453 b 124 460 115 456 119 457 b 168 569 165 481 171 528 b 156 718 165 618 147 669 b 181 626 168 688 175 651 b 194 497 189 583 193 540 b 161 464 188 482 176 471 z m 160 4 b 114 -6 153 -6 135 -8 b 124 1 118 -4 121 -1 b 168 28 135 17 149 32 b 181 24 172 26 176 25 b 163 4 174 18 168 11 z m 565 -72 b 488 -86 540 -81 514 -85 b 525 -76 500 -83 513 -81 b 606 17 564 -62 619 -32 b 550 60 600 38 576 53 b 558 60 553 60 556 60 b 640 15 592 60 632 43 b 561 -74 654 -37 583 -67 z "},"M":{"ha":1010,"x_min":0,"x_max":0,"o":"m 947 863 b 849 882 914 888 881 890 b 721 835 804 885 760 860 b 582 717 669 801 622 764 b 574 708 579 714 576 711 b 564 736 571 718 568 728 b 458 825 544 782 507 814 b 394 825 436 831 415 831 b 286 778 353 828 317 810 b 232 704 265 757 247 732 b 232 708 232 706 232 707 b 164 797 219 740 200 779 b 75 807 143 808 104 818 b 22 794 56 808 36 806 b 11 771 14 788 8 782 b 11 767 11 769 11 768 b 32 743 13 757 21 749 b 63 604 54 703 60 647 b 64 415 67 542 65 478 b 75 28 60 286 53 156 b 172 -28 82 -11 131 -31 b 224 -31 189 -32 207 -33 b 278 33 263 -25 283 0 b 269 101 275 54 272 76 b 292 436 268 208 271 324 b 346 621 304 504 322 567 b 394 711 361 656 376 685 b 415 740 401 722 408 732 b 424 576 436 694 426 621 b 406 360 418 504 411 432 b 392 143 400 288 394 215 b 390 39 390 108 390 74 b 418 -51 390 4 386 -29 b 474 -64 432 -61 454 -67 b 501 -68 482 -67 492 -68 b 532 -60 513 -68 524 -65 l 546 -50 b 560 -17 556 -44 563 -28 l 558 -12 b 554 -4 557 -10 556 -7 b 553 13 556 0 554 7 b 553 19 553 15 553 18 b 553 65 553 35 553 50 b 556 175 553 97 554 132 b 567 328 558 231 563 283 b 572 338 569 331 571 333 b 701 628 597 424 635 535 b 792 731 729 667 760 701 b 796 735 793 732 794 733 b 785 656 793 708 789 682 b 756 443 775 585 765 514 b 733 231 746 372 738 301 b 735 17 729 161 724 85 b 829 -37 742 -21 789 -40 b 861 -42 839 -40 850 -42 b 861 -42 861 -42 861 -42 b 932 0 890 -42 924 -31 l 933 0 l 933 6 b 935 107 935 39 935 74 b 938 233 935 149 935 192 b 961 461 943 313 953 393 b 969 511 964 478 967 494 b 992 689 976 569 985 629 l 993 696 b 953 865 999 753 1007 825 z m 464 818 b 564 732 510 807 546 776 b 574 700 568 722 571 711 b 544 661 564 688 554 675 b 526 735 542 686 536 711 b 426 821 508 779 474 810 b 461 817 438 821 449 819 z m 164 788 b 228 703 197 771 215 733 b 232 694 229 700 231 697 b 210 647 224 679 217 664 b 193 706 206 667 200 686 b 126 792 179 739 160 775 b 99 803 118 796 108 800 b 163 789 121 804 146 797 z m 386 714 b 336 622 368 688 351 657 b 282 436 313 567 294 504 b 260 100 261 324 258 208 b 268 31 263 75 265 53 b 221 -24 275 -12 233 -22 b 196 -25 213 -25 204 -25 b 235 32 221 -17 239 1 b 225 103 231 56 228 79 b 246 439 224 215 226 328 b 299 625 257 503 274 565 b 347 717 313 657 328 688 b 376 754 356 731 365 743 b 389 764 390 758 394 761 b 401 760 400 769 404 768 b 408 751 404 757 407 754 b 383 721 400 742 392 732 z m 783 742 b 693 639 751 713 721 678 b 561 347 626 544 588 433 b 556 340 560 344 558 342 l 554 339 l 554 338 b 543 182 550 292 546 238 b 540 72 542 139 540 104 b 540 26 540 57 540 42 b 540 19 540 25 540 22 b 540 4 540 14 542 7 l 539 1 l 540 0 b 544 -8 542 -3 543 -6 l 546 -12 b 536 -37 549 -21 543 -33 l 522 -47 b 482 -53 511 -54 496 -56 b 486 -51 483 -53 485 -53 b 499 -43 490 -49 494 -46 b 510 -12 507 -37 513 -22 b 510 -8 510 -11 510 -10 b 506 0 508 -6 507 -3 b 506 0 506 0 506 0 b 504 24 507 6 504 18 b 504 69 504 39 504 54 b 507 178 504 106 506 142 b 518 332 510 229 514 281 b 525 340 521 335 524 338 b 656 632 556 443 593 544 b 744 735 682 669 711 704 b 796 778 758 749 776 764 b 796 761 796 772 796 767 b 796 749 796 757 796 753 b 783 738 792 744 788 740 z m 978 701 l 976 694 b 954 517 969 635 961 575 b 946 467 951 500 949 483 b 922 238 938 399 928 318 b 919 111 919 196 919 153 b 918 14 919 79 919 46 l 918 14 l 917 10 b 854 -29 911 -19 881 -29 b 854 -29 854 -29 854 -29 b 846 -29 851 -29 849 -29 b 883 8 865 -24 881 -11 b 883 8 883 8 883 8 b 888 238 886 85 882 161 b 911 467 893 314 901 390 b 939 696 921 543 931 619 b 903 869 946 756 957 829 b 869 888 892 878 881 883 b 940 865 893 889 917 883 b 978 703 992 828 985 761 z "},"N":{"ha":660,"x_min":0,"x_max":0,"o":"m 481 825 b 435 821 465 826 450 825 b 311 767 386 824 344 800 b 246 678 286 742 264 711 b 235 707 243 688 239 697 b 164 793 222 735 201 774 b 74 804 138 807 101 814 b 19 792 54 806 35 803 b 10 768 11 785 7 779 b 10 764 10 767 10 765 b 36 738 13 753 22 744 b 53 683 43 721 50 694 b 67 610 60 660 64 635 b 69 418 74 546 71 482 b 82 22 65 286 57 153 b 179 -33 89 -17 138 -36 b 231 -36 196 -37 214 -39 b 282 28 268 -29 288 -4 b 278 56 281 38 279 47 b 304 440 276 186 276 314 b 368 622 319 508 340 569 b 450 742 406 696 432 728 b 469 689 460 726 467 701 b 472 589 476 656 475 622 b 451 376 467 518 458 447 b 435 160 444 304 438 232 b 433 56 433 125 433 90 b 451 -49 433 22 426 -22 b 518 -69 467 -64 494 -74 b 546 -74 526 -72 536 -74 b 578 -65 557 -74 568 -71 l 581 -64 b 607 -29 593 -56 606 -47 b 599 0 608 -18 606 -8 b 601 31 600 4 601 13 l 601 32 b 601 81 601 50 601 65 b 606 189 601 113 603 147 b 622 388 610 257 617 326 l 625 414 b 639 585 631 469 636 528 b 614 747 642 638 642 697 b 488 826 589 792 543 821 z m 167 786 b 232 704 193 772 214 746 b 246 668 238 693 242 681 b 222 618 238 651 229 635 b 197 706 218 649 210 678 b 128 789 182 739 161 772 b 100 799 119 793 110 796 b 164 785 122 800 146 794 z m 365 628 b 301 443 338 575 317 513 b 275 54 274 315 274 186 b 279 25 276 44 278 35 b 235 -29 285 -3 268 -24 b 206 -29 225 -31 215 -31 b 243 28 231 -21 249 -3 b 239 57 242 38 240 47 b 265 443 238 186 238 317 b 329 628 279 507 300 569 b 440 757 343 656 403 772 b 449 751 443 756 446 754 b 365 629 425 733 397 693 z m 629 585 b 615 414 626 528 621 469 l 613 388 b 596 188 607 326 600 257 b 592 79 593 146 592 111 b 592 31 592 64 592 49 l 592 29 b 592 1 593 8 592 3 l 588 0 l 592 -4 b 601 -29 599 -11 601 -19 b 579 -57 600 -43 590 -50 l 576 -58 b 535 -64 565 -65 550 -67 b 539 -60 536 -62 538 -61 b 565 -28 551 -51 564 -44 b 556 0 567 -17 563 -7 b 558 32 560 1 558 29 b 558 82 558 49 558 65 b 561 190 558 118 560 154 b 578 390 565 257 571 324 b 593 588 583 456 590 521 b 567 749 596 642 594 700 b 464 822 544 788 507 813 b 481 822 469 822 475 822 b 601 746 533 817 578 789 b 628 588 629 697 629 639 z "},"O":{"ha":953,"x_min":0,"x_max":0,"o":"m 936 464 b 853 472 914 475 881 481 b 807 467 838 474 821 472 b 736 438 783 457 760 447 b 717 610 736 494 729 553 b 511 888 685 757 615 850 b 378 899 467 903 421 907 b 161 781 293 897 214 853 b 110 607 121 726 103 665 b 103 607 107 607 104 607 b 17 553 64 610 28 597 b 11 374 3 497 8 431 b 118 72 15 264 38 153 b 336 -19 175 15 256 -17 b 386 -24 353 -22 369 -24 b 492 -6 422 -24 458 -18 b 703 238 590 31 665 117 b 722 329 711 267 718 297 b 943 415 794 346 868 375 b 957 432 954 421 957 428 b 929 464 957 446 939 458 z m 706 607 b 724 432 718 549 724 490 b 689 419 713 428 701 424 b 669 608 690 483 683 547 b 465 883 643 726 585 840 b 424 896 451 889 438 893 b 503 881 450 896 476 890 b 704 608 604 844 672 753 z m 149 499 b 149 503 149 500 149 501 b 160 490 151 499 156 494 b 183 465 167 482 175 474 b 183 465 183 465 183 465 b 185 392 183 440 183 415 b 200 264 188 340 192 300 b 332 82 213 207 246 107 b 294 86 319 81 307 82 b 165 265 217 108 181 193 b 150 393 156 307 151 350 b 149 468 149 418 149 443 b 149 506 149 481 149 493 z m 335 92 b 206 268 251 115 218 213 b 190 394 197 304 193 343 b 189 461 189 417 189 439 b 492 326 271 383 381 338 b 513 326 499 326 506 326 b 525 326 517 326 521 326 b 454 164 513 268 492 211 b 351 90 429 132 392 101 b 331 93 344 90 338 92 z m 328 460 b 232 657 265 507 215 574 b 375 829 246 722 304 815 b 399 829 383 831 392 831 b 267 658 331 806 279 718 b 363 457 247 567 308 499 b 497 397 404 425 449 406 b 325 460 439 400 381 418 z m 367 463 b 272 657 314 503 254 569 b 408 826 285 718 339 810 b 503 675 458 803 490 717 b 531 404 529 588 539 496 b 368 465 471 408 417 428 z m 933 435 b 713 349 858 394 785 365 l 710 349 l 710 346 b 689 251 706 313 699 281 b 485 14 668 183 614 61 b 393 -4 456 3 425 -3 b 447 10 411 -1 429 3 b 654 250 554 49 622 144 b 675 344 664 281 671 313 b 897 431 753 363 828 393 b 882 472 922 444 897 465 b 863 479 876 475 869 478 b 921 468 882 481 903 476 b 944 443 932 463 944 451 b 936 432 944 439 942 435 z "},"P":{"ha":813,"x_min":0,"x_max":0,"o":"m 474 906 b 382 901 443 907 413 906 b 85 771 271 896 161 850 b 68 461 21 704 -64 504 b 110 457 79 458 96 456 b 172 463 128 451 158 447 b 178 481 179 469 179 476 b 157 504 176 490 168 499 b 151 576 151 507 143 519 l 151 578 b 172 653 156 606 163 631 b 281 769 194 699 231 738 b 468 826 332 803 400 828 b 556 792 499 821 528 810 b 635 514 644 735 686 610 b 446 353 593 435 522 390 b 442 457 444 392 443 425 b 440 500 440 471 440 485 b 418 657 439 551 436 610 b 322 696 410 681 357 699 b 304 692 315 696 310 694 b 250 669 278 694 254 689 b 251 469 238 607 250 533 b 254 265 253 401 254 333 b 254 65 254 199 253 132 b 282 -122 254 4 250 -68 b 369 -151 292 -139 336 -154 b 403 -156 381 -154 392 -156 b 419 -154 408 -156 414 -156 b 450 -125 438 -150 449 -140 b 450 0 456 -85 453 -42 b 447 72 449 24 447 49 b 447 143 447 96 447 119 b 447 257 447 181 447 219 b 764 442 567 253 697 346 b 754 760 829 535 825 665 b 474 904 690 846 590 897 z m 275 775 b 164 656 224 743 186 703 b 142 579 153 633 146 607 l 142 578 b 151 497 138 547 133 506 b 169 479 161 493 168 486 b 165 467 171 475 169 471 b 124 460 157 457 139 457 b 129 464 126 461 128 463 b 114 500 142 478 129 493 b 106 578 96 508 104 565 b 128 654 110 604 117 631 b 236 772 151 704 190 743 b 410 829 288 806 349 826 b 274 775 360 821 313 800 z m 319 689 b 328 689 322 689 325 689 b 410 656 361 689 403 672 b 431 500 428 610 429 551 b 432 457 431 485 431 471 b 436 349 433 424 435 389 b 403 332 425 343 414 338 b 397 457 401 374 400 415 b 374 657 393 519 396 597 b 321 688 368 669 346 682 b 321 688 321 688 321 688 z m 443 -124 b 418 -144 442 -135 433 -142 b 390 -144 410 -146 400 -146 b 408 -122 400 -140 407 -133 b 404 72 417 -60 404 8 b 404 264 404 136 406 200 b 439 265 415 264 426 264 l 439 264 b 439 146 439 225 439 185 b 439 75 439 122 439 99 b 442 3 439 51 440 26 b 442 -118 444 -37 447 -79 z m 757 451 b 460 269 693 361 572 272 b 719 449 563 288 664 368 b 710 761 785 542 778 671 b 469 900 650 842 563 886 b 474 900 471 900 472 900 b 747 760 588 893 685 843 b 757 451 815 668 819 542 z "},"Q":{"ha":693,"x_min":0,"x_max":0,"o":"m 728 -46 b 696 -39 718 -42 707 -40 b 657 -26 682 -37 668 -36 b 610 31 638 -11 622 11 b 575 97 599 50 588 71 b 594 122 582 106 589 114 b 672 394 640 193 667 285 b 621 694 676 482 674 596 b 357 853 567 796 458 861 b 336 850 350 853 343 851 b 315 850 329 850 322 850 b 146 675 221 842 161 763 b 146 671 146 674 146 672 b 133 667 142 669 138 668 b 125 667 131 667 128 667 b 81 656 110 667 94 664 b 51 607 61 644 57 628 b 17 442 38 553 26 497 b 47 140 0 340 -1 233 b 299 -15 96 49 196 -11 b 299 -15 299 -15 299 -15 b 336 -18 311 -17 324 -18 b 447 3 374 -19 411 -12 b 526 -94 468 -33 493 -68 b 633 -132 557 -118 596 -133 b 667 -136 644 -135 656 -136 b 749 -99 697 -136 726 -125 b 753 -81 753 -93 754 -87 b 717 -47 749 -62 722 -50 z m 376 743 b 376 743 376 743 376 743 b 463 326 494 658 486 453 b 418 382 450 347 433 365 b 363 457 397 404 376 428 b 335 665 339 508 314 586 b 369 732 342 692 354 715 b 378 742 372 736 375 739 z m 364 738 b 329 667 343 714 333 683 b 358 453 308 586 333 506 b 414 376 372 422 393 399 b 463 314 431 357 449 338 b 450 272 460 301 456 288 b 429 311 443 286 436 299 b 322 453 400 365 349 397 b 293 665 292 518 275 594 b 328 735 300 689 311 715 b 372 746 346 756 354 757 b 364 738 369 743 367 740 z m 196 425 b 186 329 192 393 188 361 b 264 106 185 282 189 167 b 299 85 275 96 286 89 b 228 110 276 82 253 89 b 151 331 165 161 149 254 b 168 474 153 379 160 426 b 168 478 168 475 168 476 b 193 425 175 460 183 442 z m 313 90 b 267 113 297 93 282 100 b 192 329 194 171 190 283 b 200 414 193 357 196 385 b 226 382 208 403 217 392 b 272 340 240 367 258 356 b 308 288 288 325 297 306 b 365 181 328 254 354 218 b 369 172 367 178 368 175 b 382 143 374 163 378 153 b 315 90 363 118 340 99 z m 350 -11 b 436 21 381 -6 410 6 b 444 8 439 17 442 13 b 350 -11 414 -4 382 -11 z m 744 -94 b 658 -129 721 -122 690 -132 b 707 -97 676 -124 693 -114 b 678 -53 724 -78 690 -58 b 607 -31 654 -42 628 -47 b 560 28 588 -15 572 7 b 524 97 546 50 535 74 b 543 125 531 106 538 115 b 619 396 594 204 615 301 b 568 694 624 497 617 603 b 372 847 529 769 456 831 b 606 693 464 846 557 785 b 656 397 657 596 660 483 b 579 129 650 289 625 199 b 560 100 574 119 567 110 l 558 99 l 560 96 b 596 26 572 68 583 46 b 643 -32 608 7 624 -15 b 685 -49 656 -43 671 -46 b 714 -56 694 -50 704 -51 b 746 -82 725 -60 743 -71 b 743 -94 747 -86 746 -90 z "},"R":{"ha":783,"x_min":0,"x_max":0,"o":"m 858 -37 b 838 -29 851 -35 844 -32 b 768 13 814 -18 790 -4 b 657 135 722 46 688 92 b 506 296 614 194 567 256 b 724 479 614 342 685 401 b 664 781 779 590 756 708 b 354 854 582 844 468 871 b 258 839 321 853 289 847 b -11 617 153 810 18 731 b 58 579 -18 592 26 575 b 63 579 60 579 61 579 b 132 600 92 572 126 576 b 339 774 154 686 257 747 b 439 788 369 783 404 789 b 565 717 488 779 533 757 b 546 479 622 644 597 546 b 407 368 510 433 460 399 b 403 461 407 403 406 433 b 393 550 400 496 397 524 b 386 579 392 560 389 569 b 378 638 382 599 378 618 b 288 688 376 669 324 688 b 260 683 276 688 267 686 b 207 661 232 686 207 679 b 217 490 206 604 215 547 b 214 311 218 431 217 371 b 204 131 211 251 207 192 b 214 -47 201 72 197 10 b 308 -90 221 -74 271 -93 b 347 -94 321 -93 335 -94 b 393 -61 374 -93 390 -81 b 400 65 400 -19 400 24 b 400 117 400 82 400 100 b 404 196 401 143 403 169 b 408 254 406 215 407 235 b 564 43 472 197 513 106 b 688 -69 599 -1 640 -39 b 831 -124 728 -94 781 -126 b 864 -128 842 -126 853 -128 b 892 -124 874 -128 883 -126 b 925 -99 910 -119 922 -110 b 914 -67 926 -92 926 -81 b 858 -32 897 -49 878 -40 z m 340 785 b 128 607 257 758 151 696 b 76 589 124 592 100 586 b 90 604 83 592 89 597 b 299 779 113 692 218 753 b 381 794 325 788 353 793 b 336 783 365 792 350 788 z m 289 681 b 369 639 326 681 369 663 b 378 579 369 618 374 599 b 385 550 381 569 383 560 b 394 461 389 524 392 496 b 399 363 397 432 399 400 b 363 342 388 356 375 349 b 360 458 363 381 363 419 b 349 546 357 488 354 517 b 332 635 343 575 333 604 b 279 676 332 654 307 669 b 286 676 282 676 285 676 z m 392 192 b 388 113 390 165 389 139 b 388 61 388 96 388 78 b 381 -65 388 19 388 -24 b 343 -92 378 -86 356 -90 b 326 -92 338 -92 332 -92 b 347 -67 338 -87 346 -79 b 356 114 357 -7 354 54 b 361 268 357 165 360 217 b 374 271 365 268 369 269 b 378 271 375 271 376 271 b 394 258 383 267 389 263 b 390 192 393 236 392 214 z m 910 -100 b 882 -119 907 -108 897 -115 b 849 -121 871 -122 860 -122 b 864 -71 874 -112 886 -93 b 790 -31 843 -49 818 -43 b 719 11 765 -19 742 -6 b 607 135 674 44 640 89 b 451 299 563 197 515 258 b 675 482 543 336 629 390 b 617 781 728 588 711 706 b 438 854 565 821 503 844 b 653 776 518 850 594 824 b 710 483 742 707 764 592 b 489 301 671 406 599 346 l 482 299 l 489 294 b 643 131 551 254 597 194 b 757 6 675 86 710 40 b 826 -36 779 -11 803 -25 b 847 -44 833 -39 840 -42 b 900 -76 867 -53 885 -60 b 908 -100 906 -82 911 -90 z "},"S":{"ha":878,"x_min":0,"x_max":0,"o":"m 719 918 b 615 921 683 926 649 926 b 392 835 535 918 460 879 b 176 636 310 781 239 711 b 22 406 118 565 65 488 b 7 274 1 365 -17 317 b 147 203 33 224 94 204 b 147 203 147 203 147 203 b 186 199 164 200 178 199 b 428 236 267 197 349 217 b 490 251 449 242 469 247 b 646 278 539 263 592 274 b 650 278 647 278 649 278 b 651 258 650 271 651 261 b 642 222 650 246 646 233 b 425 -6 608 124 514 42 b 354 -32 403 -17 379 -26 b 344 -12 350 -29 347 -24 b 454 117 335 26 372 69 b 467 133 463 121 467 126 b 440 161 467 147 446 158 b 360 167 418 171 385 176 b 317 161 344 168 329 167 b 196 -36 250 131 138 47 b 344 -106 229 -85 286 -104 b 393 -110 360 -108 376 -110 b 504 -90 431 -110 469 -103 b 736 67 588 -62 668 -8 b 814 303 758 92 869 221 b 547 363 761 379 636 372 b 467 353 518 360 490 356 b 225 313 386 343 306 322 b 192 311 214 311 203 311 l 192 311 b 197 329 194 315 196 322 b 201 340 199 333 200 338 b 213 361 204 347 208 354 l 215 367 b 293 496 239 411 265 454 b 471 700 349 578 407 644 b 592 789 513 736 551 765 l 597 792 b 665 822 614 801 640 817 b 674 817 668 821 671 819 b 658 678 707 779 679 714 b 538 540 628 625 586 578 b 621 479 497 510 574 476 b 686 483 646 474 672 474 b 868 714 785 556 846 633 b 853 835 881 757 875 799 b 724 924 828 878 781 910 z m 496 264 b 432 249 475 260 453 254 b 233 214 367 233 300 218 b 457 260 308 224 385 244 b 613 285 508 271 560 281 b 651 288 619 285 638 288 b 496 261 597 283 544 272 z m 392 164 b 443 153 410 164 429 160 b 465 132 454 147 465 139 b 457 124 465 129 463 126 b 344 -12 371 75 333 29 b 353 -31 347 -21 350 -26 b 349 -31 351 -31 350 -31 b 310 -10 325 -35 317 -36 b 422 122 296 47 382 100 b 406 158 444 135 421 151 b 386 165 400 161 393 164 b 394 165 389 165 392 165 z m 814 300 b 736 75 867 224 758 99 b 508 -81 669 1 590 -53 b 411 -99 478 -90 444 -97 b 469 -85 432 -96 451 -90 b 700 69 558 -56 638 1 b 776 300 746 119 825 229 b 669 358 753 335 714 351 b 813 297 728 356 783 340 z m 597 794 l 592 792 b 469 703 551 768 511 739 b 289 496 404 646 346 578 b 211 367 261 454 235 411 l 208 361 b 197 340 204 354 200 347 b 193 326 196 336 194 332 b 189 311 192 321 190 314 b 186 306 188 308 186 307 b 157 306 176 306 167 306 b 149 306 154 306 151 306 b 150 311 149 307 149 308 b 157 340 154 317 154 332 b 171 367 161 350 167 358 b 249 496 194 411 221 454 b 428 700 300 571 358 640 b 549 788 465 732 506 763 b 650 825 571 801 618 832 b 590 796 628 818 606 806 z m 854 713 b 675 486 832 633 772 557 b 635 481 667 481 651 479 b 639 485 636 482 638 483 b 819 713 715 540 793 618 b 678 918 849 817 775 896 b 665 921 674 919 669 919 b 715 915 682 921 699 919 b 842 831 771 903 817 872 b 856 714 863 796 867 756 z "},"T":{"ha":921,"x_min":0,"x_max":0,"o":"m 932 754 b 904 796 929 771 919 785 b 817 810 881 811 846 817 b 738 806 790 808 764 807 b 606 800 694 803 650 800 b 393 811 535 801 463 807 l 390 811 b 228 810 338 815 282 817 b 146 797 200 808 172 804 b -11 701 107 788 -7 754 b 17 661 -12 683 1 668 b 21 661 18 661 19 661 b 86 647 40 653 64 646 b 154 651 106 642 132 639 b 172 672 163 657 169 664 b 188 678 176 672 182 675 b 192 681 189 679 190 681 b 221 692 201 685 211 689 b 288 701 240 697 263 700 b 363 699 313 703 338 701 b 438 690 388 696 413 693 b 414 367 417 585 418 472 b 406 -28 408 236 397 103 b 490 -142 408 -83 428 -136 b 507 -142 494 -142 500 -142 b 529 -146 514 -144 521 -146 b 536 -146 531 -146 533 -146 b 593 -115 556 -146 589 -139 b 574 -82 597 -94 582 -86 b 572 -78 574 -81 574 -79 b 569 -65 572 -75 571 -71 b 569 -61 569 -64 569 -62 b 565 -21 568 -49 567 -36 b 567 60 564 6 565 33 b 567 85 567 68 567 76 b 572 289 568 144 569 210 b 574 381 574 319 574 350 b 590 675 576 478 579 578 b 865 678 700 667 788 668 b 928 708 882 681 913 688 b 938 747 936 719 939 732 z m 493 -75 b 514 -79 500 -76 507 -78 b 518 -83 515 -81 517 -82 b 493 -76 508 -81 499 -79 z m 224 697 b 192 686 213 694 201 690 b 188 683 190 686 189 685 b 175 678 185 682 176 678 l 171 679 l 169 675 b 153 657 167 668 161 661 b 108 649 140 650 125 647 b 117 653 111 650 114 651 b 135 674 126 658 132 665 b 154 682 139 672 151 681 b 183 693 164 686 174 690 b 249 703 204 699 226 701 b 221 697 239 701 229 700 z m 586 -117 b 531 -139 583 -136 546 -140 b 526 -139 529 -139 528 -139 b 550 -117 539 -135 549 -128 b 528 -86 553 -100 542 -92 b 528 -78 529 -85 529 -82 b 546 -83 532 -81 539 -82 l 561 -87 l 567 -89 b 585 -115 582 -94 588 -103 z m 563 381 b 561 289 563 350 563 319 b 556 85 558 210 557 144 b 556 60 556 76 556 68 b 554 -22 554 33 553 6 b 558 -64 556 -37 557 -51 b 558 -69 558 -65 558 -67 b 561 -81 560 -72 561 -79 l 561 -82 l 561 -83 b 561 -86 561 -85 561 -86 l 561 -86 l 551 -81 b 547 -76 550 -79 549 -78 l 524 -71 b 521 -61 522 -67 521 -62 b 517 -19 518 -47 517 -33 b 518 86 515 15 517 51 b 524 290 519 154 521 222 b 542 679 528 419 526 550 b 575 676 553 678 564 676 b 558 379 564 578 561 476 z m 913 711 b 856 686 899 693 871 688 b 806 681 839 683 822 682 b 818 681 810 681 814 681 b 888 744 853 685 893 701 b 888 749 888 746 888 747 b 832 801 883 775 860 793 b 899 785 856 803 881 797 b 922 749 913 775 921 763 l 924 743 b 915 711 925 731 922 719 z "},"U":{"ha":750,"x_min":0,"x_max":0,"o":"m 738 -15 b 701 156 722 43 708 97 b 689 379 693 231 690 307 b 689 542 688 432 688 485 l 689 542 b 701 583 693 556 697 569 b 689 614 704 594 700 606 b 693 718 690 649 692 683 b 693 735 693 724 693 729 b 708 822 694 764 696 794 b 689 849 713 832 706 842 b 618 854 668 858 636 863 b 569 840 597 857 576 854 b 550 733 553 807 553 769 b 543 621 547 696 544 658 b 528 604 536 617 531 611 b 376 233 476 481 431 356 b 290 79 353 181 328 125 b 276 64 286 75 282 69 b 276 64 276 64 276 64 b 269 76 274 68 271 72 b 232 240 244 125 238 186 b 221 440 226 299 222 363 b 219 639 219 507 219 575 b 219 731 219 669 219 700 b 218 758 219 739 219 749 b 218 808 217 775 215 794 b 218 813 218 810 218 811 l 222 808 l 222 818 b 194 851 222 836 207 844 l 190 853 b 107 863 169 864 132 872 b 63 854 90 864 74 863 b 40 772 36 836 42 800 b 33 651 38 732 35 692 b 33 406 31 569 31 488 b 53 171 36 328 39 249 b 136 -7 64 107 85 36 b 260 -50 171 -36 215 -50 b 389 -33 303 -58 349 -53 b 526 136 456 0 496 71 b 547 178 533 150 540 164 b 611 -54 554 96 571 14 b 678 -74 618 -67 653 -76 b 708 -78 688 -76 699 -78 b 732 -74 717 -78 725 -76 b 744 -50 743 -69 747 -61 b 736 -17 742 -39 739 -28 z m 186 847 l 190 844 b 214 826 200 840 210 835 l 214 822 b 211 818 214 821 213 819 l 210 817 l 210 815 b 210 761 207 800 208 779 b 211 735 211 751 211 742 b 211 643 211 704 211 674 b 213 443 211 579 211 511 b 224 242 214 365 218 301 b 261 76 229 188 236 126 b 269 64 264 72 267 68 b 269 60 269 63 269 61 b 246 44 263 53 254 47 b 242 49 244 46 243 47 b 224 78 238 58 228 68 b 186 243 199 128 192 189 b 175 443 179 310 176 376 b 174 643 174 510 174 576 b 174 735 174 674 174 704 b 172 814 174 757 168 792 b 176 822 175 817 176 819 b 176 822 176 822 176 822 b 150 851 176 838 163 844 b 146 851 149 851 147 851 b 122 860 139 854 131 857 b 183 847 143 861 168 856 z m 518 140 b 385 -25 488 76 449 7 b 300 -46 358 -39 329 -46 b 349 -31 317 -43 333 -37 b 485 135 415 1 454 71 b 543 265 506 178 525 221 b 546 190 543 240 544 215 b 521 135 538 171 529 153 z m 729 -71 b 696 -74 721 -75 708 -75 b 703 -56 703 -69 706 -64 b 657 147 685 13 665 78 b 644 371 649 221 646 296 b 644 533 643 425 643 479 b 657 575 649 547 653 561 b 644 601 660 585 654 594 b 650 706 646 636 647 671 b 667 813 653 742 651 779 b 638 839 671 824 657 833 b 688 829 653 840 674 836 b 703 813 692 828 706 821 b 688 721 690 783 689 751 b 688 704 688 715 688 710 b 682 599 685 669 683 633 l 682 596 l 683 594 b 694 572 693 588 697 581 b 682 531 690 558 686 544 l 682 528 b 682 365 681 471 681 418 b 694 142 683 293 686 217 b 731 -31 701 82 715 28 b 739 -64 733 -42 736 -53 b 731 -79 740 -71 738 -76 z "},"V":{"ha":858,"x_min":0,"x_max":0,"o":"m 861 804 b 778 817 842 819 799 826 b 733 810 760 819 742 818 b 494 408 629 694 556 550 b 432 251 472 357 451 304 b 368 492 415 325 394 408 b 124 879 310 674 232 797 b 29 894 99 897 57 904 b 29 894 29 894 29 894 b -7 890 17 896 4 894 b -14 847 -32 882 -35 864 b 197 468 101 754 157 607 b 321 -54 247 296 272 118 b 410 -93 328 -79 374 -96 b 443 -97 421 -96 432 -97 b 461 -96 450 -97 456 -97 b 496 -58 485 -92 497 -78 b 492 -25 494 -47 493 -36 b 543 143 503 32 524 89 l 549 160 b 633 375 576 238 604 308 b 871 776 692 510 769 640 b 867 804 878 786 876 796 z m 63 892 b 124 872 85 892 108 885 b 365 489 231 792 307 669 b 431 238 393 401 414 314 b 414 192 425 222 419 207 b 410 178 413 188 411 183 b 397 224 406 193 401 208 b 328 489 378 313 356 401 b 85 875 281 638 211 779 b 53 890 76 882 65 888 b 61 890 56 890 58 890 z m 864 781 b 625 378 761 644 683 513 b 540 160 596 310 568 239 l 535 143 b 483 -28 515 88 494 31 l 483 -28 l 483 -28 b 488 -61 485 -39 486 -50 b 460 -90 489 -81 474 -87 b 432 -90 451 -92 442 -92 b 453 -60 446 -85 454 -75 b 449 -26 451 -49 450 -37 b 507 160 461 38 485 99 b 592 376 533 233 561 306 b 829 779 654 522 735 653 b 801 813 840 793 824 806 b 864 797 822 815 851 808 b 867 781 872 790 869 785 z "},"W":{"ha":1142,"x_min":0,"x_max":0,"o":"m 1040 828 b 957 836 1028 838 979 846 b 917 807 928 839 899 833 b 979 643 951 756 974 706 b 963 458 985 582 976 518 b 776 143 933 339 868 225 b 718 99 763 131 740 110 b 679 146 701 107 688 131 l 679 147 b 629 340 649 197 632 263 b 657 629 625 439 640 538 b 681 739 665 667 674 706 b 681 747 682 742 682 744 l 685 767 b 650 797 688 779 674 792 b 599 794 632 801 611 801 b 553 782 578 797 557 794 b 553 778 553 781 553 779 b 517 758 535 776 521 771 b 408 363 479 626 460 490 b 319 201 386 306 357 251 b 265 139 303 179 285 158 b 239 115 257 131 249 122 b 235 131 238 121 236 126 b 226 225 228 157 225 186 b 242 382 228 278 235 331 b 250 432 244 399 247 415 b 260 635 257 492 264 563 b 207 814 256 697 246 768 b 103 839 185 839 135 850 b 54 831 85 840 67 838 b 50 826 53 829 51 828 b 46 800 39 819 38 811 b 50 796 47 799 49 797 b 54 792 51 794 53 793 b 67 732 61 775 64 744 b 76 632 74 699 76 665 b 61 451 76 571 69 511 b 61 94 46 340 13 201 b 210 1 90 29 149 1 b 210 1 210 1 210 1 b 249 -3 222 -1 235 -3 b 406 58 304 -3 363 19 b 517 197 447 96 483 142 b 615 56 536 140 567 89 b 714 25 649 33 682 25 b 751 21 726 22 739 21 b 976 153 844 21 928 97 b 1129 463 1051 239 1106 349 b 1054 826 1142 525 1175 738 z m 658 789 b 689 767 675 785 690 776 l 685 746 l 685 744 b 686 736 686 742 686 739 b 663 626 679 703 671 664 b 633 338 644 535 629 436 b 683 140 636 258 653 192 l 683 139 b 721 92 692 125 704 103 b 700 89 714 89 707 88 b 647 142 676 92 658 124 b 596 336 613 200 599 269 b 625 625 592 433 607 529 b 650 733 633 661 642 697 b 649 742 650 736 650 739 b 653 763 650 749 651 756 b 624 789 654 774 640 783 b 657 786 633 790 646 789 z m 136 829 b 206 803 163 829 192 819 b 257 629 243 760 253 690 b 247 431 261 558 254 489 b 239 381 244 414 242 397 b 224 224 232 329 225 276 b 233 125 222 183 225 153 b 239 108 235 119 236 114 b 235 108 238 108 236 108 b 214 96 228 104 221 100 b 214 96 214 96 214 96 b 210 103 213 97 211 100 b 199 131 204 111 201 121 b 190 225 190 161 189 193 b 213 432 193 294 204 363 b 222 632 221 499 226 565 b 169 808 218 690 210 763 b 128 832 160 819 144 828 b 136 832 131 832 133 832 z m 400 64 b 250 6 358 26 303 6 b 364 63 292 14 332 33 b 501 253 422 115 467 182 b 513 208 504 238 508 222 b 400 65 479 151 442 104 z m 1119 465 b 967 158 1096 353 1042 244 b 747 31 919 104 838 29 b 932 156 818 46 883 100 b 1085 464 1008 243 1061 351 b 1011 824 1108 575 1115 747 b 989 832 1007 826 999 829 b 1046 822 1010 833 1038 828 b 1117 467 1163 736 1129 528 z "},"X":{"ha":719,"x_min":0,"x_max":0,"o":"m 675 867 b 642 863 663 867 651 865 b 638 863 640 863 639 863 b 543 811 593 863 571 843 b 458 706 514 776 486 742 b 365 575 426 663 396 619 b 219 811 331 663 288 749 b 119 831 200 829 151 842 b 68 819 100 832 81 829 b 42 771 51 807 40 793 b 89 733 43 754 64 740 b 167 579 117 683 144 633 b 242 381 194 514 217 447 b 165 244 215 336 190 290 b 96 121 143 203 121 161 b 61 68 85 103 74 85 b 17 17 53 56 33 18 b -3 -28 -7 14 -28 -10 b 75 -51 21 -44 49 -54 b 104 -56 85 -54 94 -56 b 165 -32 125 -56 146 -49 b 239 68 194 -6 218 33 b 247 85 242 74 244 79 b 314 203 271 124 293 164 b 351 138 325 181 338 158 b 528 -1 393 72 447 -8 b 603 3 550 -7 575 -7 b 631 31 617 7 628 18 b 624 58 633 40 631 50 l 617 67 b 501 231 574 119 533 169 b 426 404 472 288 449 347 b 538 579 461 463 499 521 b 625 701 564 617 592 657 b 667 760 639 721 653 740 b 674 771 668 761 671 765 b 704 814 681 782 700 811 b 732 826 718 815 728 819 b 732 843 735 831 735 836 b 675 868 725 861 690 868 z m 144 828 b 210 806 169 828 197 818 b 356 569 278 743 321 657 b 335 536 349 558 342 547 b 174 808 297 636 251 738 b 136 828 165 817 151 824 b 144 828 139 828 142 828 z m 242 90 b 233 74 239 85 236 79 b 164 -25 214 40 192 1 b 97 -47 143 -44 119 -50 b 128 -29 108 -43 118 -37 b 210 88 161 1 186 49 b 299 247 242 139 269 193 b 315 214 304 236 310 225 b 247 90 293 172 271 131 z m 731 829 b 710 821 728 825 721 822 b 674 776 704 821 696 811 b 667 765 671 771 668 767 b 625 707 653 746 639 726 b 538 585 592 663 564 622 b 426 408 499 526 461 467 l 425 407 l 425 406 b 503 231 447 349 472 288 b 619 65 535 168 576 118 l 626 57 b 632 38 632 51 633 44 b 608 14 629 28 619 18 b 558 6 590 7 574 4 b 571 10 563 7 567 8 b 592 60 590 17 607 40 b 469 233 546 115 503 168 b 394 410 440 290 417 350 b 507 586 431 469 468 528 b 593 708 535 628 564 668 b 635 767 607 728 621 747 b 675 821 639 772 668 819 b 700 844 690 822 707 828 b 672 863 696 853 685 858 b 685 863 676 863 681 863 b 735 842 699 863 729 856 b 735 832 736 838 736 835 z "},"Y":{"ha":640,"x_min":0,"x_max":0,"o":"m 464 869 b 460 867 463 869 461 868 b 415 847 435 871 410 865 b 463 463 450 721 468 592 b 365 465 433 469 399 472 b 263 431 328 465 292 456 b 217 346 236 408 225 378 b 224 425 218 372 221 399 b 228 467 225 439 226 453 b 240 656 235 528 242 592 l 240 658 b 200 836 239 717 238 789 b 121 864 182 858 142 864 b 96 860 121 864 108 864 b 83 860 92 860 88 860 b 40 832 71 860 29 854 b 54 736 54 804 53 767 b 51 636 56 703 54 669 b 28 433 46 568 35 501 b 113 136 17 331 -8 183 b 174 125 132 128 153 125 b 332 172 229 113 292 131 b 381 281 361 203 372 244 b 385 297 382 286 383 292 b 424 383 392 329 399 365 b 446 392 431 388 438 390 b 458 388 450 390 454 389 b 429 238 453 338 443 288 b 310 -21 404 146 364 58 b 115 -224 256 -100 186 -161 b 139 -261 100 -237 131 -257 b 183 -267 153 -267 168 -269 b 213 -271 193 -269 203 -271 b 244 -262 224 -271 235 -268 b 582 204 394 -189 521 -14 b 551 842 640 414 629 646 b 465 867 543 863 490 875 z m 463 446 b 410 458 446 451 428 456 b 463 451 428 458 446 456 b 463 443 463 449 463 446 z m 124 851 b 196 828 149 853 182 846 b 233 656 231 783 232 713 l 233 653 b 221 465 235 590 228 526 b 217 424 219 451 218 438 b 207 304 213 385 208 344 b 181 242 201 282 194 260 b 174 275 178 253 174 265 b 189 464 171 338 182 401 b 201 651 196 526 203 589 b 163 831 200 708 199 783 b 124 853 154 842 139 849 b 125 853 124 853 125 853 z m 421 390 b 378 300 393 371 385 332 b 374 283 376 294 375 289 b 326 178 365 247 354 207 b 208 129 296 146 251 129 b 290 175 239 136 268 151 b 338 282 318 204 329 243 b 382 388 346 317 351 365 b 428 396 394 397 411 399 b 419 392 425 394 422 393 z m 574 208 b 242 -253 513 -8 389 -181 b 199 -257 229 -258 214 -260 b 203 -256 200 -257 201 -257 b 538 210 376 -169 488 31 b 508 844 596 415 588 646 b 475 865 504 854 490 861 b 542 843 499 868 536 858 b 571 213 618 650 629 419 z "},"Z":{"ha":757,"x_min":0,"x_max":0,"o":"m 717 39 b 313 97 628 74 474 119 b 196 76 272 94 233 88 b 300 293 213 154 247 225 b 515 510 363 374 440 443 b 578 564 536 528 557 546 b 603 586 585 571 593 578 b 738 850 675 649 796 754 b 557 907 700 911 607 908 b 482 903 532 907 507 906 b 321 874 428 899 374 889 b 54 601 200 838 32 751 b 140 564 58 578 104 563 b 186 560 156 560 172 558 b 224 597 213 564 226 578 b 515 806 210 726 408 790 b 557 811 529 808 543 810 b 546 774 553 800 551 783 b 414 622 515 715 461 667 b 125 333 315 528 207 443 b 11 -25 51 235 -11 101 b 100 -64 15 -49 64 -65 b 104 -64 101 -64 103 -64 b 133 -67 114 -65 124 -67 b 178 -51 153 -67 171 -62 b 429 14 251 -1 333 21 b 619 -39 493 6 557 -14 b 667 -46 632 -44 650 -47 b 757 -24 697 -54 740 -51 b 761 8 764 -14 765 -3 b 714 50 754 28 732 43 z m 728 856 b 594 603 783 767 665 664 b 569 581 585 594 576 588 b 507 526 549 563 528 544 b 290 308 432 460 354 390 b 185 85 236 239 201 165 b 147 71 172 81 160 76 b 256 306 164 156 199 232 b 535 578 336 408 439 490 b 694 857 600 636 758 753 b 603 908 675 889 640 903 b 731 856 650 907 704 897 z m 217 603 b 186 576 219 583 199 578 b 163 575 179 575 171 575 b 183 604 176 581 185 590 b 478 818 168 740 376 803 b 515 822 490 819 503 821 b 219 606 406 806 204 740 z m 175 -42 l 174 -43 b 125 -56 168 -53 149 -57 b 138 -46 131 -53 135 -50 b 335 21 200 -3 267 17 b 175 -42 276 13 224 -8 z m 756 -17 b 693 -39 744 -36 718 -42 b 719 -18 704 -35 714 -28 b 679 50 739 13 704 40 b 451 108 607 78 529 99 b 717 46 558 101 654 71 b 758 8 733 39 753 25 b 754 -17 761 0 760 -8 z "},"[":{"ha":521,"x_min":0,"x_max":0,"o":"m 422 871 b 243 883 365 894 310 890 b 204 879 231 882 218 881 b 94 860 167 875 129 874 b 54 836 75 858 58 851 b 44 621 35 769 44 690 b 44 404 44 549 44 476 b 44 188 44 332 44 260 b 53 -25 44 118 36 43 b 53 -25 53 -25 53 -25 b 79 -58 50 -37 69 -53 b 171 -81 107 -75 139 -79 b 236 -85 192 -85 214 -85 l 249 -85 b 269 -85 256 -85 263 -85 b 303 -85 281 -85 292 -85 b 378 -64 329 -85 356 -81 b 390 -42 386 -57 390 -50 b 374 -14 390 -32 385 -22 b 250 13 335 18 296 15 l 238 13 b 239 128 242 50 240 89 b 239 182 239 146 239 164 l 239 399 b 239 615 239 471 239 543 b 239 667 239 632 239 649 b 239 772 240 701 242 738 b 260 776 246 774 253 775 b 285 781 268 778 276 779 b 314 785 294 782 304 783 b 442 818 357 792 401 799 b 457 838 454 824 457 832 b 428 874 457 853 440 868 z m 372 -25 b 385 -46 381 -32 385 -39 b 375 -61 385 -51 382 -57 b 303 -79 354 -76 329 -79 b 338 -62 315 -76 326 -71 b 335 -19 356 -49 350 -32 b 288 4 319 -7 304 0 b 372 -22 318 4 346 0 z m 439 828 b 313 794 400 808 356 801 b 283 790 303 793 293 792 b 258 786 275 789 267 788 b 233 782 250 785 242 783 l 229 782 l 229 778 b 231 669 233 743 232 706 b 231 618 231 651 231 635 b 231 401 231 546 231 474 l 231 185 b 231 131 231 167 231 149 b 229 13 232 92 233 51 b 200 13 219 13 210 13 b 196 13 199 13 197 13 b 196 186 201 69 196 129 b 196 403 196 258 196 331 b 196 619 196 475 196 547 b 196 779 196 669 201 726 b 246 789 213 782 229 786 b 401 828 299 799 353 804 b 385 878 428 842 403 871 b 338 892 368 885 353 889 b 424 875 367 890 394 886 b 449 846 435 871 449 857 b 439 833 449 840 446 836 z "},"\\":{"ha":742,"x_min":0,"x_max":0,"o":"m 663 -167 b 654 -128 660 -157 657 -142 b 650 -103 653 -118 651 -110 b 628 -15 643 -74 636 -44 b 579 158 613 43 596 101 b 468 493 547 267 510 379 b 392 685 444 557 418 622 b 242 1146 331 833 267 986 b 146 1186 238 1175 181 1190 b 132 1182 140 1185 136 1183 b 72 1151 100 1185 69 1176 b 278 485 99 918 201 704 b 386 140 317 371 353 256 b 431 -26 401 85 417 29 b 478 -200 444 -82 451 -149 b 560 -240 490 -225 532 -243 b 564 -240 561 -240 563 -240 b 592 -244 574 -243 583 -244 b 600 -244 594 -244 597 -244 l 625 -242 b 672 -201 649 -239 668 -222 l 672 -199 b 661 -165 675 -187 671 -176 z m 561 -139 b 561 -139 561 -139 561 -139 b 561 -139 561 -139 561 -139 b 560 -139 561 -139 561 -139 z m 661 -197 l 661 -200 b 621 -233 657 -219 638 -232 l 596 -236 b 588 -236 593 -236 590 -236 b 626 -200 606 -232 622 -218 b 626 -196 626 -199 626 -197 b 617 -164 629 -185 625 -174 b 611 -142 614 -158 613 -150 l 621 -143 l 610 -136 b 601 -99 607 -122 604 -108 b 579 -11 594 -69 588 -40 b 531 163 564 47 547 106 b 419 497 497 275 460 386 b 193 1151 342 713 229 924 b 147 1183 190 1167 171 1178 b 153 1183 149 1183 150 1183 b 228 1150 186 1183 225 1169 b 378 689 253 990 317 838 b 454 497 404 626 431 561 b 565 163 496 383 533 271 b 614 -11 582 106 599 47 b 636 -99 622 -40 629 -69 b 640 -122 638 -106 639 -114 b 650 -162 643 -137 646 -153 l 650 -164 b 658 -192 656 -171 661 -181 z "},"]":{"ha":504,"x_min":0,"x_max":0,"o":"m 463 167 l 463 403 b 463 615 463 474 463 544 b 463 675 463 635 463 656 b 454 844 464 732 465 790 b 417 879 451 858 438 871 b 339 885 393 889 361 893 b 307 883 328 886 317 886 b 243 883 288 885 267 885 b 226 883 238 883 232 883 b 167 881 207 883 186 883 b 83 863 138 879 110 876 b 86 826 65 853 72 835 b 196 796 121 804 157 799 b 261 790 217 793 239 792 l 271 790 b 272 628 268 736 272 681 b 272 403 272 553 272 478 b 272 178 272 328 272 253 b 275 1 272 119 271 60 b 211 -3 254 1 233 0 b 207 -3 210 -3 208 -3 b 172 -6 194 -3 183 -4 b 135 -68 143 -10 117 -39 b 221 -104 151 -96 189 -106 b 254 -108 232 -107 243 -108 b 274 -107 261 -108 268 -108 b 353 -103 300 -103 326 -103 b 410 -101 371 -103 390 -103 b 450 -78 425 -100 443 -92 b 458 -65 454 -74 457 -69 l 458 -65 l 458 -61 b 468 129 468 1 468 67 b 468 171 468 143 468 157 z m 460 407 l 460 171 b 460 129 460 157 460 143 b 451 -57 460 68 460 4 l 451 -57 l 451 -61 b 444 -72 451 -65 449 -69 l 443 -74 b 408 -93 438 -85 421 -92 b 383 -93 400 -93 392 -93 b 407 -76 393 -90 403 -85 b 415 -62 411 -72 414 -68 b 415 -62 415 -62 415 -62 b 424 168 426 14 424 92 b 424 393 424 243 424 318 b 424 618 424 468 424 543 b 417 846 424 692 432 774 b 365 883 413 863 390 876 b 419 875 382 885 401 882 b 453 846 438 868 450 857 b 461 679 464 793 463 735 b 461 619 461 660 461 639 b 461 407 461 549 461 478 z "},"^":{"ha":558,"x_min":0,"x_max":0,"o":"m 542 610 b 489 743 532 656 510 700 b 467 789 482 758 474 774 b 458 814 464 797 461 806 b 394 938 440 856 421 899 b 328 969 383 954 357 967 b 290 965 314 971 301 969 b 233 950 268 967 246 963 b 19 632 147 857 86 739 b 107 581 1 603 64 578 b 140 576 118 578 129 576 b 183 592 160 576 176 581 b 233 672 200 618 217 646 b 303 782 256 708 279 746 b 386 611 325 722 347 661 b 472 586 396 599 440 585 b 533 586 494 581 519 579 b 546 614 544 592 549 601 z m 225 676 b 175 596 208 650 192 622 b 128 585 168 585 149 582 b 140 594 133 588 138 590 b 288 824 189 669 235 750 b 300 790 292 813 296 801 b 228 676 275 753 251 714 z m 532 593 b 494 590 522 589 508 589 b 504 613 503 594 507 601 b 428 790 490 674 454 733 b 354 935 406 840 385 890 b 313 958 346 946 331 954 b 321 958 315 958 318 958 b 329 958 324 958 326 958 b 390 932 356 957 381 946 b 454 810 417 894 436 851 b 463 785 457 801 460 793 b 485 739 469 769 478 754 b 538 607 506 696 528 651 b 528 589 539 599 536 593 z "},"_":{"ha":642,"x_min":0,"x_max":0,"o":"m 583 439 b 372 458 517 464 443 461 b 335 458 360 458 347 458 b 297 458 322 458 310 458 b 92 447 229 457 160 456 b 88 447 90 447 89 447 b 50 443 75 446 63 444 b 21 390 21 440 -3 417 b 90 364 36 372 64 364 b 107 364 96 364 101 364 b 132 361 115 363 124 361 b 324 351 196 354 261 353 b 357 351 335 351 346 351 b 386 351 367 351 376 351 b 453 351 408 351 431 351 b 601 371 503 351 553 356 b 628 397 624 378 628 389 b 582 444 628 417 601 438 z m 599 378 b 501 361 567 368 535 364 b 560 374 521 364 540 368 b 540 440 610 389 569 429 b 475 457 519 449 497 454 b 578 438 510 456 544 450 b 619 397 597 431 619 411 b 599 379 619 389 613 383 z "},"`":{"ha":43,"x_min":0,"x_max":0,"o":"m 185 967 b 168 988 179 974 174 981 b 113 1060 150 1013 133 1036 b 36 1136 90 1085 65 1110 b -68 1161 10 1160 -32 1174 b -124 1149 -87 1164 -107 1160 b -136 1081 -151 1129 -151 1103 b -140 1085 -137 1082 -139 1083 b -124 1064 -136 1076 -131 1069 b -124 1064 -124 1064 -124 1064 b -119 1060 -122 1063 -121 1061 b -119 1060 -119 1060 -119 1060 b -107 1047 -115 1056 -111 1051 b -65 1014 -93 1036 -79 1025 b 35 942 -33 989 3 967 b 104 924 53 928 81 922 b 138 919 115 921 126 919 b 157 921 144 919 151 919 b 188 939 167 922 183 926 b 183 961 190 946 189 953 z m 181 942 b 156 928 178 936 168 931 b 128 928 147 926 138 926 b 140 960 142 933 153 943 b 68 1056 117 993 96 1025 b -7 1131 44 1082 19 1107 b -51 1154 -19 1142 -35 1150 b 29 1126 -22 1157 8 1144 b 106 1051 58 1100 83 1075 b 161 979 126 1028 143 1004 b 178 958 167 972 172 965 b 182 943 182 953 183 947 z "},"a":{"ha":653,"x_min":0,"x_max":0,"o":"m 600 657 b 407 694 540 704 457 701 b 360 688 389 693 372 690 b 118 546 261 671 175 621 b 18 242 53 461 17 350 b 82 36 19 167 28 83 b 192 -3 114 8 153 -3 b 358 35 250 -15 314 3 b 410 82 378 49 394 65 b 422 29 413 63 417 44 b 504 -10 431 7 472 -10 b 513 -10 507 -10 510 -10 b 544 -14 524 -12 535 -14 b 558 -12 550 -14 554 -14 b 592 24 579 -8 592 6 b 586 103 592 50 589 76 b 581 218 582 140 578 179 b 611 406 585 282 597 342 l 617 429 b 583 471 621 447 608 463 b 628 497 604 472 622 481 b 603 658 653 571 644 625 z m 194 89 b 186 88 193 89 189 88 b 183 93 186 89 185 90 b 169 131 176 106 172 119 b 158 225 163 163 158 194 b 332 574 157 339 201 499 b 458 613 369 594 424 617 b 371 576 429 606 396 590 b 193 225 238 501 192 340 b 204 131 193 194 197 163 b 214 101 207 121 210 111 b 193 90 207 97 200 93 z m 357 43 b 235 3 324 18 279 3 b 321 42 267 10 297 24 b 408 135 354 67 382 100 b 411 96 408 121 410 108 b 357 44 396 78 378 60 z m 517 475 b 460 456 493 478 468 474 b 426 357 446 426 435 393 b 376 290 410 335 393 313 b 293 183 350 254 322 218 b 281 167 289 178 285 172 b 219 103 263 144 243 119 b 211 131 215 113 213 122 b 200 222 204 161 200 192 b 372 565 199 335 243 492 b 469 604 401 582 439 599 b 469 604 469 604 469 604 b 461 524 478 590 471 553 b 497 482 456 507 469 492 b 522 476 506 479 514 478 b 514 474 519 476 517 475 z m 606 432 l 600 408 b 569 221 586 344 574 285 b 575 103 567 181 571 142 b 581 24 578 76 581 50 b 554 -3 581 10 571 0 b 542 -4 550 -4 546 -4 b 529 -4 538 -4 533 -4 b 547 24 540 1 547 11 b 542 103 547 50 544 76 b 536 218 538 140 533 179 b 567 406 540 282 553 342 l 572 429 b 539 467 575 444 563 458 b 535 467 538 467 536 467 b 576 461 549 468 564 465 b 606 428 597 454 608 442 z m 617 497 b 563 476 611 479 588 474 b 582 496 572 481 579 486 b 557 651 606 567 597 619 b 472 689 532 672 501 683 b 594 649 513 688 558 678 b 618 497 633 618 642 567 z "},"b":{"ha":639,"x_min":0,"x_max":0,"o":"m 565 513 b 339 603 514 585 421 619 b 274 590 317 603 294 599 b 231 947 279 689 279 825 b 118 985 219 976 153 994 b 114 985 117 985 115 985 b 60 953 82 988 54 979 b 61 433 94 778 85 608 b 28 179 50 349 36 264 b 21 50 24 136 21 93 b 78 -43 21 4 32 -26 b 121 -50 88 -47 104 -50 b 156 -54 131 -53 143 -54 b 206 -40 174 -54 193 -50 b 217 -7 215 -32 219 -21 b 214 42 214 8 214 25 b 335 10 251 22 293 10 b 404 7 358 6 382 4 b 606 197 494 18 569 89 b 568 513 642 306 626 429 z m 143 981 b 225 947 176 981 218 965 b 267 590 274 825 274 689 b 254 583 263 589 258 586 b 232 571 246 579 239 575 b 193 949 242 699 239 831 b 140 982 188 964 165 976 b 146 982 142 982 143 982 z m 206 -32 b 151 -43 193 -42 171 -44 b 176 -6 168 -37 181 -26 b 175 72 172 19 174 46 b 208 50 186 64 197 57 b 210 -4 207 32 207 14 b 201 -31 211 -15 208 -24 z m 290 76 b 186 158 247 90 217 128 b 179 163 185 160 182 161 b 186 229 181 185 183 207 b 214 446 194 301 206 374 b 221 454 217 449 218 451 b 321 547 247 490 281 525 b 372 557 340 557 357 560 b 360 551 368 556 364 554 b 258 458 324 532 289 500 b 254 450 257 456 256 453 l 253 447 l 253 446 b 240 347 249 413 244 379 b 225 232 235 310 229 271 b 218 165 222 208 219 186 l 218 163 l 221 161 b 228 157 225 160 226 158 b 244 140 233 151 239 146 b 331 75 269 114 296 88 b 297 78 319 74 308 74 z m 347 79 b 339 81 344 79 342 79 b 253 146 304 92 278 119 b 236 163 247 151 242 157 b 229 167 235 164 232 165 b 236 229 231 186 233 207 b 251 344 240 268 246 307 b 264 443 256 376 260 410 l 265 444 b 269 453 267 447 268 450 b 367 546 299 494 332 526 b 390 554 375 550 383 553 b 482 353 450 528 479 410 b 401 117 485 269 461 176 b 346 81 386 101 367 88 z m 603 206 b 410 19 568 100 496 31 b 385 18 401 18 393 18 b 569 203 478 36 540 117 b 532 514 603 303 594 426 b 390 604 499 561 446 593 b 568 513 458 604 528 571 b 604 204 625 431 639 310 z "},"c":{"ha":590,"x_min":0,"x_max":0,"o":"m 338 344 b 347 306 318 331 331 315 b 413 290 365 294 390 289 b 471 288 432 285 453 283 b 571 403 528 303 553 354 b 536 560 592 463 581 514 b 300 631 478 621 386 646 b 163 589 251 629 203 615 b 22 267 54 518 19 390 b 197 -47 25 138 63 0 b 272 -60 222 -56 247 -60 b 314 -64 286 -62 300 -64 b 442 -24 360 -64 404 -50 b 531 153 499 17 531 81 b 440 208 531 189 478 208 b 411 204 429 208 419 207 b 353 176 381 207 353 199 b 299 53 353 129 342 78 b 299 53 299 53 299 53 b 258 89 281 60 267 76 b 239 389 208 167 211 301 b 367 519 257 443 306 513 b 344 344 438 494 390 376 z m 490 153 b 435 200 490 176 464 193 b 443 200 438 200 440 200 b 526 153 482 200 526 181 b 442 -18 526 83 496 21 b 322 -56 407 -43 365 -56 b 492 153 417 -37 492 43 z m 233 390 b 253 83 204 299 201 164 b 289 46 264 65 276 53 b 217 85 260 36 233 58 b 197 386 165 164 169 299 b 350 521 217 449 276 529 b 232 389 293 504 249 440 z m 364 625 b 538 553 429 624 493 599 b 569 404 579 508 590 460 b 474 294 551 356 528 308 b 442 293 464 292 453 292 b 533 404 493 308 517 356 b 500 557 554 463 543 513 b 363 626 463 594 414 618 z "},"d":{"ha":615,"x_min":0,"x_max":0,"o":"m 606 736 b 514 938 603 811 590 901 b 433 946 492 947 458 954 b 429 946 432 946 431 946 b 393 944 417 947 404 947 b 378 910 378 939 363 925 b 408 678 428 856 415 746 b 390 557 404 638 397 597 b 365 564 382 560 374 563 b 268 565 332 571 299 571 b 39 399 165 564 81 497 b 82 71 -6 293 3 158 b 229 6 119 29 174 6 b 283 1 247 1 265 0 b 367 29 314 4 342 13 b 400 -28 374 8 383 -11 b 476 -53 419 -46 450 -54 b 508 -57 486 -56 497 -57 b 529 -56 515 -57 522 -57 b 574 -26 542 -53 565 -43 b 575 -1 578 -18 578 -10 b 557 185 551 56 554 121 b 560 236 558 201 560 219 b 581 494 561 336 568 418 l 585 519 b 606 733 596 589 608 661 z m 226 85 b 156 138 193 79 169 111 b 149 363 118 206 118 292 b 301 486 175 424 228 493 b 186 363 249 471 208 417 b 193 135 154 289 157 201 b 235 85 199 124 213 97 b 226 83 232 83 229 83 z m 285 6 b 268 6 279 6 274 6 b 363 57 306 14 336 32 b 367 35 364 49 365 42 b 285 6 342 18 315 8 z m 369 422 b 361 175 361 340 363 257 b 361 154 361 168 361 161 b 322 146 344 156 329 153 b 246 88 303 126 275 100 b 199 136 229 93 214 110 b 190 357 163 200 160 285 b 321 479 215 415 261 474 b 371 438 346 472 361 457 b 371 421 371 432 371 426 z m 388 533 b 325 554 368 543 347 550 b 317 554 322 554 319 554 b 363 550 332 554 347 553 b 388 543 371 549 379 546 b 388 531 388 539 388 535 z m 578 514 l 574 489 b 553 229 561 411 554 329 b 550 178 553 213 551 196 b 569 -11 547 114 544 47 b 569 -28 572 -17 572 -22 b 529 -53 563 -40 542 -50 b 500 -53 519 -54 510 -54 b 535 -8 519 -46 543 -29 b 519 231 504 65 518 153 b 540 490 521 318 526 404 b 565 729 553 569 568 649 b 475 926 563 804 550 892 b 453 935 468 929 461 932 b 514 922 474 936 497 931 b 601 728 586 888 599 800 b 582 514 604 656 593 583 z "},"e":{"ha":561,"x_min":0,"x_max":0,"o":"m 550 193 b 447 204 528 207 472 214 b 401 196 426 206 408 203 b 281 79 361 154 335 106 b 268 75 276 78 272 76 b 264 75 267 75 265 75 b 224 117 249 81 235 94 b 201 197 213 139 206 165 b 450 406 314 224 407 301 b 456 565 465 442 486 510 b 279 635 422 626 340 644 b 271 635 276 635 274 635 b 242 632 261 635 251 633 b 25 347 110 611 38 468 b 161 11 11 222 26 63 b 247 -7 189 0 218 -6 b 296 -11 263 -10 279 -11 b 564 165 408 -11 519 57 b 554 190 567 171 568 181 z m 307 513 b 297 450 307 492 303 471 b 203 307 281 394 247 344 b 238 449 207 363 218 410 b 303 531 254 481 275 507 b 306 514 304 525 306 519 z m 158 279 b 194 451 160 338 168 399 b 296 558 218 499 251 531 b 296 554 296 557 296 556 b 299 538 296 549 297 543 b 228 451 268 514 246 486 b 192 300 207 410 194 360 b 156 276 181 292 168 283 b 156 281 156 278 156 279 z m 181 117 b 158 203 168 143 161 172 b 158 203 158 203 158 203 b 407 408 269 228 363 303 b 411 564 426 456 438 517 b 313 629 392 600 353 621 b 449 563 365 629 422 610 b 444 410 478 510 458 444 b 197 206 401 307 310 231 l 193 204 l 193 200 b 215 113 197 165 204 136 b 256 68 226 90 240 75 b 179 114 222 61 197 76 z m 553 168 b 299 -4 510 64 406 -1 b 517 165 393 11 479 74 b 474 197 522 181 500 192 b 544 181 497 197 528 192 b 551 167 556 174 553 168 z "},"f":{"ha":514,"x_min":0,"x_max":0,"o":"m 206 -325 b 206 -325 206 -325 206 -325 b 206 -325 206 -325 206 -325 z m 492 583 b 329 669 461 633 397 667 b 282 665 313 669 297 668 b 79 517 189 665 115 599 b 44 -78 -3 332 29 117 b 58 -228 49 -128 53 -178 b 81 -321 61 -257 63 -297 b 165 -349 93 -337 133 -351 b 199 -353 176 -351 188 -353 b 213 -351 204 -353 208 -353 b 247 -328 229 -349 242 -340 l 247 -328 l 249 -325 l 246 -324 l 249 -324 b 249 -315 249 -322 249 -318 b 249 -301 249 -310 249 -304 b 247 -243 249 -282 249 -262 b 240 -158 246 -215 243 -186 b 236 -108 239 -142 238 -125 b 221 118 229 -22 224 50 b 294 133 244 124 269 129 b 343 136 310 136 326 136 b 419 146 368 138 394 139 b 439 165 436 150 439 160 b 417 193 439 176 431 188 b 289 203 376 211 335 210 b 219 193 265 201 242 197 b 219 222 219 203 219 213 b 281 503 217 336 238 431 b 339 564 296 528 317 550 b 343 551 340 560 342 556 b 342 464 353 522 349 493 b 422 429 336 443 386 428 b 499 442 453 422 490 424 b 493 575 526 501 511 547 z m 414 179 b 431 160 424 175 431 167 b 418 147 431 153 424 149 b 357 139 399 142 378 140 b 378 144 364 140 371 142 b 375 185 404 153 396 176 b 342 194 364 189 353 192 b 413 181 367 194 390 190 z m 254 131 b 288 133 265 132 276 133 b 218 118 264 129 240 124 l 215 117 l 215 114 b 231 -117 218 44 224 -29 b 235 -167 232 -133 233 -150 b 242 -251 238 -194 240 -224 b 243 -310 243 -271 243 -290 b 243 -322 243 -312 243 -318 b 243 -331 243 -326 243 -329 b 213 -349 238 -343 224 -347 b 188 -349 204 -350 196 -350 b 207 -329 197 -344 204 -339 b 210 -306 207 -329 210 -312 b 208 -247 210 -286 210 -267 b 196 -110 206 -201 200 -156 b 179 119 189 -33 183 43 b 256 136 204 126 229 132 z m 274 510 b 213 225 231 436 210 340 b 213 192 213 214 213 203 b 179 183 201 189 190 186 b 179 221 179 196 179 208 b 242 503 178 317 192 419 b 329 581 263 539 297 571 b 329 581 324 579 332 578 b 338 568 332 576 335 572 b 278 503 315 553 293 529 z m 496 443 b 449 432 492 433 471 431 b 460 442 454 435 458 438 b 329 653 508 549 429 633 b 333 653 331 653 332 653 b 490 572 400 651 461 619 b 494 444 514 535 515 490 z "},"g":{"ha":644,"x_min":0,"x_max":0,"o":"m 619 403 b 606 428 615 411 611 419 b 551 600 594 489 576 547 b 457 625 539 626 481 636 b 457 625 457 625 457 625 b 411 601 429 628 403 621 b 429 551 418 585 424 568 b 357 567 406 558 381 564 b 279 564 331 569 304 568 b 53 414 181 561 99 506 b 254 -53 -33 242 29 -47 b 313 -56 272 -56 292 -57 b 407 -35 346 -54 378 -47 b 319 -217 386 -99 358 -161 b 200 -308 292 -256 249 -296 b 167 -300 189 -307 178 -304 b 108 -299 150 -293 125 -292 b 64 -306 93 -296 75 -297 b 67 -343 51 -315 53 -333 b 199 -389 108 -372 150 -389 b 236 -393 211 -392 224 -393 b 265 -390 246 -393 256 -392 b 396 -333 313 -383 357 -364 b 554 -67 481 -264 525 -154 b 607 382 606 88 624 243 b 613 401 614 386 617 393 z m 122 -304 b 122 -304 122 -304 122 -304 b 135 -304 126 -304 131 -304 b 164 -308 146 -304 157 -306 b 176 -312 168 -310 172 -311 b 126 -304 160 -314 143 -311 z m 354 558 b 431 542 379 556 406 550 b 435 529 432 538 433 533 b 333 560 401 544 367 554 b 354 558 340 560 347 560 z m 239 44 b 179 124 210 50 189 99 b 160 239 165 160 158 200 b 265 456 163 317 194 413 b 325 471 286 468 306 472 b 300 461 317 468 308 465 b 193 240 225 415 196 314 b 213 124 192 201 199 160 b 264 47 224 96 240 60 b 239 47 256 46 247 46 z m 278 51 b 222 126 250 58 229 110 b 203 240 208 163 201 203 b 306 454 206 311 233 410 b 343 468 318 463 331 467 b 457 404 383 457 421 426 b 453 201 464 338 461 269 b 410 189 433 201 417 197 b 276 49 381 151 332 69 z m 308 -47 b 304 -47 307 -47 306 -47 b 414 0 346 -40 382 -24 b 406 -25 411 -8 408 -17 b 307 -49 375 -39 342 -47 z m 600 382 b 547 -67 617 243 599 88 b 390 -331 518 -154 474 -262 b 264 -387 353 -361 310 -381 b 235 -389 254 -389 244 -389 b 353 -333 278 -381 318 -361 b 510 -68 433 -268 478 -164 b 563 383 557 74 581 232 b 568 400 569 386 572 392 b 554 425 564 408 560 417 b 503 599 544 485 528 543 b 468 621 499 608 485 617 b 539 597 493 624 531 614 b 592 425 563 544 581 486 l 592 424 b 604 399 597 415 601 407 b 600 386 607 393 606 389 l 597 385 z "},"h":{"ha":592,"x_min":0,"x_max":0,"o":"m 556 35 b 542 188 543 88 539 136 b 551 283 543 219 547 251 b 560 367 554 311 557 339 b 456 631 567 453 579 613 b 404 628 438 633 421 632 b 288 563 354 631 314 606 b 249 493 274 540 261 517 b 260 550 251 511 256 531 b 203 931 285 681 315 843 b 122 950 183 946 150 954 b 108 947 119 950 114 949 b 85 947 100 949 92 949 b 49 917 72 946 38 936 b 82 683 90 840 96 769 b 43 447 69 604 53 526 b 32 215 33 371 29 293 b 88 -15 35 142 39 43 b 161 -46 104 -36 135 -46 b 171 -46 164 -46 167 -46 b 200 -50 181 -49 190 -50 b 200 -50 200 -50 200 -50 b 253 -35 214 -50 240 -47 b 260 -19 257 -31 260 -25 b 256 36 260 -3 258 15 b 319 329 249 136 282 232 b 385 475 339 381 361 429 l 386 479 b 404 513 392 490 397 501 b 404 513 404 513 404 513 b 406 425 407 483 407 454 b 390 283 403 378 396 331 b 408 1 379 190 371 90 b 478 -29 418 -22 450 -33 b 525 -32 493 -35 510 -36 b 564 14 551 -26 565 -8 b 560 31 564 19 563 25 b 557 35 560 32 558 33 z m 161 928 b 129 943 153 935 142 940 b 138 943 132 943 135 943 b 199 925 160 943 183 936 b 251 550 307 840 276 679 b 239 475 246 524 242 499 b 239 471 239 474 239 472 b 210 404 229 449 219 426 b 192 358 203 389 197 374 b 206 474 194 397 200 436 b 163 925 225 610 296 822 z m 381 478 l 379 474 b 314 328 356 428 333 379 b 249 31 275 229 242 133 b 253 -25 251 10 253 -8 b 249 -35 253 -29 251 -32 b 200 -47 239 -44 214 -47 b 192 -47 197 -47 194 -47 b 215 -25 204 -43 215 -36 b 211 29 215 -7 214 11 b 276 325 204 132 239 231 b 343 471 296 375 318 424 b 379 538 354 493 365 517 b 394 560 383 544 389 553 b 403 521 396 547 400 533 b 379 479 394 507 386 493 z m 522 -28 b 493 -29 513 -31 503 -31 b 519 11 510 -22 521 -10 b 515 28 519 17 518 22 b 513 32 515 29 514 31 b 497 188 500 83 494 133 b 515 367 501 247 511 307 b 426 624 522 453 532 597 b 451 622 435 624 443 624 b 550 368 568 606 557 457 b 542 285 547 340 544 313 b 532 188 538 253 533 219 b 546 32 529 136 533 86 l 546 31 b 546 26 546 29 546 28 b 550 13 549 22 550 18 b 518 -26 551 -15 528 -24 z "},"i":{"ha":249,"x_min":0,"x_max":0,"o":"m 211 240 b 217 354 214 278 217 317 l 217 361 b 106 611 215 451 214 588 b 63 608 101 613 78 614 b 15 588 49 610 3 608 b 54 296 67 501 60 393 b 64 1 49 201 24 92 b 138 -26 74 -19 108 -29 b 168 -31 147 -29 158 -31 b 196 -26 178 -31 188 -29 b 219 17 217 -18 225 -3 b 211 244 199 90 206 168 z m 193 -18 b 156 -22 182 -22 168 -24 b 178 15 172 -17 183 -4 b 175 360 146 126 176 246 b 82 608 174 444 175 576 b 97 608 88 608 93 608 b 106 608 101 608 104 608 b 210 367 207 586 208 454 l 210 360 b 204 246 210 322 207 283 b 213 15 199 169 192 90 b 193 -19 218 -6 206 -15 z m 117 674 b 121 674 118 674 119 674 b 150 669 131 671 140 669 b 154 669 151 669 153 669 b 218 699 172 671 204 679 b 222 731 225 708 226 719 b 210 814 214 758 210 785 b 142 879 210 851 175 874 b 90 878 126 882 107 882 b 21 843 64 879 25 874 b 28 731 15 806 19 767 b 115 676 36 694 81 675 z m 124 874 b 142 874 131 874 138 874 b 203 818 172 869 203 850 b 215 733 203 789 207 761 b 211 708 218 724 217 715 b 154 682 200 693 174 683 b 139 682 150 682 144 682 b 181 733 164 689 189 706 b 168 818 172 761 168 789 b 118 875 168 847 144 867 b 126 875 121 875 124 875 z "},"j":{"ha":254,"x_min":0,"x_max":0,"o":"m 131 693 b 135 693 132 693 133 693 b 164 689 144 690 154 689 b 168 689 165 689 167 689 b 231 717 190 690 218 699 b 238 750 238 726 240 738 b 233 763 236 754 235 758 b 231 783 232 769 231 776 b 231 804 231 790 231 797 b 229 832 231 813 231 822 b 164 878 225 860 183 875 b 110 875 157 879 131 882 b 50 856 88 876 58 874 b 42 747 35 822 36 783 b 131 693 47 711 99 692 z m 142 874 b 163 872 150 874 157 874 b 222 833 182 869 219 856 b 224 808 224 825 224 817 b 225 788 224 801 224 794 b 228 767 225 781 226 774 b 232 754 229 763 231 758 b 228 726 235 744 233 735 b 171 701 217 711 190 703 b 157 701 167 701 163 701 b 196 753 181 708 203 725 b 192 765 194 757 193 761 b 189 786 190 772 189 779 b 186 836 188 803 189 819 b 135 876 183 857 156 871 b 139 876 136 876 138 876 z m 239 613 b 158 654 233 636 193 661 b 106 654 140 651 124 653 b 89 654 100 654 94 654 b 61 649 78 654 68 653 b 49 649 57 649 53 649 b 28 603 13 651 -7 624 b 53 590 36 597 44 593 b 35 433 33 542 35 475 b 44 133 36 333 49 233 b -104 -272 40 25 33 -236 b -121 -271 -110 -272 -115 -272 b -164 -274 -126 -269 -147 -267 b -217 -290 -181 -272 -207 -274 b -199 -333 -226 -307 -214 -325 b -106 -356 -169 -349 -137 -356 b -64 -360 -92 -358 -78 -360 b 85 -300 -11 -360 42 -339 b 190 -50 156 -236 178 -137 b 201 276 204 53 208 163 b 197 318 200 290 199 304 b 193 442 194 358 192 400 b 197 514 193 468 194 492 l 197 518 b 204 557 199 531 200 544 b 207 564 204 558 206 561 b 211 575 210 568 211 572 b 238 610 239 586 239 603 z m 201 579 b 201 579 201 579 201 579 l 204 572 b 203 568 204 571 203 569 b 199 560 201 565 200 563 b 192 521 194 547 193 533 l 192 517 b 188 443 189 494 188 471 b 192 319 186 401 189 360 b 196 278 193 306 194 292 b 185 -47 203 165 199 56 b 81 -293 172 -133 150 -231 b -64 -350 39 -331 -12 -350 b 43 -297 -25 -343 13 -325 b 147 -49 113 -235 135 -137 b 160 276 163 60 165 168 b 153 443 157 332 151 388 b 157 517 153 468 154 493 b 164 560 158 531 160 546 b 165 578 167 568 178 582 b 157 647 219 594 194 633 b 161 647 158 647 160 647 b 232 610 192 653 228 631 b 204 579 235 597 225 586 z "},"k":{"ha":633,"x_min":0,"x_max":0,"o":"m 631 622 b 506 651 594 656 550 661 b 300 558 432 653 351 600 b 263 526 288 549 275 538 b 267 551 264 535 265 543 b 217 932 290 682 317 831 b 133 963 196 953 165 964 b 110 958 129 963 119 961 b 93 958 104 958 99 958 b 49 925 79 957 36 949 b 88 711 82 857 96 788 b 46 463 79 628 57 546 b 29 218 35 382 29 300 b 76 -18 29 147 19 35 b 160 -43 93 -33 129 -44 b 233 -39 185 -49 214 -49 b 256 11 246 -32 260 -18 b 244 60 253 28 249 44 b 232 119 239 79 233 99 b 231 242 228 161 229 203 b 231 279 231 254 231 267 b 231 279 231 279 231 279 b 317 172 268 254 296 214 b 363 71 333 139 347 104 b 414 -32 376 39 389 -7 b 485 -51 426 -44 458 -54 b 515 -56 494 -54 506 -56 b 542 -51 525 -56 535 -54 b 565 -18 557 -46 565 -35 b 550 32 565 0 557 17 b 546 40 549 35 547 38 l 543 47 b 508 122 532 72 521 97 l 504 132 b 431 258 483 175 461 219 b 296 349 397 300 350 332 b 317 374 303 357 310 365 b 385 454 338 401 360 429 b 475 529 414 483 444 508 b 529 560 493 542 511 551 b 538 564 532 561 535 563 b 571 576 547 569 564 579 b 640 590 586 572 631 572 b 629 619 644 599 640 608 z m 236 56 b 247 8 240 40 244 25 b 229 -33 250 -11 244 -25 b 183 -40 217 -40 200 -42 b 211 8 203 -33 215 -18 b 189 115 206 44 192 78 b 189 240 186 157 188 199 b 189 282 189 254 189 268 b 206 294 194 286 200 290 b 226 283 213 292 219 288 l 225 282 l 225 281 b 225 239 225 267 225 253 b 226 115 224 199 222 157 b 239 54 228 94 233 74 z m 211 472 b 215 493 213 479 214 486 b 176 926 238 632 289 813 b 135 951 165 939 150 947 b 138 951 136 951 138 951 b 214 924 168 953 196 943 b 261 549 311 825 285 678 b 256 514 258 536 257 525 b 214 474 242 501 228 488 z m 538 572 b 531 568 535 571 532 569 b 476 536 513 560 494 549 b 386 461 446 515 415 490 b 317 381 361 436 339 408 b 292 350 308 369 300 360 l 288 346 l 293 344 b 431 254 349 328 396 297 b 503 129 461 217 482 172 l 507 119 b 542 44 519 94 531 69 l 544 38 b 549 29 546 35 547 32 b 563 -17 556 14 563 -1 b 544 -42 563 -29 557 -37 b 508 -44 535 -46 521 -46 b 528 -14 519 -39 528 -29 b 508 42 528 6 517 24 b 471 124 496 69 483 97 b 393 258 449 171 426 218 b 254 350 357 304 308 335 b 349 461 285 388 314 428 b 439 536 376 489 407 514 b 493 569 456 549 474 560 b 538 588 503 575 526 590 b 551 585 542 586 546 585 b 539 576 547 582 543 579 z m 640 599 b 592 586 635 589 610 585 b 594 619 607 592 614 601 b 542 649 578 635 560 644 b 631 618 574 650 604 642 b 640 599 636 613 643 604 z "},"l":{"ha":283,"x_min":0,"x_max":0,"o":"m 240 88 b 233 217 236 129 233 172 b 250 483 232 306 240 393 b 258 740 258 569 265 654 b 158 954 253 818 236 913 b 83 964 138 965 107 969 b 76 961 83 964 81 963 b 46 961 65 963 56 963 b 17 932 35 958 7 949 b 42 451 97 786 60 608 b 29 206 32 369 28 288 b 75 -12 31 136 22 42 b 150 -39 94 -33 122 -40 b 179 -43 160 -42 169 -43 b 222 -36 194 -43 210 -40 l 226 -35 b 254 -6 238 -31 254 -19 b 246 51 254 14 250 33 b 239 92 243 64 240 78 z m 225 -25 l 221 -26 b 174 -32 207 -31 190 -33 b 182 -28 176 -31 179 -29 b 186 -28 183 -28 185 -28 b 210 -4 194 -25 210 -15 b 194 90 211 28 197 58 b 188 219 190 133 188 176 b 203 486 186 308 194 397 b 211 742 211 571 218 656 b 114 951 206 819 189 911 b 94 958 108 954 101 957 b 103 958 97 958 100 958 b 151 947 119 958 138 954 b 247 740 225 908 242 821 b 239 485 254 656 247 571 b 222 218 229 394 221 307 b 229 89 222 174 225 131 b 236 47 231 75 233 61 b 244 -7 240 29 244 11 b 222 -26 244 -15 232 -24 z "},"m":{"ha":860,"x_min":0,"x_max":0,"o":"m 838 543 b 831 567 839 551 836 560 b 771 594 819 581 797 590 b 757 600 765 597 760 599 b 689 601 743 604 713 611 b 640 592 671 603 653 601 b 499 447 588 549 540 500 b 479 556 500 485 496 522 b 436 583 472 569 453 579 b 351 599 419 600 369 611 b 351 599 351 599 351 599 b 315 596 336 601 322 601 b 225 514 282 572 251 544 b 126 596 201 557 168 585 b 60 599 108 601 82 607 b 19 593 46 600 32 599 b 7 558 6 586 -6 572 b 75 311 67 494 76 394 b 67 165 74 263 69 214 b 69 17 64 118 57 63 b 168 -39 79 -21 128 -42 b 215 -42 183 -43 200 -44 b 268 14 250 -37 269 -17 b 268 25 268 18 268 22 b 268 42 268 31 268 36 b 268 71 268 51 268 61 b 271 154 268 99 269 126 l 271 160 b 275 328 274 214 276 271 l 275 335 b 279 351 276 340 278 346 b 342 471 293 394 314 435 b 318 285 338 408 324 347 b 322 29 310 200 310 113 b 396 -12 326 -1 364 -17 b 408 -17 400 -14 404 -15 b 472 4 431 -21 458 -15 b 478 13 475 4 476 7 b 481 25 481 17 482 21 b 481 32 481 28 481 31 b 492 47 486 36 490 42 b 625 374 513 165 558 276 b 614 249 621 332 617 290 b 614 86 611 194 611 140 b 640 -71 617 39 615 -31 b 735 -107 654 -93 699 -108 b 768 -111 746 -110 757 -111 b 800 -107 779 -111 790 -110 b 831 -58 822 -99 833 -82 b 831 -49 831 -54 831 -50 b 826 -28 829 -42 828 -35 b 822 -15 825 -24 824 -19 b 813 65 818 11 815 38 b 811 228 808 114 808 165 b 836 538 815 314 821 426 z m 90 589 b 82 590 88 590 85 590 b 128 583 99 592 115 588 b 224 504 168 572 200 546 b 203 475 217 494 210 485 b 90 588 182 528 147 572 z m 342 479 b 271 349 310 440 286 396 b 267 332 269 343 268 338 l 267 331 l 267 322 b 263 157 268 267 265 211 l 263 151 b 260 67 261 124 260 94 b 260 38 260 57 260 47 b 260 21 260 32 260 26 b 260 10 260 18 260 14 b 214 -36 261 -26 228 -35 b 189 -36 206 -37 197 -37 b 224 11 210 -29 225 -14 b 224 22 224 15 224 19 b 221 68 222 38 221 53 b 222 160 219 99 221 129 b 226 326 225 215 228 271 b 226 335 226 329 226 332 b 231 351 228 340 229 346 b 338 521 251 417 289 475 b 338 483 338 508 338 496 z m 393 581 b 364 597 388 588 376 593 b 431 579 383 601 419 592 l 432 578 l 433 578 b 472 553 453 572 468 563 b 489 436 489 518 492 476 b 446 375 474 417 460 396 b 435 556 456 438 461 503 b 392 582 429 567 411 576 z m 628 422 b 624 393 626 413 625 403 b 479 51 551 292 501 175 b 469 42 478 47 475 44 l 467 40 l 467 38 b 467 28 467 33 467 31 l 467 28 l 467 28 b 467 24 467 26 467 25 l 463 15 b 404 -7 453 -4 425 -10 b 426 14 414 -3 422 4 b 429 17 425 8 426 10 b 429 29 431 21 431 25 b 429 38 429 32 429 35 b 440 50 435 40 439 44 b 625 446 467 197 531 333 b 621 425 624 439 622 432 z m 793 71 b 803 -11 796 43 799 15 b 807 -28 804 -17 806 -22 b 811 -49 808 -35 810 -42 b 811 -60 811 -51 811 -56 b 788 -99 814 -79 806 -92 b 749 -103 776 -103 763 -104 b 776 -58 767 -96 779 -82 b 776 -47 776 -54 776 -50 b 771 -10 775 -35 772 -22 b 761 69 767 17 764 43 b 760 232 757 124 757 178 b 785 543 764 335 771 440 b 724 592 789 569 757 588 b 710 596 718 594 713 596 b 701 600 707 597 704 599 b 746 593 719 601 739 596 b 758 589 747 593 753 592 l 760 589 b 814 564 783 586 804 576 b 818 544 818 558 819 551 b 793 233 803 433 797 319 b 794 69 790 171 790 118 z "},"n":{"ha":640,"x_min":0,"x_max":0,"o":"m 589 258 b 600 390 592 303 596 347 l 603 421 b 607 446 604 429 606 438 b 613 500 608 464 610 482 b 617 517 614 506 615 511 b 618 565 619 533 624 550 b 568 589 613 581 588 588 b 551 596 561 593 554 596 b 496 594 540 599 515 604 b 451 589 481 597 464 597 b 265 413 381 539 318 479 b 131 599 250 493 214 576 b 64 601 113 604 86 610 b 24 596 50 603 36 601 b 11 561 10 589 -1 575 b 79 314 71 497 81 397 b 71 168 78 265 74 217 b 74 19 68 121 61 65 b 172 -36 83 -18 132 -39 b 219 -39 188 -40 204 -42 b 272 17 254 -35 274 -14 b 272 28 272 21 272 25 b 272 44 272 33 272 39 b 272 74 272 54 272 64 b 275 157 272 101 274 129 l 276 179 b 458 460 317 282 379 378 b 458 456 458 458 458 457 b 439 276 450 396 443 336 b 436 101 435 218 433 160 b 464 -60 439 53 439 -17 b 539 -89 475 -79 511 -93 b 568 -93 549 -92 558 -93 b 581 -92 572 -93 576 -93 b 615 -61 600 -89 613 -78 l 622 -68 l 617 -51 b 594 263 586 47 588 158 z m 96 599 b 88 600 93 600 90 600 b 133 593 104 601 121 597 b 264 407 215 571 250 486 b 235 365 254 393 244 379 b 97 596 226 458 194 569 z m 461 469 b 269 181 376 386 311 288 l 268 157 b 265 72 267 129 265 100 b 265 43 265 63 265 53 b 265 26 265 38 265 32 b 265 15 265 24 265 19 b 219 -31 267 -21 233 -29 b 194 -31 211 -32 203 -32 b 229 17 215 -24 231 -8 b 229 28 229 21 229 25 b 226 74 228 43 226 58 b 228 165 225 104 226 135 b 228 182 228 171 228 176 b 458 507 276 307 357 418 b 454 471 457 494 456 482 z m 603 -60 b 575 -85 600 -78 586 -83 b 550 -85 567 -86 558 -86 b 568 -60 560 -81 567 -72 b 568 -51 568 -57 568 -54 b 568 -51 568 -51 568 -51 b 546 264 536 49 539 161 b 561 426 550 318 556 372 b 568 501 564 451 565 476 b 574 564 571 522 581 544 b 526 586 569 576 547 585 b 510 594 519 590 513 593 b 546 590 524 597 539 593 b 561 583 547 590 554 588 l 563 583 b 607 564 582 582 603 575 b 607 519 613 550 610 535 b 603 503 606 514 604 508 b 597 449 600 485 599 467 b 593 424 596 440 594 432 l 590 393 b 579 261 586 350 582 306 b 600 -49 572 158 571 50 l 601 -54 b 601 -62 601 -57 601 -60 z "},"o":{"ha":567,"x_min":0,"x_max":0,"o":"m 413 626 b 269 644 372 644 318 654 b 167 611 232 644 194 635 b 150 440 117 569 115 492 b 219 411 164 419 196 413 b 231 411 222 411 226 411 b 257 407 240 408 250 407 b 306 419 261 407 296 406 b 307 435 308 422 310 428 b 311 560 285 492 286 532 b 324 569 315 564 319 567 b 353 526 335 560 344 543 b 356 214 396 436 382 308 b 285 82 342 165 319 119 b 254 57 275 72 265 64 b 246 65 251 60 249 63 b 200 197 222 94 207 138 b 196 276 197 221 196 246 b 196 315 196 290 196 303 b 196 332 196 321 196 326 b 197 338 197 335 197 336 b 219 356 204 340 217 346 b 211 372 221 361 218 367 b 96 401 179 400 131 413 b 15 340 57 406 21 389 b 25 143 8 276 7 206 b 246 -29 53 44 146 -29 b 288 -33 260 -32 274 -33 b 369 -15 315 -33 343 -28 b 542 301 513 49 538 243 b 410 635 550 415 546 574 z m 226 47 b 222 47 225 47 224 47 b 222 47 222 47 222 47 b 203 65 215 53 208 58 b 156 199 172 101 161 153 b 151 278 153 225 151 251 b 151 315 151 290 151 303 b 151 332 151 321 151 326 b 153 340 153 336 153 339 b 168 369 168 344 185 356 b 117 397 154 382 136 392 b 125 397 119 397 122 397 b 206 367 153 397 183 386 b 211 357 210 363 211 360 b 192 344 210 353 203 347 l 189 343 l 189 340 b 188 335 189 340 189 339 l 188 333 b 188 317 188 328 188 322 b 188 278 188 304 188 292 b 192 199 188 247 189 222 b 239 63 199 138 214 93 b 247 54 242 60 244 57 b 229 46 242 51 236 49 z m 307 569 b 303 436 281 539 279 496 b 301 428 304 432 303 429 b 258 419 296 419 272 418 b 254 419 257 419 256 419 b 264 438 263 422 268 428 b 268 567 249 478 236 529 b 314 579 285 586 300 588 b 306 569 311 576 308 574 z m 535 300 b 367 -8 531 243 506 53 b 288 -25 342 -19 315 -25 b 329 -12 301 -22 315 -18 b 499 301 444 39 490 185 b 369 631 508 425 499 572 b 311 649 351 639 332 644 b 408 628 346 649 381 640 b 535 303 539 568 543 414 z "},"p":{"ha":633,"x_min":0,"x_max":0,"o":"m 601 404 b 463 544 575 471 526 521 b 321 557 417 561 368 565 b 233 539 290 556 261 550 b 199 626 228 574 217 601 b 118 654 182 649 140 654 b 93 650 118 654 106 654 b 79 650 88 650 83 650 b 38 624 68 650 25 644 b 51 392 75 558 57 464 b 33 167 46 317 39 242 b 57 -303 22 15 4 -157 b 126 -343 67 -329 101 -340 b 144 -343 131 -343 138 -343 b 165 -346 151 -344 158 -346 b 176 -346 168 -346 172 -346 b 226 -332 192 -346 215 -343 b 233 -315 231 -328 233 -322 b 226 -229 232 -286 229 -257 b 218 -67 222 -176 218 -121 b 218 -46 218 -60 218 -53 b 449 24 311 -61 410 -3 b 593 178 494 54 557 106 b 603 406 628 247 632 332 z m 156 626 b 117 649 147 638 132 644 b 118 649 117 649 118 649 b 122 649 119 649 121 649 b 192 624 142 649 178 643 b 226 539 210 600 221 572 b 193 524 215 535 204 529 b 156 626 189 560 179 594 z m 219 -231 b 226 -317 222 -258 225 -287 b 222 -326 226 -321 225 -324 b 169 -336 213 -336 185 -337 b 190 -314 182 -332 192 -325 b 175 -64 185 -231 175 -147 b 175 -39 175 -56 175 -47 b 211 -43 186 -42 199 -43 b 211 -68 211 -51 211 -60 b 219 -231 211 -122 215 -178 z m 213 33 b 175 24 200 31 188 28 b 182 178 176 75 179 126 b 194 419 188 258 193 339 b 194 424 194 421 194 422 b 207 431 200 425 204 428 b 349 501 244 474 299 504 b 243 433 311 492 274 468 b 232 428 240 431 236 429 l 229 426 l 229 419 b 219 190 229 343 224 265 l 218 179 b 211 33 215 135 213 83 z m 228 179 l 229 190 b 239 419 233 265 239 343 l 239 421 b 250 428 243 422 247 425 b 372 496 285 468 331 493 b 436 443 396 489 418 472 b 468 279 465 396 476 333 b 343 94 456 203 403 140 b 283 56 324 81 304 67 b 218 32 263 44 240 38 b 225 176 219 82 222 132 z m 582 179 b 440 26 546 108 485 57 b 249 -44 414 8 331 -43 b 401 22 304 -35 360 -7 b 544 176 458 61 513 114 b 418 540 610 307 561 486 b 369 553 403 546 386 550 b 456 535 399 551 428 546 b 589 399 517 511 564 463 b 579 176 617 326 613 243 z "},"q":{"ha":656,"x_min":0,"x_max":0,"o":"m 575 635 b 485 649 564 649 504 660 b 444 632 460 651 436 649 b 463 582 453 615 458 599 b 300 608 414 607 357 618 b 144 544 246 608 192 589 b 14 258 67 472 17 364 b 165 -15 11 150 53 22 b 232 -26 188 -22 210 -26 b 422 15 307 -42 374 -15 b 408 -181 415 -50 410 -115 b 414 -312 408 -224 406 -271 b 494 -364 422 -351 457 -367 b 524 -368 503 -367 513 -368 b 540 -367 529 -368 535 -368 b 575 -332 563 -364 576 -350 l 575 -331 b 571 -318 575 -326 574 -322 b 569 -279 574 -312 572 -300 b 569 -272 569 -276 569 -274 b 568 -207 568 -251 568 -229 b 574 -79 568 -168 569 -126 b 599 144 579 -4 589 71 b 603 186 600 158 601 172 l 606 208 b 614 267 608 228 611 247 b 617 275 615 269 617 272 b 622 347 622 299 624 324 b 626 435 625 379 626 408 b 571 635 628 496 622 574 z m 203 86 b 183 349 149 160 153 267 b 343 510 204 404 269 524 b 218 350 282 486 233 390 b 238 85 190 272 181 163 b 250 72 242 79 246 75 b 201 86 231 67 214 69 z m 421 25 b 272 -24 382 0 331 -24 b 424 53 328 -14 379 15 b 419 24 422 43 421 33 z m 443 201 b 439 201 442 201 440 201 b 388 188 417 203 396 199 b 261 76 368 164 310 97 b 246 89 256 79 250 83 b 228 347 190 165 200 272 b 357 504 243 389 294 492 b 450 297 433 475 463 371 b 457 278 449 290 451 283 b 449 203 454 253 451 228 z m 347 604 b 465 571 389 603 429 590 b 469 546 467 563 468 554 b 347 601 433 574 392 593 z m 621 432 b 617 343 621 406 619 376 b 611 272 618 319 617 296 b 608 268 611 271 610 269 l 608 267 l 608 265 b 600 207 606 246 603 226 l 597 185 b 593 143 596 171 594 157 b 568 -81 583 69 574 -6 b 563 -210 564 -128 563 -171 b 564 -275 563 -232 563 -254 b 564 -282 564 -276 564 -279 b 565 -318 567 -303 567 -315 l 561 -321 l 564 -325 b 568 -333 567 -328 568 -331 l 568 -335 b 540 -361 569 -356 547 -360 b 515 -361 532 -362 524 -362 b 532 -335 526 -357 533 -349 b 532 -335 532 -335 532 -335 b 528 -322 532 -331 531 -326 b 529 -275 535 -318 529 -282 b 528 -208 528 -253 528 -231 b 533 -79 528 -165 531 -122 b 564 188 540 10 553 99 b 575 269 568 214 572 242 b 578 276 576 271 578 274 b 583 347 583 300 585 324 b 588 435 586 376 588 406 b 533 632 589 506 579 576 b 506 643 529 636 518 640 b 569 628 528 644 563 636 b 622 432 618 568 624 492 z "},"r":{"ha":558,"x_min":0,"x_max":0,"o":"m 547 246 b 496 392 519 283 504 328 b 499 500 492 429 494 464 b 503 564 500 521 503 542 b 447 601 503 589 474 600 b 408 597 438 603 421 604 b 408 597 408 597 408 597 b 360 585 389 600 369 597 b 360 585 360 585 360 585 b 353 585 357 585 354 585 b 224 532 306 583 263 560 b 72 603 189 590 132 617 b 15 593 54 604 35 601 b 19 556 -6 585 8 564 b 40 544 25 551 32 547 b 72 413 65 513 69 446 b 72 244 76 357 74 300 b 72 69 71 186 69 128 b 117 -86 74 15 67 -51 b 179 -101 133 -97 157 -103 b 208 -106 189 -104 199 -106 b 261 -89 228 -106 247 -100 b 279 -61 272 -81 278 -71 b 275 -39 281 -54 279 -46 l 272 -21 b 271 19 274 -8 272 6 b 268 42 269 28 268 35 b 264 208 264 97 264 154 b 264 297 264 238 264 268 l 264 313 b 263 393 264 339 264 367 b 304 460 274 422 288 444 b 338 483 314 468 325 476 b 342 376 335 447 336 411 b 422 211 350 319 365 239 b 475 200 438 203 457 197 b 529 201 490 196 511 193 b 551 224 540 206 549 214 b 546 244 553 231 551 238 z m 94 596 b 103 596 97 596 100 596 b 218 525 149 596 190 571 b 193 504 210 518 201 511 b 96 594 172 550 138 583 z m 338 489 b 299 461 322 481 310 471 b 254 390 281 444 265 421 l 254 389 l 254 388 b 256 307 256 361 256 333 l 256 292 b 256 203 256 263 256 232 b 260 36 256 149 256 92 b 263 14 260 29 261 21 b 264 -24 264 1 265 -12 l 264 -24 l 265 -32 l 254 -28 l 264 -40 b 272 -64 268 -46 274 -54 b 257 -86 271 -72 265 -79 b 197 -100 242 -97 219 -101 b 219 -87 206 -97 213 -93 b 226 -36 242 -71 239 -51 b 231 -36 228 -36 229 -36 b 231 -19 231 -31 231 -25 b 225 42 232 0 226 22 b 222 296 219 126 224 211 b 219 393 222 328 222 361 b 263 463 229 419 243 444 b 340 510 286 483 313 497 b 340 493 340 504 340 499 z m 546 228 b 529 210 544 221 538 214 b 493 207 517 204 504 204 b 507 244 507 214 518 229 b 456 390 475 288 463 338 b 463 563 449 450 461 504 b 429 593 463 579 447 589 b 449 592 435 593 442 593 b 497 563 472 590 497 582 b 494 500 497 542 496 521 b 492 392 492 465 488 429 b 544 243 500 326 517 281 b 549 228 549 239 550 233 z "},"s":{"ha":615,"x_min":0,"x_max":0,"o":"m 422 250 b 303 263 385 257 344 261 b 286 263 297 263 292 263 b 232 274 267 263 244 263 b 221 363 210 293 215 338 b 265 458 228 396 242 428 b 343 529 286 488 314 513 b 390 549 360 539 375 546 b 336 365 461 499 376 406 b 374 319 317 346 361 324 b 419 314 388 315 404 313 b 497 325 439 308 474 304 b 600 485 544 365 599 421 b 496 633 601 554 547 607 b 335 657 443 661 388 667 b 82 514 236 653 140 593 b 24 339 44 464 21 401 b 144 201 26 265 76 221 b 211 190 167 194 189 192 b 303 185 242 185 272 185 b 365 183 324 185 344 185 b 406 163 382 182 401 178 b 351 81 414 135 369 97 b 201 6 310 43 257 15 b 182 11 190 6 185 7 b 182 35 179 15 179 24 b 211 68 186 47 197 60 b 215 72 213 69 214 71 b 253 69 228 69 240 68 b 319 75 275 64 301 63 b 332 96 328 81 332 88 b 304 126 331 108 317 119 b 158 147 257 150 204 157 b 67 124 126 147 94 140 b 44 -18 14 92 -8 25 b 179 -64 82 -47 129 -61 b 233 -68 197 -67 215 -68 b 465 1 319 -68 408 -36 b 581 149 547 54 586 104 b 422 250 572 213 492 236 z m 494 625 b 593 485 543 600 594 550 b 493 329 592 424 539 369 b 440 317 478 317 457 315 b 456 326 446 319 451 322 b 556 483 500 365 554 419 b 454 628 557 547 508 600 b 385 650 432 639 408 646 b 492 624 421 650 457 642 z m 188 268 b 175 361 164 289 169 335 b 219 458 182 397 197 429 b 299 531 240 486 268 513 b 354 551 315 540 335 549 b 374 553 361 553 365 554 b 376 553 375 553 376 553 b 376 553 376 553 376 553 b 335 535 363 549 349 543 b 253 461 304 517 275 490 b 207 363 229 429 214 397 b 221 265 201 336 196 288 b 236 257 225 261 231 258 b 185 268 217 257 197 257 z m 296 117 b 319 93 307 111 319 101 b 311 81 319 89 317 85 b 267 74 300 74 283 72 b 275 78 269 75 272 76 b 260 121 299 93 278 113 b 200 142 242 131 221 138 b 299 117 236 140 271 131 z m 169 1 b 138 36 144 0 129 4 b 167 74 142 51 154 65 b 185 82 172 78 178 79 b 186 82 186 82 186 82 b 186 82 186 82 186 82 b 201 75 190 79 196 76 b 172 36 190 67 176 53 b 174 6 168 22 168 13 b 178 1 175 4 176 3 b 169 1 175 1 172 1 z m 458 6 b 251 -61 401 -32 325 -57 b 421 1 314 -51 375 -28 b 535 144 464 29 542 86 b 381 242 526 211 433 232 b 331 249 364 244 347 247 b 418 236 361 246 390 242 b 569 143 485 224 563 201 b 458 3 575 101 538 54 z "},"t":{"ha":461,"x_min":0,"x_max":0,"o":"m 454 247 b 381 289 450 278 404 288 b 350 285 367 289 357 288 b 342 285 347 285 344 285 b 293 260 303 286 294 268 b 285 218 290 246 288 232 b 254 118 278 183 272 150 b 210 51 244 100 229 74 b 217 101 211 68 214 85 b 221 131 218 111 219 121 b 242 314 229 193 236 254 b 261 674 253 439 260 560 l 261 685 b 319 685 281 685 300 685 b 388 710 340 685 371 690 b 397 750 397 721 400 735 b 299 810 389 794 329 808 b 260 810 286 810 274 810 b 178 969 251 879 225 932 b 88 986 154 989 115 996 b 49 982 74 988 60 986 b 21 953 33 976 24 965 b 36 918 19 946 19 932 b 76 799 68 892 75 844 b -1 785 50 794 24 790 b -50 751 -12 782 -40 774 b -46 711 -54 743 -57 729 b 50 671 -28 682 18 669 b 75 668 58 669 67 668 b 69 547 74 628 72 588 b 28 114 61 407 47 261 b 75 -56 21 67 10 -12 b 160 -81 100 -72 129 -81 b 164 -81 161 -81 163 -81 b 200 -85 175 -83 188 -85 b 308 -50 238 -85 276 -72 b 458 257 396 13 476 144 z m 300 806 b 392 753 328 804 383 792 b 383 719 394 740 392 729 b 322 697 369 703 342 697 b 314 697 319 697 317 697 b 346 717 326 701 338 707 b 354 753 354 726 357 739 b 286 806 349 783 315 799 b 299 806 290 806 294 806 z m 75 676 b 75 676 75 676 75 676 b 75 676 75 676 75 676 z m 135 971 b 106 986 126 978 117 983 b 172 968 128 989 154 982 b 253 810 218 931 244 879 b 218 810 242 810 231 810 b 136 971 213 858 196 922 z m 172 24 b 172 32 172 26 172 29 b 169 57 171 40 169 49 b 176 108 171 74 174 92 b 181 138 178 118 179 128 b 201 319 189 199 196 260 b 221 679 213 444 219 565 l 221 694 b 256 694 233 694 244 694 l 256 679 b 236 319 254 565 247 444 b 215 136 231 260 224 199 b 211 107 214 126 213 117 b 204 56 208 90 206 72 b 204 47 204 53 204 50 b 172 21 194 36 183 26 z m 304 -44 b 200 -79 274 -67 236 -79 b 196 -79 199 -79 197 -79 b 264 -49 219 -74 243 -64 b 413 253 351 13 431 142 b 371 285 410 269 390 279 b 382 285 374 285 378 285 b 449 250 406 283 444 274 b 303 -47 467 142 389 14 z "},"u":{"ha":585,"x_min":0,"x_max":0,"o":"m 568 -18 b 546 100 554 18 550 60 b 542 121 544 107 543 114 b 531 281 535 174 531 228 b 531 344 531 300 531 321 b 546 464 542 386 547 426 b 539 476 546 468 543 472 b 554 589 543 514 549 551 b 511 624 557 607 535 619 b 464 621 494 626 476 626 b 417 606 442 624 419 619 b 394 489 407 567 400 528 b 390 479 392 486 390 483 b 299 211 372 385 351 294 b 236 129 281 183 260 154 b 233 157 235 138 233 147 b 244 293 233 203 239 249 b 256 453 251 344 258 399 b 201 597 253 525 235 572 b 85 619 169 621 124 629 b 21 607 63 621 40 617 b 31 563 -3 594 15 572 b 53 553 38 558 44 556 b 57 531 54 544 57 533 b 64 489 60 517 63 503 b 63 408 67 463 65 435 b 43 257 58 357 49 307 b 47 97 38 207 28 146 b 188 17 71 42 131 17 b 238 14 204 14 221 13 b 392 89 296 18 346 42 b 421 -29 396 49 400 3 b 485 -54 433 -49 463 -56 b 489 -54 486 -54 488 -54 b 518 -58 499 -57 508 -58 b 526 -58 521 -58 524 -58 b 568 -37 539 -57 560 -50 b 569 -18 572 -32 572 -25 z m 215 110 b 200 100 214 108 207 104 b 193 160 199 119 193 139 b 218 457 193 260 222 357 b 164 599 215 506 206 568 b 117 619 150 608 133 615 b 200 596 146 621 176 613 b 251 456 232 572 249 526 b 240 299 254 403 247 350 b 229 161 235 254 229 207 b 232 126 229 149 231 138 b 215 111 226 121 221 115 z m 240 26 b 228 26 236 26 232 26 b 389 140 296 40 347 85 b 390 119 389 133 389 126 b 390 103 390 114 390 108 b 238 25 344 54 294 29 z m 558 -33 b 524 -50 553 -43 535 -49 b 503 -49 517 -50 510 -50 b 522 -19 515 -43 528 -33 b 496 118 506 24 501 74 b 483 279 489 171 485 225 b 483 342 483 300 483 321 b 499 461 494 381 500 421 b 492 474 499 465 496 469 b 508 589 496 513 501 551 b 478 617 510 601 496 611 b 506 617 486 618 496 618 b 543 592 525 613 544 603 b 526 476 536 554 531 515 l 526 475 l 528 474 b 533 465 532 471 533 468 b 518 346 535 428 529 388 l 518 344 b 518 281 518 321 518 300 b 531 121 519 228 524 174 b 535 100 532 114 533 107 b 558 -18 539 60 543 18 b 557 -31 560 -22 560 -26 z "},"v":{"ha":622,"x_min":0,"x_max":0,"o":"m 617 576 b 574 611 618 594 596 607 b 531 608 558 614 542 614 b 482 593 508 611 486 607 b 414 293 451 496 442 392 b 381 194 404 260 393 226 b 346 358 374 244 364 301 b 122 628 313 464 246 596 b 54 629 99 633 75 638 b 13 625 40 631 25 631 b 1 590 0 619 -12 604 b 15 575 7 586 11 581 b 47 560 19 569 32 564 b 117 461 78 535 100 494 b 168 311 140 414 156 363 b 192 158 179 261 186 210 b 231 -19 199 99 203 35 b 319 -57 243 -44 285 -58 b 353 -61 331 -60 342 -61 b 382 -57 364 -61 374 -60 b 417 -6 408 -49 421 -31 b 417 -6 417 -6 417 -6 b 546 257 469 64 510 147 b 618 576 579 361 611 472 z m 301 360 b 81 625 267 468 200 594 b 72 628 78 626 75 628 b 81 628 75 628 78 628 b 121 622 93 628 107 625 b 340 360 242 592 307 463 b 376 183 360 299 369 236 b 350 121 368 163 360 142 b 342 183 347 142 344 163 b 304 360 333 243 322 303 z m 411 -3 l 410 -4 l 410 -7 b 410 -7 410 -7 410 -7 b 381 -50 414 -33 396 -44 b 343 -53 369 -53 357 -54 b 374 -6 364 -46 378 -31 b 374 -1 374 -4 374 -3 b 504 263 433 78 474 169 b 576 579 536 363 569 474 b 547 607 578 592 564 601 b 575 607 556 608 565 608 b 613 581 594 603 614 593 b 540 263 606 476 574 367 b 411 0 504 153 464 69 z "},"w":{"ha":899,"x_min":0,"x_max":0,"o":"m 860 540 b 776 567 851 561 801 574 b 768 563 774 565 771 564 b 722 543 743 567 719 563 b 715 263 739 446 746 358 b 551 31 688 174 631 82 b 543 24 549 28 546 25 b 539 31 542 25 540 28 b 518 106 525 53 521 82 b 514 157 517 121 515 138 b 532 190 521 168 526 179 b 532 203 533 194 533 199 b 508 221 529 210 521 215 b 506 292 507 246 506 269 b 506 324 506 301 506 313 b 403 571 504 415 503 529 b 347 578 388 578 364 583 b 339 574 344 576 342 575 b 308 572 328 575 317 575 b 297 553 300 569 285 563 b 364 353 364 503 364 429 b 368 215 364 307 365 261 b 247 101 331 174 296 129 b 246 114 246 107 246 111 b 246 208 243 146 244 178 b 246 242 246 219 246 231 b 249 290 246 256 247 272 b 199 600 254 392 263 531 b 96 642 174 626 139 640 b 61 636 85 642 72 640 b 57 636 60 636 58 636 b 6 610 39 636 6 633 b 40 576 6 594 24 583 b 64 471 60 550 63 499 b 60 329 65 424 61 376 b 54 183 57 281 56 232 b 68 49 53 142 47 88 b 179 -8 90 6 133 -8 b 356 21 238 -21 310 0 b 393 40 368 26 381 33 b 436 -17 401 18 415 -1 b 531 -47 464 -37 497 -47 b 568 -51 543 -50 556 -51 b 638 -37 592 -51 615 -47 b 844 204 721 -3 799 88 b 858 531 879 293 901 425 z m 208 75 b 206 75 208 75 207 75 b 201 103 204 85 201 99 b 203 229 199 144 201 188 b 89 619 206 346 240 586 b 93 619 90 619 92 619 b 189 579 133 618 165 604 b 238 276 250 513 243 376 b 235 228 236 258 235 242 b 235 194 235 217 235 206 b 235 99 233 163 232 131 b 238 83 235 96 236 90 b 207 69 228 78 218 74 z m 351 19 b 221 -12 317 4 267 -11 b 314 15 256 -7 289 4 b 383 57 338 26 361 40 b 389 40 385 51 386 46 b 351 21 376 33 364 26 z m 494 17 b 472 93 479 39 475 68 b 467 147 469 111 468 129 b 486 181 474 158 481 169 b 463 204 490 190 479 199 b 460 279 461 229 460 254 b 358 554 457 378 468 508 b 349 558 356 556 353 557 b 396 551 363 561 382 557 b 494 313 492 511 493 406 b 494 281 494 301 494 290 b 497 207 494 257 496 232 l 497 204 l 500 203 b 519 189 511 199 518 193 b 518 185 519 188 519 186 b 500 151 513 174 507 163 l 499 150 l 499 149 b 504 94 500 128 501 111 b 526 15 507 69 511 39 b 531 8 528 13 529 10 b 490 17 515 0 503 -3 z m 832 201 b 628 -37 786 86 710 -3 b 560 -51 606 -47 582 -51 b 590 -42 571 -49 581 -46 b 796 199 688 -1 758 104 b 810 522 833 296 850 424 b 776 542 806 531 792 538 b 843 519 800 546 838 533 b 828 197 885 415 863 285 z "},"x":{"ha":596,"x_min":0,"x_max":0,"o":"m 581 599 b 494 610 558 611 521 619 b 490 610 493 610 492 610 b 456 607 478 611 465 611 b 297 494 394 585 343 543 b 138 613 256 560 204 597 b 94 610 129 614 107 617 b 49 597 81 611 54 611 b 78 569 43 582 67 572 b 190 424 140 551 168 479 b 207 382 196 410 201 396 b 194 361 203 375 199 368 b 0 28 119 257 54 143 b 90 -17 -11 3 49 -18 b 167 -6 121 -24 156 -22 b 242 125 193 38 218 82 b 268 171 250 140 258 156 b 436 -72 293 72 333 -49 b 461 -71 439 -72 450 -72 b 474 -75 465 -72 469 -74 b 485 -75 475 -75 479 -75 b 528 -64 499 -75 521 -74 b 528 -49 531 -61 532 -56 b 496 -6 518 -33 507 -19 b 467 35 486 7 475 21 b 431 119 453 58 442 85 b 403 217 419 151 411 185 b 371 322 393 251 383 288 l 368 331 b 589 543 429 421 499 508 b 603 558 600 547 603 554 b 581 589 604 571 589 585 z m 233 124 b 158 -7 210 81 185 36 b 111 -18 153 -17 133 -19 b 124 -8 117 -15 121 -12 b 254 221 169 67 210 144 b 254 221 254 221 254 221 b 264 179 257 208 260 194 b 233 125 253 161 243 143 z m 272 458 b 111 599 238 524 189 578 b 139 597 121 600 132 599 b 294 482 204 583 254 546 b 274 457 288 474 281 465 z m 589 550 b 363 333 496 515 425 425 l 361 332 l 365 319 b 397 214 378 285 388 249 b 425 117 406 182 414 149 b 463 31 436 82 449 54 b 493 -12 471 15 482 1 b 524 -56 504 -26 515 -40 b 524 -62 526 -60 525 -61 b 478 -71 518 -71 488 -72 b 486 -54 486 -68 492 -62 b 425 32 468 -24 443 1 b 388 117 408 58 397 88 b 328 322 365 185 351 254 b 324 335 326 326 325 331 b 549 550 382 419 453 514 b 539 590 574 560 551 583 b 511 601 531 594 521 599 b 576 588 533 604 560 597 b 596 563 585 582 596 571 b 588 554 596 561 596 557 z "},"y":{"ha":624,"x_min":0,"x_max":0,"o":"m 550 663 b 514 658 535 664 522 663 b 464 642 490 663 467 658 b 436 438 453 574 444 506 b 425 425 431 435 426 431 b 326 196 404 344 379 263 b 242 121 303 165 275 140 b 215 107 233 115 225 111 b 214 200 204 133 210 171 b 215 213 215 204 215 208 b 231 300 219 242 225 271 b 239 350 233 317 236 333 b 221 617 258 458 253 543 b 101 650 207 649 135 661 b 49 619 68 653 39 643 b 31 268 93 506 50 382 b 26 106 22 218 10 156 b 154 18 44 51 101 25 b 181 17 164 17 172 17 b 193 15 185 15 189 15 b 394 64 265 6 333 22 b 390 35 393 54 392 44 b 299 -204 376 -50 354 -136 b 215 -257 275 -233 246 -250 b 126 -226 186 -256 156 -246 b 61 -212 106 -214 81 -208 b 50 -215 58 -212 54 -214 b 21 -217 40 -214 31 -214 b 3 -244 10 -219 -12 -231 b 206 -332 58 -296 131 -331 b 251 -336 221 -335 236 -336 b 335 -322 281 -336 308 -332 b 515 -97 436 -286 489 -181 b 558 169 542 -11 550 81 b 567 236 561 192 564 214 b 575 303 569 258 572 281 b 604 622 586 407 599 515 b 549 663 606 644 576 660 z m 206 106 b 193 101 201 104 197 103 b 175 97 188 100 181 97 b 175 97 175 97 175 97 b 171 214 156 128 167 181 b 197 351 178 260 189 306 b 179 615 213 440 215 531 b 128 647 172 631 151 642 b 214 615 161 649 206 636 b 231 353 244 543 250 460 b 222 303 228 336 225 319 b 207 215 217 274 211 244 b 207 203 207 211 207 207 b 208 106 203 174 197 135 z m 86 -231 b 67 -221 81 -226 74 -224 b 79 -221 71 -221 75 -221 b 125 -235 94 -221 111 -226 b 190 -261 146 -249 168 -257 b 89 -232 157 -262 122 -253 z m 243 21 b 404 107 306 32 360 64 b 400 74 403 96 401 85 b 243 19 351 39 299 21 z m 572 301 b 564 235 569 279 567 257 b 556 168 561 213 558 190 b 513 -97 547 79 539 -12 b 338 -317 488 -178 436 -282 b 264 -329 314 -325 289 -329 b 301 -319 276 -326 289 -324 b 478 -99 396 -286 450 -189 b 529 235 511 8 517 124 b 565 622 543 364 558 493 b 533 653 567 636 551 647 b 553 653 539 654 546 654 b 601 621 578 650 603 638 b 572 301 596 514 583 406 z "},"z":{"ha":771,"x_min":0,"x_max":0,"o":"m 775 42 b 710 88 769 71 732 83 b 660 94 693 92 676 93 b 626 96 649 94 638 94 b 564 107 606 99 585 103 b 543 111 557 108 550 110 b 378 129 488 121 433 129 b 286 124 347 129 317 128 b 264 121 278 124 271 122 b 285 154 271 132 278 143 b 383 286 317 201 350 246 b 492 403 417 326 453 365 b 550 456 511 421 531 439 b 558 464 553 458 556 461 b 638 488 582 465 611 469 b 651 508 649 494 651 503 b 636 536 651 518 646 529 b 475 565 586 572 532 569 b 446 565 465 565 456 565 b 281 557 400 564 340 561 b 232 551 265 556 249 554 b 13 446 153 546 43 529 b 96 399 1 418 53 397 b 188 421 131 390 175 393 b 340 460 206 463 290 461 b 365 460 350 460 358 460 b 394 460 375 460 385 460 b 292 360 358 428 324 394 b 168 206 247 311 206 260 b 86 75 140 165 107 121 b 25 42 65 65 44 54 b 40 4 3 28 25 11 b 100 -7 57 -4 79 -8 b 132 -11 110 -10 121 -11 b 164 -6 143 -11 154 -10 b 392 40 243 29 319 44 b 629 -7 468 29 550 -3 b 736 -7 665 -12 701 -14 b 776 15 747 -4 767 1 b 781 39 781 22 782 31 z m 181 422 b 121 400 174 406 147 399 b 144 421 132 404 140 411 b 249 461 158 451 204 460 b 182 422 218 456 192 444 z m 243 153 b 342 286 274 199 307 243 b 449 403 375 326 411 365 b 507 457 468 421 488 439 b 517 467 510 460 513 463 b 596 490 544 468 572 474 b 592 533 614 503 608 522 b 528 561 571 549 550 557 b 628 529 563 560 596 553 b 640 508 636 524 640 515 b 631 493 640 503 638 497 b 554 471 606 476 576 472 l 553 471 l 551 469 b 542 460 547 465 544 463 b 483 407 522 443 503 425 b 375 290 444 369 408 331 b 276 158 342 250 308 206 b 253 121 268 146 260 133 b 215 115 240 119 228 118 b 240 156 224 129 232 143 z m 160 3 b 118 -3 147 -3 132 -4 b 122 -3 119 -3 121 -3 b 308 44 182 24 244 42 b 158 0 260 38 210 22 z m 586 89 b 503 104 558 93 531 99 b 419 115 475 108 447 113 b 542 99 460 113 500 106 b 563 94 549 97 556 96 b 617 86 581 92 599 89 b 588 88 607 86 597 86 z m 767 18 b 731 -1 758 6 739 0 b 689 -6 717 -4 703 -6 b 693 -6 690 -6 692 -6 b 733 36 714 -1 739 11 b 671 79 728 63 693 75 b 663 79 668 79 665 79 b 708 74 678 78 693 76 b 768 33 725 69 763 58 b 764 15 769 26 768 21 z "},"{":{"ha":543,"x_min":0,"x_max":0,"o":"m 457 861 b 249 899 399 897 319 911 b 203 894 233 899 218 897 b 82 776 140 882 100 836 b 31 461 53 682 111 536 b 39 394 7 440 15 413 b 104 375 57 381 81 374 b 107 367 106 372 107 369 b 106 317 110 350 107 333 b 88 200 101 278 94 239 b 82 0 76 135 60 65 b 229 -118 104 -62 164 -108 b 256 -119 238 -119 246 -119 b 268 -122 260 -121 264 -122 b 293 -124 276 -124 285 -124 b 376 -99 324 -124 357 -117 b 393 -61 393 -83 394 -69 b 357 -26 390 -47 378 -35 b 301 -17 339 -18 319 -15 b 299 -14 301 -15 300 -14 b 292 -12 297 -12 294 -12 b 283 -4 289 -10 286 -7 b 275 7 281 -1 278 1 b 278 158 254 49 267 107 b 286 207 282 175 285 192 b 290 231 288 214 289 222 b 275 411 299 290 308 358 b 238 450 265 426 253 439 b 260 633 263 506 261 571 l 260 644 b 290 785 258 689 257 750 b 340 801 303 799 321 800 b 349 801 343 801 346 801 b 378 801 358 801 368 801 b 444 808 400 803 422 804 b 468 831 457 811 467 819 b 453 860 469 842 464 853 z m 332 -93 b 314 -26 361 -67 346 -40 b 297 -21 308 -24 303 -22 b 349 -29 314 -19 332 -22 b 379 -60 367 -37 378 -49 b 365 -89 381 -69 376 -79 b 286 -112 347 -106 315 -112 b 329 -92 303 -108 318 -101 z m 281 793 b 249 649 246 757 247 694 l 249 638 b 225 456 250 575 251 510 l 224 453 l 226 451 b 264 413 242 440 254 428 b 278 239 296 363 286 297 b 274 215 276 231 275 222 b 265 168 272 201 269 185 b 264 11 254 115 242 56 b 275 -3 267 6 271 1 b 283 -11 278 -6 281 -8 l 285 -10 l 285 -11 b 279 -15 283 -12 282 -14 l 279 -17 b 254 -17 271 -15 263 -15 b 242 -19 250 -17 246 -18 b 251 -14 247 -17 250 -15 b 253 -12 256 -14 256 -14 b 247 -11 253 -11 251 -11 b 243 -11 246 -11 244 -11 b 244 -11 244 -11 244 -11 b 229 10 239 -3 233 0 b 240 211 200 67 232 153 b 229 411 249 275 267 353 b 190 450 219 426 206 439 b 214 646 218 508 215 578 b 246 789 213 692 211 754 b 307 806 263 806 285 804 b 311 806 308 806 310 806 b 283 790 301 803 292 799 z m 460 832 b 442 818 458 825 451 819 b 396 813 426 815 411 814 b 404 813 399 813 401 813 b 413 856 429 817 435 842 b 308 893 382 875 346 888 b 453 853 360 892 411 878 b 464 833 461 847 465 840 z "},"|":{"ha":282,"x_min":0,"x_max":0,"o":"m 239 36 b 239 119 239 64 239 92 l 239 457 l 239 553 b 239 786 239 631 239 708 b 239 878 239 817 239 847 b 232 1121 240 958 242 1042 b 142 1169 228 1150 182 1169 b 142 1169 142 1169 142 1169 b 113 1165 131 1169 121 1168 b 49 1135 81 1168 51 1160 b 43 807 36 1026 43 915 b 43 469 43 694 43 582 b 43 140 43 360 43 250 b 51 -193 43 31 33 -85 b 142 -235 56 -219 104 -237 b 175 -239 153 -237 164 -239 b 175 -239 175 -239 175 -239 b 229 -207 206 -239 226 -226 b 239 38 242 -126 240 -43 z m 222 -207 b 175 -232 219 -222 201 -232 b 163 -232 171 -232 167 -232 b 185 -207 175 -228 183 -219 b 193 121 201 -100 193 13 b 193 458 193 233 193 346 b 193 788 193 568 193 678 b 188 1121 193 897 200 1011 b 135 1163 185 1140 161 1156 b 142 1163 138 1163 140 1163 b 142 1163 142 1163 142 1163 b 222 1121 178 1163 219 1146 b 229 879 232 1042 231 960 b 229 788 229 849 229 818 b 229 554 229 710 229 632 l 229 458 l 229 121 b 229 38 229 93 229 65 b 219 -206 231 -43 232 -126 z "},"}":{"ha":482,"x_min":0,"x_max":0,"o":"m 454 499 b 388 525 438 515 414 525 l 379 525 l 385 519 b 379 517 383 518 381 517 b 378 519 378 517 378 518 l 378 519 l 378 521 b 378 521 378 521 378 521 l 378 525 l 378 525 b 375 533 378 528 376 531 b 372 546 374 538 372 542 b 376 607 369 567 374 588 l 378 611 b 378 749 385 654 393 703 b 288 851 364 793 332 829 b 160 868 247 871 201 876 b 99 858 139 868 118 865 b 88 803 69 849 67 822 b 161 781 106 786 135 779 b 178 778 167 779 172 778 b 188 760 181 772 185 767 b 193 690 196 738 196 714 b 176 547 188 642 172 596 b 231 446 181 504 201 469 b 196 254 196 392 189 322 b 131 7 203 185 240 14 b 79 -44 107 6 51 -8 b 194 -97 108 -82 151 -99 b 231 -101 206 -100 218 -101 b 321 -72 261 -101 293 -92 b 404 79 367 -42 397 14 b 399 207 410 122 404 165 b 392 279 396 231 393 256 b 443 417 390 319 394 392 b 474 454 460 425 471 439 b 458 497 476 469 471 485 z m 174 788 b 174 788 172 789 172 790 z m 200 864 b 286 843 229 864 258 857 b 372 746 328 822 358 788 b 371 610 386 701 378 653 l 369 606 b 364 542 365 585 361 564 b 367 529 364 538 365 533 b 367 525 367 528 367 526 b 349 521 361 524 356 522 b 344 521 347 521 346 521 b 344 521 344 521 344 521 b 340 519 343 521 342 521 b 340 519 340 519 340 519 l 342 515 b 332 521 338 514 332 514 b 332 521 332 521 332 521 b 303 514 322 519 313 517 b 333 522 317 518 326 521 b 326 543 332 529 328 536 b 332 610 324 565 328 588 b 333 746 339 654 347 701 b 196 863 313 808 257 850 z m 463 454 b 438 422 461 442 451 429 b 381 276 385 394 379 319 b 388 203 382 251 385 226 b 394 76 393 161 399 118 b 315 -69 388 13 358 -40 b 224 -96 286 -89 254 -97 b 278 -72 243 -92 261 -83 b 361 76 328 -39 354 19 b 350 275 369 143 353 208 b 406 417 349 324 357 392 b 419 490 436 432 444 465 b 396 507 413 497 404 503 b 399 511 397 508 399 510 b 399 511 399 511 399 511 b 456 486 415 510 438 504 b 469 450 467 475 471 463 z "},"~":{"ha":608,"x_min":0,"x_max":0,"o":"m 522 363 b 472 360 511 364 490 364 b 399 325 446 361 401 354 b 394 329 397 326 396 328 b 382 338 390 332 386 335 b 225 393 325 372 275 390 b 175 390 208 394 192 393 b 28 231 88 390 -10 328 b 117 197 36 210 83 194 b 150 193 128 194 139 193 b 169 196 157 193 164 194 b 193 226 188 200 196 211 b 204 276 190 242 194 261 b 214 289 207 281 210 285 b 243 268 225 282 235 274 b 307 229 264 254 285 240 b 426 201 336 215 382 203 b 554 217 472 194 521 196 b 594 294 581 233 594 260 b 525 361 594 335 557 356 z m 201 279 b 189 222 192 263 186 240 b 169 199 190 211 183 203 b 138 197 160 196 149 196 b 153 222 149 201 154 210 b 165 276 150 240 156 261 b 181 294 169 283 175 289 b 190 301 183 297 193 300 b 211 293 197 300 204 297 b 200 279 207 289 203 285 z m 399 301 b 393 301 397 301 396 301 b 340 332 375 306 356 322 b 214 385 301 357 260 376 b 226 385 218 385 222 385 b 379 329 275 382 324 364 b 392 321 383 326 388 324 b 400 313 394 318 397 315 b 399 300 400 308 400 303 z m 550 221 b 475 203 529 208 503 203 b 551 289 518 211 551 236 b 499 350 551 321 526 342 b 525 350 508 351 518 351 b 588 290 554 344 588 326 b 551 219 588 258 575 235 z "},"":{"ha":429,"x_min":0,"x_max":0,"o":""},"":{"ha":0,"x_min":0,"x_max":0,"o":""},"":{"ha":306,"x_min":0,"x_max":0,"o":"m 269 869 b 200 894 253 886 225 896 b 171 893 190 893 181 893 b 114 890 151 893 132 893 b 29 868 83 889 53 885 b 32 829 11 856 18 840 b 92 803 50 815 71 807 b 79 765 89 790 85 778 b 26 683 64 736 43 711 b 111 632 6 646 75 632 b 150 628 125 629 139 628 b 169 629 158 628 165 628 b 292 831 249 651 292 750 b 272 871 292 846 285 860 z m 168 636 b 139 636 163 635 151 635 b 250 831 214 663 250 757 b 200 889 250 860 226 881 b 204 889 201 889 203 889 b 268 867 226 890 253 882 b 285 831 279 857 285 844 b 169 638 285 753 244 658 z "},"":{"ha":557,"x_min":0,"x_max":0,"o":"m 521 869 b 451 894 504 886 476 896 b 422 893 442 893 432 893 b 365 890 403 893 383 893 b 281 868 335 889 304 885 b 276 864 279 867 278 865 b 271 871 275 867 274 869 b 201 896 254 888 226 897 b 172 894 192 894 182 894 b 115 892 153 894 133 894 b 31 869 85 890 54 886 b 33 831 13 857 19 842 b 93 804 51 817 72 808 b 81 767 90 792 86 779 b 28 685 65 738 44 713 b 113 633 7 647 76 633 b 151 629 126 631 140 629 b 171 631 160 629 167 629 b 292 825 247 653 289 746 b 346 803 308 814 326 807 b 333 765 343 790 339 778 b 281 683 318 736 297 711 b 365 632 260 646 329 632 b 404 628 379 629 393 628 b 424 629 413 628 419 628 b 546 831 503 651 546 750 b 526 871 546 846 539 860 z m 171 636 b 142 636 165 635 154 635 b 253 831 217 663 253 757 b 203 889 253 860 229 881 b 207 889 204 889 206 889 b 271 867 229 890 256 882 b 276 858 274 864 275 861 b 286 829 271 849 276 838 b 171 636 286 751 246 657 z m 422 636 b 393 636 417 635 406 635 b 504 831 468 663 504 757 b 454 889 504 860 481 881 b 458 889 456 889 457 889 b 522 867 481 890 507 882 b 539 831 533 857 539 844 b 424 638 539 753 499 658 z "}}}
